<svg xmlns="http://www.w3.org/2000/svg" xmlns:xlink="http://www.w3.org/1999/xlink" width="540" zoomAndPan="magnify" viewBox="0 0 404.88 404.99999" height="540" preserveAspectRatio="xMidYMid meet" version="1.0"><defs><clipPath id="7fb8fac5f6"><path d="M 16.195312 4 L 193 4 L 193 402 L 16.195312 402 Z M 16.195312 4 " clip-rule="nonzero"/></clipPath></defs><g clip-path="url(#7fb8fac5f6)"><path fill="#fce3fb" d="M 191.882812 377.226562 L 162.835938 401.027344 L 131.183594 400.953125 C 122.054688 393.617188 112.929688 386.277344 103.761719 378.992188 C 102.910156 378.316406 102.636719 376.882812 101.792969 376.328125 C 98.511719 374.171875 88.867188 374.296875 84.882812 371.636719 C 82.800781 370.25 71.425781 356.03125 69.414062 353.148438 C 68.570312 351.9375 68.808594 350.304688 67.882812 349.28125 C 66.226562 347.449219 57.242188 344.832031 54.226562 342.875 C 46.828125 338.074219 39.371094 323.839844 32.730469 317.304688 L 31.984375 287.179688 L 16.199219 270.558594 L 16.199219 228.152344 C 16.199219 228.152344 26.199219 217.335938 26.199219 217.335938 L 16.203125 207.28125 L 16.203125 169.511719 C 16.203125 169.511719 32.230469 152.359375 32.230469 152.359375 L 32.542969 115.632812 L 52.054688 91.933594 L 55.183594 67.285156 L 78.492188 39.664062 L 101.742188 33.207031 L 102.839844 28.121094 C 109.796875 24.816406 127.019531 5.773438 133.128906 4.796875 C 136.601562 4.238281 160.105469 4.246094 162.839844 5.09375 C 172.984375 13.398438 184.722656 21.304688 192.871094 31.390625 L 192.917969 373.238281 L 191.886719 377.230469 Z M 183.625 75.742188 L 183.625 34.460938 L 159.152344 14.179688 L 135.585938 14.199219 L 111.492188 34.089844 C 110.796875 35.621094 110.679688 57.917969 111.054688 60.738281 C 111.632812 65.097656 123.421875 72.890625 125.773438 77.65625 L 139.648438 78.824219 L 139.648438 88.09375 C 134.144531 87.996094 128.648438 88.667969 123.359375 86.910156 L 110.335938 97.347656 L 104.953125 90.019531 L 115.671875 80.085938 L 101.832031 66.097656 L 101.832031 43.332031 C 97.050781 44.46875 89.328125 45.703125 85.074219 47.792969 C 82.636719 48.996094 65.6875 68.464844 64.488281 71.191406 C 62.320312 76.136719 63.171875 83.542969 61.710938 88.851562 C 71.484375 88.414062 79.386719 82.796875 87.929688 78.828125 L 92.570312 87.304688 L 80.238281 93.875 C 89.804688 104.132812 100.164062 113.492188 109.984375 123.566406 C 110.859375 124.46875 110.960938 125.898438 111.089844 125.898438 L 121.890625 125.898438 L 121.890625 135.929688 L 109.160156 135.929688 L 69.832031 96.867188 C 66.273438 98.253906 61.066406 98.167969 57.875 100.078125 C 52.800781 103.121094 46.59375 115.148438 41.640625 119.335938 L 41.640625 144.417969 L 52.074219 137.484375 C 60.117188 136.445312 67.902344 137.175781 75.964844 137.488281 L 90.0625 148.933594 C 91.53125 149.222656 95.59375 146.058594 97.804688 145.40625 C 101.863281 144.203125 106.132812 144.363281 110.320312 144.414062 L 110.328125 154.003906 C 105.703125 155.253906 100.046875 152.90625 96.507812 157.265625 C 98.207031 164.273438 99.730469 171.078125 99.964844 178.335938 L 99.019531 179.800781 L 90.25 179.914062 C 90.328125 174.933594 89.386719 163.210938 86.746094 159.109375 C 86.347656 158.492188 77.101562 149.949219 75.957031 149.066406 C 74.828125 148.203125 73.496094 147.027344 72.082031 146.765625 C 69.375 146.269531 59.59375 146.359375 56.671875 146.710938 C 53.039062 147.144531 42.578125 155.796875 39.316406 158.675781 C 34.628906 162.8125 30.460938 167.949219 25.835938 172.207031 L 25.5625 204.089844 C 28.878906 207.785156 56.375 230.496094 56.191406 232.628906 L 50.539062 239.308594 L 33.4375 223.941406 C 30.804688 225.625 25.792969 229.753906 25.398438 232.722656 C 23.988281 243.277344 26.394531 257.179688 25.59375 268.101562 C 25.925781 269.21875 37.890625 280.929688 39.558594 281.917969 C 43.546875 284.289062 49.667969 285.832031 53.746094 288.589844 L 62.816406 282.484375 L 67.84375 289.15625 L 67.523438 290.269531 L 55.089844 298.738281 L 41.644531 293.335938 L 41.644531 313.785156 C 47.347656 318.808594 52.511719 329.195312 57.808594 333.882812 C 60.1875 335.992188 65.605469 337.457031 68.648438 338.859375 L 68.648438 322.269531 L 81.535156 308.847656 C 83.789062 308.257812 86.855469 313.21875 88.699219 314.554688 L 78.066406 326.285156 L 78.070312 347.570312 C 78.390625 348.972656 89.214844 362.730469 90.621094 363.570312 C 93.53125 365.3125 98.539062 365.15625 101.832031 366.640625 L 101.832031 344.648438 L 113.125 332.742188 L 119.238281 338.097656 L 119.226562 339.609375 L 111.246094 348.664062 L 111.246094 372.265625 C 111.246094 372.265625 134.78125 391.949219 134.78125 391.949219 L 159.746094 391.757812 L 183.621094 371.65625 L 183.621094 311.082031 C 182.277344 310.746094 182.082031 311.640625 181.304688 312.234375 C 176.660156 315.789062 169.296875 324.78125 164.621094 327.1875 C 161.59375 328.746094 158.167969 327.550781 155.070312 328.828125 L 155.070312 351.207031 L 145.8125 351.207031 L 145.8125 328.828125 C 142.414062 327.609375 138.1875 328.699219 135.042969 327.640625 C 134.078125 327.3125 122.0625 318.457031 120.757812 317.234375 C 118.730469 315.335938 111.613281 303.65625 112.945312 301.792969 L 120.75 298.050781 C 123.59375 301.230469 123.878906 305.835938 126.519531 309.15625 C 127.796875 310.757812 137.664062 318.46875 139.289062 318.761719 C 142.261719 319.300781 158.207031 319.421875 160.457031 318.398438 L 183.621094 297.578125 L 183.621094 259.382812 L 148.511719 259.382812 L 122.679688 233.515625 L 122.820312 199.738281 L 138.082031 183.378906 C 138.082031 182.71875 130.625 175.476562 129.792969 173.15625 C 128.050781 168.269531 129.703125 161.773438 128.0625 156.761719 L 138.097656 156.75 C 138.296875 160.308594 137.863281 167.503906 139.257812 170.636719 C 139.835938 171.929688 147.15625 179.574219 148.703125 180.480469 C 153.484375 183.296875 158.226562 183.324219 163.523438 182.246094 L 164.328125 192.25 L 153.136719 192.25 C 151.398438 192.25 148.054688 188.929688 145.058594 190.308594 C 144.265625 190.671875 133.082031 201.867188 132.648438 202.625 C 130.28125 206.746094 132.785156 224.507812 132.078125 230.285156 L 151.59375 250.121094 L 183.617188 250.121094 L 183.617188 145.949219 L 158.164062 144.007812 L 138.863281 124.730469 L 138.863281 104.28125 L 148.121094 104.28125 L 148.121094 120.871094 C 148.121094 121.855469 161.167969 134.292969 162.054688 134.722656 C 166.789062 137.027344 177.972656 135.671875 183.621094 136.691406 L 183.621094 85.765625 L 161.007812 81.949219 C 160.082031 78.816406 145.808594 68.105469 145.808594 66.859375 L 145.808594 52.585938 L 155.070312 52.582031 C 155.503906 53.011719 154.460938 60.390625 155.46875 62.601562 C 155.796875 63.324219 165.925781 73.484375 166.652344 73.792969 C 167.929688 74.335938 183.011719 76.335938 183.617188 75.734375 Z M 183.625 75.742188 " fill-opacity="1" fill-rule="nonzero"/></g><path fill="#fce3fb" d="M 128.066406 276.363281 L 128.066406 285.625 L 101.445312 285.625 L 85.082031 269.578125 L 64.015625 268.652344 L 64.742188 259.726562 L 81.769531 260.160156 L 81.769531 244.34375 C 81.769531 243.699219 87.671875 233.253906 88.316406 233.203125 L 95.324219 237.777344 C 94.980469 241.5 91.675781 244 91.09375 248.265625 C 90.734375 250.910156 90.636719 258.707031 91.191406 261.15625 C 92.058594 265.011719 102.652344 272.648438 105.300781 276.363281 Z M 128.066406 276.363281 " fill-opacity="1" fill-rule="nonzero"/><path fill="#fce3fb" d="M 61.707031 179.140625 L 61.707031 196.5 L 79.839844 214.632812 L 101.832031 214.632812 L 101.832031 223.894531 L 75.980469 223.894531 L 52.605469 200.199219 L 51.671875 179.136719 Z M 61.707031 179.140625 " fill-opacity="1" fill-rule="nonzero"/><path fill="#fce3fb" d="M 213.71875 102.75 L 228.363281 88.457031 L 228.210938 28.058594 C 213.902344 20.722656 221.277344 0.0664062 237.429688 5.34375 C 244.796875 7.753906 247 18.539062 242.152344 24.316406 C 240.441406 26.359375 237.59375 26.628906 236.859375 29.054688 L 236.707031 92.171875 L 214.117188 114.335938 L 213.714844 125.128906 L 220.261719 125.109375 L 252.140625 94.488281 L 252.3125 55.453125 C 240.503906 50.007812 243.082031 31.925781 256.527344 31.710938 C 270.730469 31.484375 273.546875 50.339844 260.753906 55.421875 L 260.769531 96.945312 L 233.007812 125.121094 C 235.070312 124.914062 237.574219 125.488281 239.546875 125.109375 C 243.546875 124.347656 270.605469 93.859375 276.589844 89.617188 L 276.601562 36.394531 C 263.867188 30.199219 268.28125 10.796875 282.707031 12.535156 C 292.386719 13.703125 296.347656 25.511719 290.117188 32.925781 C 288.355469 35.023438 285.121094 35.332031 284.703125 37.542969 L 285.320312 92.175781 L 243.421875 133.613281 L 213.714844 133.613281 L 213.714844 145.960938 L 244.195312 145.960938 L 309.769531 81.128906 C 312.878906 72.746094 306.039062 74.003906 303.566406 68.839844 C 294.019531 48.902344 329.347656 42.710938 326.304688 65.257812 C 325.398438 71.992188 319.308594 73.113281 318.78125 74.707031 C 318.042969 76.929688 319.199219 80.460938 318.492188 82.90625 C 296.050781 106.980469 271.429688 129.527344 248.425781 153.277344 L 213.714844 154.445312 L 213.714844 166.019531 L 255.769531 166.019531 L 307.097656 115.492188 L 330.488281 115.128906 C 334.726562 104.050781 350.683594 103.652344 354.117188 115.53125 C 358.375 130.273438 336.265625 137.695312 330.488281 122.777344 L 310.953125 123.210938 C 296.792969 136.484375 284.035156 151.394531 269.488281 164.257812 C 268.964844 164.71875 268.019531 164.203125 268.5 166.023438 L 281.234375 166.023438 L 311.484375 136.085938 L 359.171875 135.933594 L 360.722656 135.171875 C 366.152344 122.464844 385.628906 128.054688 384.195312 141.632812 C 383.199219 151.089844 370.5 155.597656 363.464844 149.378906 C 361.808594 147.914062 361.464844 144.847656 359.171875 144.414062 L 315.203125 144.433594 L 284.933594 173.582031 C 264.183594 174.480469 243.292969 172.941406 222.558594 173.707031 C 219.53125 173.820312 216.71875 175.558594 213.714844 173.742188 L 213.714844 185.316406 L 292.773438 186.089844 L 317.128906 162.566406 L 341.292969 162.199219 C 347.476562 147.273438 370.246094 155.269531 364.542969 170.632812 C 360.488281 181.570312 346.503906 180.273438 341.292969 170.777344 L 320.746094 170.640625 C 318.011719 176.371094 303.613281 184.824219 301.796875 189.699219 C 300.945312 191.984375 303.023438 191.417969 303.996094 192.617188 C 309.492188 199.378906 315.855469 205.46875 322.289062 211.394531 L 335.121094 211.585938 C 338.808594 200.957031 355.925781 201.492188 358.449219 212.269531 C 362.226562 228.375 341.488281 233.980469 335.09375 220.023438 L 318.859375 219.453125 L 294.152344 194.777344 C 286.667969 193.3125 278.8125 193.664062 271.175781 193.769531 C 253.03125 194.019531 234.476562 194.535156 216.429688 194.632812 C 215.394531 194.636719 214.632812 194.101562 213.71875 193.800781 L 213.71875 209.234375 L 284.324219 209.234375 L 316.890625 241.484375 L 351.457031 241.644531 L 353.011719 240.886719 C 356.488281 232.523438 369.046875 231.308594 374.089844 239.070312 C 384.242188 254.683594 359.664062 267.082031 352.066406 250.117188 L 313.800781 249.972656 L 281.234375 217.722656 L 213.71875 217.722656 L 213.71875 229.296875 L 275.832031 229.296875 L 320.214844 272.878906 L 360.285156 274.039062 C 365.9375 258.621094 388.6875 265.960938 383.519531 282.195312 C 380.972656 290.195312 369.394531 292.453125 363.488281 286.707031 C 361.898438 285.160156 361.324219 282.167969 359.171875 281.761719 L 316.886719 281.609375 L 272.746094 237.785156 L 255.382812 237.785156 L 322.53125 304.515625 L 333.582031 304.792969 C 337.105469 298.472656 343.027344 294.742188 350.285156 297.597656 C 363.933594 302.964844 357.589844 324.195312 342.722656 320.585938 C 336.375 319.046875 335.003906 313.222656 333.582031 312.753906 C 329.742188 311.484375 321.933594 314.027344 318.230469 311.902344 L 244.195312 237.78125 L 213.71875 237.78125 L 213.71875 250.128906 L 244.96875 250.128906 L 309.382812 314.570312 C 307.964844 321.714844 311.746094 319.960938 315.203125 324.1875 C 324.125 335.109375 310.476562 350.109375 298.976562 341.957031 C 292.992188 337.71875 292.039062 328.710938 297.039062 323.253906 C 298.816406 321.3125 303.132812 320.863281 300.738281 316.648438 C 300.558594 316.328125 298.855469 315.808594 298.171875 315.003906 C 282.679688 296.824219 262.195312 279.617188 245.332031 262.109375 C 242.007812 258.65625 242.589844 256.832031 236.097656 257.851562 C 235.75 259.1875 236.652344 259.394531 237.246094 260.167969 C 243.332031 268.09375 253.890625 275.386719 260.386719 283.324219 L 261.1875 299.5 L 285.132812 324.164062 L 285.472656 365.496094 C 286.042969 368.464844 293.902344 369.816406 293.214844 379.363281 C 291.984375 396.523438 263.125 392.824219 270.121094 373.285156 C 271.652344 369.015625 276.621094 367.457031 276.996094 365.492188 L 276.972656 327.066406 C 272.3125 323.054688 267.910156 316.691406 263.105469 313.011719 C 262.332031 312.414062 262.132812 311.523438 260.789062 311.859375 L 260.789062 334.238281 C 260.789062 334.371094 262.507812 334.488281 263.363281 335.101562 C 269.40625 339.425781 270.851562 347.128906 266.183594 353.136719 C 257.789062 363.949219 239.925781 354.027344 245.738281 340.410156 C 247.148438 337.109375 251.949219 334.957031 252.304688 333.085938 L 252.140625 286.941406 L 224.175781 258.574219 L 213.714844 257.84375 L 214.117188 267.09375 L 236.707031 290.027344 L 236.863281 373.210938 L 237.625 374.761719 C 245.960938 377.839844 247.167969 389.835938 240.332031 395.195312 C 227.914062 404.929688 213.402344 387.921875 224.207031 376.753906 C 225.652344 375.261719 228.242188 374.878906 228.4375 373.230469 L 228.359375 293.746094 L 213.714844 278.679688 L 213.714844 366.261719 C 213.714844 369.398438 206.871094 369.851562 205.226562 367.03125 L 205.226562 36.773438 C 205.226562 34.191406 213.714844 34.191406 213.714844 36.773438 L 213.714844 102.746094 Z M 236.988281 16.597656 C 236.988281 14.191406 235.035156 12.242188 232.628906 12.242188 C 230.222656 12.242188 228.273438 14.195312 228.273438 16.597656 C 228.273438 19.003906 230.222656 20.957031 232.628906 20.957031 C 235.035156 20.957031 236.988281 19.003906 236.988281 16.597656 Z M 285.546875 24.644531 C 285.546875 22.21875 283.582031 20.25 281.152344 20.25 C 278.726562 20.25 276.757812 22.21875 276.757812 24.644531 C 276.757812 27.070312 278.726562 29.039062 281.152344 29.039062 C 283.582031 29.039062 285.546875 27.070312 285.546875 24.644531 Z M 261.296875 43.710938 C 261.296875 41.257812 259.308594 39.269531 256.855469 39.269531 C 254.398438 39.269531 252.410156 41.257812 252.410156 43.710938 C 252.410156 46.164062 254.398438 48.15625 256.855469 48.15625 C 259.308594 48.15625 261.296875 46.164062 261.296875 43.710938 Z M 318.757812 62.714844 C 318.757812 60.296875 316.796875 58.335938 314.378906 58.335938 C 311.957031 58.335938 310 60.296875 310 62.714844 C 310 65.132812 311.957031 67.09375 314.378906 67.09375 C 316.796875 67.09375 318.757812 65.132812 318.757812 62.714844 Z M 346.710938 118.90625 C 346.710938 116.464844 344.734375 114.484375 342.289062 114.484375 C 339.847656 114.484375 337.871094 116.464844 337.871094 118.90625 C 337.871094 121.347656 339.847656 123.328125 342.289062 123.328125 C 344.734375 123.328125 346.710938 121.347656 346.710938 118.90625 Z M 376.304688 140.132812 C 376.304688 137.691406 374.324219 135.714844 371.882812 135.714844 C 369.445312 135.714844 367.464844 137.691406 367.464844 140.132812 C 367.464844 142.574219 369.445312 144.550781 371.882812 144.550781 C 374.324219 144.550781 376.304688 142.574219 376.304688 140.132812 Z M 357.78125 166.367188 C 357.78125 163.925781 355.804688 161.949219 353.363281 161.949219 C 350.921875 161.949219 348.945312 163.925781 348.945312 166.367188 C 348.945312 168.808594 350.921875 170.785156 353.363281 170.785156 C 355.804688 170.785156 357.78125 168.808594 357.78125 166.367188 Z M 351.222656 215.960938 C 351.222656 213.550781 349.269531 211.59375 346.859375 211.59375 C 344.449219 211.59375 342.496094 213.550781 342.496094 215.960938 C 342.496094 218.367188 344.449219 220.324219 346.859375 220.324219 C 349.269531 220.324219 351.222656 218.367188 351.222656 215.960938 Z M 368.316406 246.226562 C 368.316406 243.78125 366.339844 241.804688 363.898438 241.804688 C 361.453125 241.804688 359.476562 243.78125 359.476562 246.226562 C 359.476562 248.667969 361.453125 250.644531 363.898438 250.644531 C 366.339844 250.644531 368.316406 248.667969 368.316406 246.226562 Z M 376.554688 277.75 C 376.554688 275.339844 374.601562 273.386719 372.1875 273.386719 C 369.777344 273.386719 367.824219 275.339844 367.824219 277.75 C 367.824219 280.164062 369.777344 282.117188 372.1875 282.117188 C 374.601562 282.117188 376.554688 280.164062 376.554688 277.75 Z M 350.0625 309.078125 C 350.0625 306.648438 348.09375 304.683594 345.664062 304.683594 C 343.238281 304.683594 341.269531 306.648438 341.269531 309.078125 C 341.269531 311.507812 343.238281 313.476562 345.664062 313.476562 C 348.09375 313.476562 350.0625 311.507812 350.0625 309.078125 Z M 310.308594 331.933594 C 310.308594 329.492188 308.328125 327.511719 305.886719 327.511719 C 303.445312 327.511719 301.464844 329.492188 301.464844 331.933594 C 301.464844 334.375 303.445312 336.355469 305.886719 336.355469 C 308.328125 336.355469 310.308594 334.375 310.308594 331.933594 Z M 261.3125 345.433594 C 261.3125 342.988281 259.332031 341.011719 256.890625 341.011719 C 254.449219 341.011719 252.472656 342.988281 252.472656 345.433594 C 252.472656 347.875 254.449219 349.851562 256.890625 349.851562 C 259.332031 349.851562 261.3125 347.875 261.3125 345.433594 Z M 285.535156 378.324219 C 285.535156 375.859375 283.539062 373.859375 281.074219 373.859375 C 278.609375 373.859375 276.609375 375.859375 276.609375 378.324219 C 276.609375 380.789062 278.609375 382.789062 281.074219 382.789062 C 283.539062 382.789062 285.535156 380.789062 285.535156 378.324219 Z M 237.085938 385.761719 C 237.085938 383.316406 235.105469 381.335938 232.660156 381.335938 C 230.214844 381.335938 228.234375 383.316406 228.234375 385.761719 C 228.234375 388.207031 230.214844 390.1875 232.660156 390.1875 C 235.105469 390.1875 237.085938 388.207031 237.085938 385.761719 Z M 237.085938 385.761719 " fill-opacity="1" fill-rule="nonzero"/></svg>