<svg xmlns="http://www.w3.org/2000/svg" xmlns:xlink="http://www.w3.org/1999/xlink" width="540" zoomAndPan="magnify" viewBox="0 0 404.88 404.99999" height="540" preserveAspectRatio="xMidYMid meet" version="1.0"><defs><clipPath id="f9f1b36e0e"><path d="M 0 0.0585938 L 404.761719 0.0585938 L 404.761719 403 L 0 403 Z M 0 0.0585938 " clip-rule="nonzero"/></clipPath><clipPath id="616095ddd0"><path d="M 308 241 L 404.761719 241 L 404.761719 324 L 308 324 Z M 308 241 " clip-rule="nonzero"/></clipPath><clipPath id="7c9807d80d"><path d="M 308 81 L 404.761719 81 L 404.761719 164 L 308 164 Z M 308 81 " clip-rule="nonzero"/></clipPath><clipPath id="1705520e3e"><path d="M 241 0.0585938 L 324 0.0585938 L 324 97 L 241 97 Z M 241 0.0585938 " clip-rule="nonzero"/></clipPath><clipPath id="7e5cb92703"><path d="M 81 0.0585938 L 165 0.0585938 L 165 97 L 81 97 Z M 81 0.0585938 " clip-rule="nonzero"/></clipPath><clipPath id="9ea0c9a1af"><path d="M 79 308 L 162 308 L 162 404.9375 L 79 404.9375 Z M 79 308 " clip-rule="nonzero"/></clipPath><clipPath id="f9a808ae1d"><path d="M 239 308 L 322 308 L 322 404.9375 L 239 404.9375 Z M 239 308 " clip-rule="nonzero"/></clipPath></defs><g clip-path="url(#f9f1b36e0e)"><path fill="#fce3fb" d="M 273.925781 308.148438 C 275.824219 309.414062 278.355469 309.414062 280.253906 307.515625 L 307.457031 280.3125 C 309.355469 278.414062 309.355469 275.882812 308.089844 273.988281 L 295.4375 255.640625 C 299.863281 247.417969 303.660156 239.191406 305.558594 230.335938 L 327.699219 226.539062 C 330.230469 225.90625 331.496094 224.007812 331.496094 222.113281 L 331.496094 206.296875 L 361.230469 206.296875 C 363.125 215.785156 371.984375 223.375 382.738281 223.375 C 394.757812 223.375 404.246094 213.886719 404.246094 201.867188 C 404.246094 189.847656 394.757812 180.359375 382.738281 180.359375 C 372.617188 180.359375 363.757812 187.949219 361.230469 197.4375 L 331.496094 197.4375 L 331.496094 184.152344 C 331.496094 181.625 329.597656 179.726562 327.699219 179.726562 L 305.558594 175.929688 C 303.027344 167.074219 299.863281 158.847656 294.804688 150.625 L 307.457031 132.277344 C 308.722656 130.378906 308.722656 127.851562 306.824219 125.953125 L 279.621094 98.75 C 277.722656 96.851562 275.191406 96.851562 273.292969 98.117188 L 254.949219 110.769531 C 246.722656 106.339844 238.5 102.546875 229.644531 100.648438 L 225.847656 78.503906 C 225.214844 75.976562 223.316406 74.710938 221.417969 74.710938 L 205.601562 74.710938 L 205.601562 43.078125 C 215.09375 41.179688 222.683594 32.324219 222.683594 21.570312 C 222.683594 9.550781 213.195312 0.0585938 201.175781 0.0585938 C 189.15625 0.0585938 179.664062 9.550781 179.664062 21.570312 C 179.664062 31.691406 187.257812 40.546875 196.746094 43.078125 L 196.746094 72.8125 L 183.460938 72.8125 C 180.929688 72.8125 179.03125 74.710938 179.03125 76.609375 L 175.238281 98.75 C 166.378906 101.28125 158.15625 104.441406 149.933594 108.871094 L 131.585938 96.21875 C 129.6875 94.953125 127.15625 94.953125 125.257812 96.851562 L 98.058594 124.054688 C 96.160156 125.953125 96.160156 128.484375 97.425781 130.378906 L 110.078125 148.726562 C 105.648438 156.949219 101.851562 165.175781 99.320312 174.03125 L 77.179688 177.828125 C 74.648438 178.460938 73.382812 180.359375 73.382812 182.257812 L 73.382812 195.542969 L 43.019531 195.542969 C 41.121094 186.050781 32.265625 178.460938 21.507812 178.460938 C 9.488281 178.460938 0 187.949219 0 199.96875 C 0 211.988281 9.488281 221.480469 21.507812 221.480469 C 31.632812 221.480469 40.488281 213.886719 43.019531 204.398438 L 72.75 204.398438 L 72.75 220.214844 C 72.75 222.742188 74.648438 224.640625 76.546875 224.640625 L 98.691406 228.4375 C 101.21875 237.292969 104.382812 245.519531 109.445312 253.742188 L 96.792969 272.089844 C 95.527344 273.988281 95.527344 276.515625 97.425781 278.414062 L 124.628906 305.617188 C 126.523438 307.515625 129.054688 307.515625 130.953125 306.25 L 149.300781 293.597656 C 157.523438 298.027344 165.746094 301.820312 174.605469 303.71875 L 178.398438 325.863281 C 179.03125 328.390625 180.929688 329.65625 182.828125 329.65625 L 196.746094 329.65625 L 196.746094 359.390625 C 187.257812 361.289062 179.664062 370.144531 179.664062 380.898438 C 179.664062 392.921875 189.15625 402.410156 201.175781 402.410156 C 213.195312 402.410156 222.683594 392.921875 222.683594 380.898438 C 222.683594 370.777344 215.09375 361.921875 205.601562 359.390625 L 205.601562 329.65625 L 220.785156 329.65625 C 223.316406 329.65625 225.214844 327.757812 225.214844 325.863281 L 229.011719 303.71875 C 237.867188 301.191406 246.089844 298.027344 254.316406 293.597656 Z M 382.738281 189.214844 C 389.695312 189.214844 394.757812 194.910156 394.757812 201.234375 C 394.757812 208.195312 389.0625 213.253906 382.738281 213.253906 C 375.777344 213.253906 370.71875 207.5625 370.71875 201.234375 C 370.71875 194.277344 376.410156 189.214844 382.738281 189.214844 Z M 189.15625 21.570312 C 189.15625 14.609375 194.847656 9.550781 201.175781 9.550781 C 208.132812 9.550781 213.195312 15.242188 213.195312 21.570312 C 213.195312 27.894531 207.5 33.589844 201.175781 33.589844 C 194.847656 34.222656 189.15625 28.527344 189.15625 21.570312 Z M 22.140625 213.886719 C 15.183594 213.886719 10.121094 208.195312 10.121094 201.867188 C 10.121094 194.910156 15.816406 189.847656 22.140625 189.847656 C 29.101562 189.847656 34.160156 195.542969 34.160156 201.867188 C 34.160156 208.195312 28.46875 213.886719 22.140625 213.886719 Z M 214.460938 383.429688 C 214.460938 390.390625 208.765625 395.449219 202.441406 395.449219 C 195.480469 395.449219 190.421875 389.757812 190.421875 383.429688 C 190.421875 376.472656 196.113281 371.410156 202.441406 371.410156 C 208.765625 370.777344 214.460938 376.472656 214.460938 383.429688 Z M 225.214844 297.394531 C 223.316406 298.027344 222.050781 299.292969 221.417969 301.191406 L 217.621094 322.699219 L 186.625 322.699219 L 183.460938 301.191406 C 182.828125 299.292969 181.5625 298.027344 179.664062 297.394531 C 170.175781 295.496094 160.6875 291.066406 151.199219 286.007812 C 149.300781 284.742188 147.402344 285.375 146.136719 286.007812 L 128.421875 298.027344 L 106.914062 275.882812 L 118.933594 258.171875 C 120.199219 256.90625 120.199219 254.375 118.933594 253.109375 C 113.238281 244.253906 109.445312 234.765625 107.546875 224.640625 C 106.914062 222.742188 105.648438 221.480469 103.75 220.847656 L 82.242188 217.050781 L 82.242188 186.050781 L 103.117188 182.257812 C 105.015625 181.625 106.28125 180.359375 106.914062 178.460938 C 109.445312 168.339844 113.238281 158.847656 118.933594 149.992188 C 120.199219 148.09375 119.566406 146.195312 118.933594 144.929688 L 106.914062 127.21875 L 128.421875 105.707031 L 146.136719 117.726562 C 147.402344 118.992188 149.933594 118.992188 151.199219 117.726562 C 160.054688 112.667969 169.542969 108.238281 179.664062 106.339844 C 181.5625 105.707031 182.828125 104.441406 183.460938 102.546875 L 187.257812 81.035156 L 217.621094 81.035156 L 221.417969 102.546875 C 222.050781 104.441406 223.316406 105.707031 225.214844 106.339844 C 235.335938 108.871094 244.824219 112.667969 253.683594 117.726562 C 255.582031 118.992188 257.476562 118.359375 258.742188 117.726562 L 276.457031 105.707031 L 298.597656 127.21875 L 285.945312 144.929688 C 284.679688 146.195312 284.679688 148.726562 285.945312 149.992188 C 291.640625 158.847656 295.4375 168.339844 297.964844 178.460938 C 298.597656 180.359375 299.863281 181.625 301.761719 182.257812 L 322.640625 186.050781 L 322.640625 216.417969 L 301.128906 221.480469 C 299.230469 222.113281 297.964844 223.375 297.332031 225.273438 C 294.804688 234.765625 291.007812 244.253906 285.945312 253.742188 C 284.679688 255.640625 285.3125 257.539062 285.945312 258.804688 L 298.597656 276.515625 L 276.457031 298.660156 L 258.742188 286.007812 C 257.476562 284.742188 254.949219 284.742188 253.683594 286.007812 C 244.191406 291.066406 234.703125 294.863281 225.214844 297.394531 Z M 225.214844 297.394531 " fill-opacity="1" fill-rule="nonzero"/></g><path fill="#fce3fb" d="M 280.886719 202.5 C 280.886719 158.847656 245.457031 124.054688 202.441406 124.054688 C 158.789062 124.054688 123.996094 159.480469 123.996094 202.5 C 123.996094 246.152344 159.421875 280.945312 202.441406 280.945312 C 246.089844 280.945312 280.886719 245.519531 280.886719 202.5 Z M 202.441406 271.457031 C 164.484375 271.457031 133.484375 240.457031 133.484375 202.5 C 133.484375 163.910156 164.484375 132.910156 202.441406 132.910156 C 240.398438 132.910156 271.394531 163.910156 271.394531 201.867188 C 271.394531 240.457031 240.398438 271.457031 202.441406 271.457031 Z M 202.441406 271.457031 " fill-opacity="1" fill-rule="nonzero"/><path fill="#fce3fb" d="M 202.441406 155.6875 C 176.503906 155.6875 156.257812 176.5625 156.257812 201.867188 C 156.257812 227.804688 177.136719 248.679688 202.441406 248.679688 C 228.378906 248.679688 249.253906 227.804688 249.253906 201.867188 C 249.253906 176.5625 228.378906 155.6875 202.441406 155.6875 Z M 202.441406 239.191406 C 182.195312 239.191406 165.746094 222.742188 165.746094 201.867188 C 165.746094 181.625 182.195312 165.175781 202.441406 165.175781 C 222.683594 165.175781 239.765625 181.625 239.765625 201.867188 C 239.765625 222.742188 222.683594 239.191406 202.441406 239.191406 Z M 202.441406 239.191406 " fill-opacity="1" fill-rule="nonzero"/><g clip-path="url(#616095ddd0)"><path fill="#fce3fb" d="M 387.800781 280.3125 L 387.800781 260.703125 C 387.800781 249.945312 378.941406 241.089844 368.1875 241.089844 L 313.148438 241.089844 C 310.617188 241.089844 308.089844 242.988281 308.089844 246.152344 C 308.089844 249.3125 309.984375 251.210938 313.148438 251.210938 L 368.1875 251.210938 C 373.882812 251.210938 378.308594 255.640625 378.308594 261.335938 L 378.308594 280.945312 C 368.820312 282.84375 361.230469 291.699219 361.230469 302.453125 C 361.230469 314.476562 370.71875 323.964844 382.738281 323.964844 C 394.757812 323.964844 404.246094 314.476562 404.246094 302.453125 C 404.878906 291.699219 397.289062 282.84375 387.800781 280.3125 Z M 382.738281 313.84375 C 375.777344 313.84375 370.71875 308.148438 370.71875 301.820312 C 370.71875 295.496094 376.410156 289.800781 382.738281 289.800781 C 389.695312 289.800781 394.757812 295.496094 394.757812 301.820312 C 394.757812 308.148438 389.695312 313.84375 382.738281 313.84375 Z M 382.738281 313.84375 " fill-opacity="1" fill-rule="nonzero"/></g><g clip-path="url(#7c9807d80d)"><path fill="#fce3fb" d="M 378.308594 124.054688 L 378.308594 143.664062 C 378.308594 149.359375 373.882812 153.789062 368.1875 153.789062 L 313.148438 153.789062 C 310.617188 153.789062 308.089844 155.6875 308.089844 158.847656 C 308.089844 161.378906 309.984375 163.910156 313.148438 163.910156 L 368.1875 163.910156 C 378.941406 163.910156 387.800781 155.054688 387.800781 144.296875 L 387.800781 124.6875 C 397.289062 122.789062 404.878906 113.933594 404.878906 103.179688 C 404.878906 91.15625 395.390625 81.667969 383.371094 81.667969 C 371.351562 81.667969 361.863281 91.15625 361.863281 103.179688 C 361.230469 113.300781 368.1875 122.15625 378.308594 124.054688 Z M 382.738281 90.523438 C 389.695312 90.523438 394.757812 96.21875 394.757812 102.546875 C 394.757812 109.503906 389.0625 114.566406 382.738281 114.566406 C 375.777344 114.566406 370.71875 108.871094 370.71875 102.546875 C 370.71875 96.21875 376.410156 90.523438 382.738281 90.523438 Z M 382.738281 90.523438 " fill-opacity="1" fill-rule="nonzero"/></g><path fill="#fce3fb" d="M 26.570312 280.3125 L 26.570312 260.703125 C 26.570312 255.007812 31 250.578125 36.691406 250.578125 L 91.730469 250.578125 C 94.261719 250.578125 96.792969 248.679688 96.792969 245.519531 C 96.792969 242.355469 94.894531 240.457031 91.730469 240.457031 L 36.691406 240.457031 C 25.9375 240.457031 17.082031 249.3125 17.082031 260.070312 L 17.082031 279.679688 C 7.589844 282.84375 0 291.699219 0 301.820312 C 0 313.84375 9.488281 323.332031 21.507812 323.332031 C 33.527344 323.332031 43.019531 313.84375 43.019531 301.820312 C 43.652344 291.699219 36.691406 282.84375 26.570312 280.3125 Z M 22.140625 313.84375 C 15.183594 313.84375 10.121094 308.148438 10.121094 301.820312 C 10.121094 295.496094 15.816406 289.800781 22.140625 289.800781 C 29.101562 289.800781 34.160156 295.496094 34.160156 301.820312 C 34.160156 308.148438 28.46875 313.84375 22.140625 313.84375 Z M 22.140625 313.84375 " fill-opacity="1" fill-rule="nonzero"/><path fill="#fce3fb" d="M 17.082031 124.054688 L 17.082031 143.664062 C 17.082031 154.421875 25.9375 163.277344 36.691406 163.277344 L 91.730469 163.277344 C 94.261719 163.277344 96.792969 161.378906 96.792969 158.214844 C 96.792969 155.6875 94.894531 153.15625 91.730469 153.15625 L 36.691406 153.15625 C 31 153.15625 26.570312 148.726562 26.570312 143.035156 L 26.570312 123.421875 C 36.058594 121.523438 43.652344 112.667969 43.652344 101.914062 C 43.652344 89.894531 34.160156 80.402344 22.140625 80.402344 C 10.121094 80.402344 0 91.15625 0 103.179688 C 0 113.300781 7.589844 122.15625 17.082031 124.054688 Z M 22.140625 90.523438 C 29.101562 90.523438 34.160156 96.21875 34.160156 102.546875 C 34.160156 109.503906 28.46875 114.566406 22.140625 114.566406 C 15.183594 114.566406 10.121094 108.871094 10.121094 102.546875 C 9.488281 96.21875 15.183594 90.523438 22.140625 90.523438 Z M 22.140625 90.523438 " fill-opacity="1" fill-rule="nonzero"/><g clip-path="url(#1705520e3e)"><path fill="#fce3fb" d="M 246.089844 96.21875 C 248.621094 96.21875 251.152344 94.320312 251.152344 91.15625 L 251.152344 36.753906 C 251.152344 31.058594 255.582031 26.628906 261.273438 26.628906 L 280.886719 26.628906 C 282.785156 36.121094 291.640625 43.710938 302.394531 43.710938 C 314.414062 43.710938 323.902344 34.222656 323.902344 22.203125 C 323.902344 10.183594 313.78125 0.0585938 301.761719 0.0585938 C 291.640625 0.0585938 282.785156 7.652344 280.253906 17.140625 L 260.640625 17.140625 C 249.886719 17.140625 241.03125 25.996094 241.03125 36.753906 L 241.03125 91.789062 C 241.664062 94.320312 243.5625 96.21875 246.089844 96.21875 Z M 301.761719 9.550781 C 308.722656 9.550781 313.78125 15.242188 313.78125 21.570312 C 313.78125 27.894531 308.089844 33.589844 301.761719 33.589844 C 294.804688 33.589844 289.742188 27.894531 289.742188 21.570312 C 289.742188 15.242188 294.804688 9.550781 301.761719 9.550781 Z M 301.761719 9.550781 " fill-opacity="1" fill-rule="nonzero"/></g><g clip-path="url(#7e5cb92703)"><path fill="#fce3fb" d="M 103.117188 43.710938 C 113.238281 43.710938 122.097656 36.121094 124.628906 26.628906 L 144.238281 26.628906 C 149.933594 26.628906 154.359375 31.058594 154.359375 36.753906 L 154.359375 91.789062 C 154.359375 94.320312 156.257812 96.851562 159.421875 96.851562 C 161.953125 96.851562 164.484375 94.953125 164.484375 91.789062 L 164.484375 36.753906 C 164.484375 25.996094 155.625 17.140625 144.871094 17.140625 L 125.257812 17.140625 C 122.097656 7.652344 113.238281 0.0585938 103.117188 0.0585938 C 91.097656 0.0585938 81.609375 9.550781 81.609375 21.570312 C 81.609375 33.589844 91.097656 43.710938 103.117188 43.710938 Z M 103.117188 9.550781 C 110.078125 9.550781 115.136719 15.242188 115.136719 21.570312 C 115.136719 28.527344 109.445312 33.589844 103.117188 33.589844 C 96.160156 33.589844 91.097656 27.894531 91.097656 21.570312 C 90.464844 15.242188 96.160156 9.550781 103.117188 9.550781 Z M 103.117188 9.550781 " fill-opacity="1" fill-rule="nonzero"/></g><g clip-path="url(#9ea0c9a1af)"><path fill="#fce3fb" d="M 156.890625 308.78125 C 154.359375 308.78125 151.828125 310.679688 151.828125 313.84375 L 151.828125 368.878906 C 151.828125 374.574219 147.402344 379.003906 141.707031 379.003906 L 122.097656 379.003906 C 120.199219 369.511719 111.34375 361.921875 100.585938 361.921875 C 88.566406 361.921875 79.078125 371.410156 79.078125 383.429688 C 79.078125 395.449219 88.566406 404.941406 100.585938 404.941406 C 110.710938 404.941406 119.566406 397.347656 122.097656 387.859375 L 141.707031 387.859375 C 152.460938 387.859375 161.320312 379.003906 161.320312 368.246094 L 161.320312 313.210938 C 161.953125 310.679688 159.421875 308.78125 156.890625 308.78125 Z M 101.21875 395.449219 C 94.261719 395.449219 89.199219 389.757812 89.199219 383.429688 C 89.199219 376.472656 94.894531 371.410156 101.21875 371.410156 C 108.179688 371.410156 113.238281 377.105469 113.238281 383.429688 C 113.871094 389.757812 108.179688 395.449219 101.21875 395.449219 Z M 101.21875 395.449219 " fill-opacity="1" fill-rule="nonzero"/></g><g clip-path="url(#f9a808ae1d)"><path fill="#fce3fb" d="M 300.496094 361.289062 C 290.375 361.289062 281.519531 368.878906 278.988281 378.371094 L 259.375 378.371094 C 253.683594 378.371094 249.253906 373.941406 249.253906 368.246094 L 249.253906 313.210938 C 249.253906 310.679688 247.355469 308.148438 244.191406 308.148438 C 241.664062 308.148438 239.132812 310.046875 239.132812 313.210938 L 239.132812 368.246094 C 239.132812 379.003906 247.988281 387.859375 258.742188 387.859375 L 278.355469 387.859375 C 280.253906 397.347656 289.109375 404.941406 299.863281 404.941406 C 311.882812 404.941406 321.375 395.449219 321.375 383.429688 C 322.007812 371.410156 312.515625 361.289062 300.496094 361.289062 Z M 300.496094 395.449219 C 293.539062 395.449219 288.476562 389.757812 288.476562 383.429688 C 288.476562 376.472656 294.171875 371.410156 300.496094 371.410156 C 307.457031 371.410156 312.515625 377.105469 312.515625 383.429688 C 312.515625 389.757812 306.824219 395.449219 300.496094 395.449219 Z M 300.496094 395.449219 " fill-opacity="1" fill-rule="nonzero"/></g></svg>