<svg xmlns="http://www.w3.org/2000/svg" xmlns:xlink="http://www.w3.org/1999/xlink" width="540" zoomAndPan="magnify" viewBox="0 0 404.88 404.99999" height="540" preserveAspectRatio="xMidYMid meet" version="1.0"><defs><filter x="0%" y="0%" width="100%" height="100%" id="5f26dc3e92"><feColorMatrix values="0 0 0 0 1 0 0 0 0 1 0 0 0 0 1 0 0 0 1 0" color-interpolation-filters="sRGB"/></filter><clipPath id="28de83699f"><path d="M 249 173 L 404.761719 173 L 404.761719 337 L 249 337 Z M 249 173 " clip-rule="nonzero"/></clipPath><mask id="3d2bb7d195"><g filter="url(#5f26dc3e92)"><rect x="-40.488" width="485.856" fill="#000000" y="-40.499999" height="485.999988" fill-opacity="0.35"/></g></mask><clipPath id="a9e8c279d8"><rect x="0" width="50" y="0" height="17"/></clipPath><mask id="073730de13"><g filter="url(#5f26dc3e92)"><rect x="-40.488" width="485.856" fill="#000000" y="-40.499999" height="485.999988" fill-opacity="0.35"/></g></mask><clipPath id="57919bb322"><rect x="0" width="17" y="0" height="17"/></clipPath><mask id="508c1ae5b6"><g filter="url(#5f26dc3e92)"><rect x="-40.488" width="485.856" fill="#000000" y="-40.499999" height="485.999988" fill-opacity="0.35"/></g></mask><clipPath id="16123d0a19"><rect x="0" width="49" y="0" height="17"/></clipPath><mask id="0c917f44b3"><g filter="url(#5f26dc3e92)"><rect x="-40.488" width="485.856" fill="#000000" y="-40.499999" height="485.999988" fill-opacity="0.35"/></g></mask><clipPath id="97e148fb76"><rect x="0" width="25" y="0" height="17"/></clipPath><mask id="6f641ad801"><g filter="url(#5f26dc3e92)"><rect x="-40.488" width="485.856" fill="#000000" y="-40.499999" height="485.999988" fill-opacity="0.35"/></g></mask><clipPath id="999723703e"><rect x="0" width="26" y="0" height="17"/></clipPath><mask id="4ce8221ebd"><g filter="url(#5f26dc3e92)"><rect x="-40.488" width="485.856" fill="#000000" y="-40.499999" height="485.999988" fill-opacity="0.35"/></g></mask><clipPath id="c15a02b26e"><rect x="0" width="42" y="0" height="17"/></clipPath><mask id="ac278c600a"><g filter="url(#5f26dc3e92)"><rect x="-40.488" width="485.856" fill="#000000" y="-40.499999" height="485.999988" fill-opacity="0.35"/></g></mask><clipPath id="c6522a0ee7"><path d="M 8 8 L 20 8 L 20 16.539062 L 8 16.539062 Z M 8 8 " clip-rule="nonzero"/></clipPath><clipPath id="ed0fc421c3"><rect x="0" width="26" y="0" height="17"/></clipPath><mask id="d7fa113958"><g filter="url(#5f26dc3e92)"><rect x="-40.488" width="485.856" fill="#000000" y="-40.499999" height="485.999988" fill-opacity="0.35"/></g></mask><clipPath id="2d4439696f"><path d="M 1 8 L 45 8 L 45 16.539062 L 1 16.539062 Z M 1 8 " clip-rule="nonzero"/></clipPath><clipPath id="8913ef4ce5"><rect x="0" width="50" y="0" height="17"/></clipPath><mask id="b6b39b26c2"><g filter="url(#5f26dc3e92)"><rect x="-40.488" width="485.856" fill="#000000" y="-40.499999" height="485.999988" fill-opacity="0.35"/></g></mask><clipPath id="ddb2fed360"><rect x="0" width="50" y="0" height="17"/></clipPath><mask id="df773656ed"><g filter="url(#5f26dc3e92)"><rect x="-40.488" width="485.856" fill="#000000" y="-40.499999" height="485.999988" fill-opacity="0.35"/></g></mask><clipPath id="3e80abd118"><rect x="0" width="25" y="0" height="17"/></clipPath><mask id="cf5b154f9d"><g filter="url(#5f26dc3e92)"><rect x="-40.488" width="485.856" fill="#000000" y="-40.499999" height="485.999988" fill-opacity="0.35"/></g></mask><clipPath id="f0ce40eb8e"><path d="M 4 8 L 15 8 L 15 16.792969 L 4 16.792969 Z M 4 8 " clip-rule="nonzero"/></clipPath><clipPath id="302ca2178d"><rect x="0" width="17" y="0" height="17"/></clipPath><mask id="bed7eb76f7"><g filter="url(#5f26dc3e92)"><rect x="-40.488" width="485.856" fill="#000000" y="-40.499999" height="485.999988" fill-opacity="0.35"/></g></mask><clipPath id="b22290319a"><path d="M 5 8 L 47 8 L 47 16.792969 L 5 16.792969 Z M 5 8 " clip-rule="nonzero"/></clipPath><clipPath id="36ea302b9d"><rect x="0" width="49" y="0" height="17"/></clipPath><mask id="f68832672a"><g filter="url(#5f26dc3e92)"><rect x="-40.488" width="485.856" fill="#000000" y="-40.499999" height="485.999988" fill-opacity="0.35"/></g></mask><clipPath id="f7ad07d3bd"><path d="M 5 1 L 16.875 1 L 16.875 10 L 5 10 Z M 5 1 " clip-rule="nonzero"/></clipPath><clipPath id="556e14a484"><rect x="0" width="17" y="0" height="18"/></clipPath><mask id="14b247440d"><g filter="url(#5f26dc3e92)"><rect x="-40.488" width="485.856" fill="#000000" y="-40.499999" height="485.999988" fill-opacity="0.35"/></g></mask><clipPath id="84d0de0c18"><rect x="0" width="50" y="0" height="18"/></clipPath><mask id="60459da9b5"><g filter="url(#5f26dc3e92)"><rect x="-40.488" width="485.856" fill="#000000" y="-40.499999" height="485.999988" fill-opacity="0.35"/></g></mask><clipPath id="476575173f"><rect x="0" width="58" y="0" height="18"/></clipPath><mask id="772539d3de"><g filter="url(#5f26dc3e92)"><rect x="-40.488" width="485.856" fill="#000000" y="-40.499999" height="485.999988" fill-opacity="0.35"/></g></mask><clipPath id="ea9242755b"><rect x="0" width="26" y="0" height="18"/></clipPath><mask id="565a36e96d"><g filter="url(#5f26dc3e92)"><rect x="-40.488" width="485.856" fill="#000000" y="-40.499999" height="485.999988" fill-opacity="0.35"/></g></mask><clipPath id="eafb3c1931"><rect x="0" width="41" y="0" height="17"/></clipPath><mask id="a91c369c08"><g filter="url(#5f26dc3e92)"><rect x="-40.488" width="485.856" fill="#000000" y="-40.499999" height="485.999988" fill-opacity="0.35"/></g></mask><clipPath id="c355e0f5d8"><rect x="0" width="17" y="0" height="17"/></clipPath><mask id="aff8edc4c9"><g filter="url(#5f26dc3e92)"><rect x="-40.488" width="485.856" fill="#000000" y="-40.499999" height="485.999988" fill-opacity="0.35"/></g></mask><clipPath id="bc5a12be57"><rect x="0" width="50" y="0" height="17"/></clipPath><mask id="cc59502f66"><g filter="url(#5f26dc3e92)"><rect x="-40.488" width="485.856" fill="#000000" y="-40.499999" height="485.999988" fill-opacity="0.35"/></g></mask><clipPath id="b5f8c8d1c4"><path d="M 6 4 L 17.273438 4 L 17.273438 13 L 6 13 Z M 6 4 " clip-rule="nonzero"/></clipPath><clipPath id="78d7e9f3fe"><rect x="0" width="18" y="0" height="17"/></clipPath></defs><path fill="#d49dd2" d="M 52.539062 197.578125 L 23.136719 197.578125 C 10.363281 197.578125 0.0820312 187.21875 0.0820312 174.445312 L 0.0820312 101.101562 C 0.0820312 88.40625 10.363281 78.042969 23.136719 78.042969 L 156.972656 78.042969 C 161.148438 78.042969 165.085938 79.167969 168.460938 81.097656 L 185.796875 119.199219 L 178.957031 195.089844 " fill-opacity="1" fill-rule="nonzero"/><g clip-path="url(#28de83699f)"><path fill="#bb74ca" d="M 267.832031 295.988281 L 267.910156 295.988281 C 268.957031 296.148438 269.921875 296.230469 270.964844 296.230469 L 336.757812 296.230469 L 336.734375 296.230469 C 336.734375 296.230469 377.398438 336.894531 377.398438 336.894531 L 377.398438 296.230469 L 383.429688 296.230469 C 395.238281 296.230469 404.800781 286.667969 404.800781 274.859375 L 404.800781 194.929688 C 404.800781 183.121094 395.238281 173.558594 383.429688 173.558594 L 249.378906 173.558594 " fill-opacity="1" fill-rule="nonzero"/></g><path fill="#d1a5db" d="M 168.460938 168.257812 L 168.460938 81.015625 C 168.460938 68.324219 178.820312 57.960938 191.515625 57.960938 L 351.941406 57.960938 C 364.714844 57.960938 374.996094 68.324219 374.996094 81.015625 L 374.996094 172.035156 C 374.996094 172.515625 374.996094 173.078125 374.914062 173.558594 C 374.113281 185.53125 364.152344 195.089844 351.941406 195.089844 L 269.035156 195.089844 " fill-opacity="1" fill-rule="nonzero"/><path fill="#fce3fb" d="M 286.1875 126.515625 C 286.1875 127.464844 286.09375 128.402344 285.910156 129.332031 C 285.726562 130.261719 285.453125 131.164062 285.089844 132.042969 C 284.726562 132.917969 284.28125 133.75 283.753906 134.539062 C 283.226562 135.324219 282.628906 136.054688 281.960938 136.726562 C 281.289062 137.394531 280.558594 137.992188 279.773438 138.519531 C 278.984375 139.046875 278.152344 139.492188 277.277344 139.855469 C 276.398438 140.21875 275.496094 140.492188 274.566406 140.675781 C 273.636719 140.859375 272.699219 140.953125 271.75 140.953125 C 270.804688 140.953125 269.863281 140.859375 268.933594 140.675781 C 268.003906 140.492188 267.101562 140.21875 266.226562 139.855469 C 265.351562 139.492188 264.519531 139.046875 263.730469 138.519531 C 262.941406 137.992188 262.214844 137.394531 261.542969 136.726562 C 260.875 136.054688 260.273438 135.324219 259.75 134.539062 C 259.222656 133.75 258.777344 132.917969 258.414062 132.042969 C 258.050781 131.164062 257.777344 130.261719 257.59375 129.332031 C 257.40625 128.402344 257.316406 127.464844 257.316406 126.515625 C 257.316406 125.570312 257.40625 124.628906 257.59375 123.699219 C 257.777344 122.769531 258.050781 121.867188 258.414062 120.992188 C 258.777344 120.117188 259.222656 119.285156 259.75 118.496094 C 260.273438 117.707031 260.875 116.980469 261.542969 116.308594 C 262.214844 115.640625 262.941406 115.039062 263.730469 114.515625 C 264.519531 113.988281 265.351562 113.542969 266.226562 113.179688 C 267.101562 112.816406 268.003906 112.542969 268.933594 112.359375 C 269.863281 112.171875 270.804688 112.082031 271.75 112.082031 C 272.699219 112.082031 273.636719 112.171875 274.566406 112.359375 C 275.496094 112.542969 276.398438 112.816406 277.277344 113.179688 C 278.152344 113.542969 278.984375 113.988281 279.773438 114.515625 C 280.558594 115.039062 281.289062 115.640625 281.960938 116.308594 C 282.628906 116.980469 283.226562 117.707031 283.753906 118.496094 C 284.28125 119.285156 284.726562 120.117188 285.089844 120.992188 C 285.453125 121.867188 285.726562 122.769531 285.910156 123.699219 C 286.09375 124.628906 286.1875 125.570312 286.1875 126.515625 Z M 286.1875 126.515625 " fill-opacity="1" fill-rule="nonzero"/><path fill="#fce3fb" d="M 230.410156 126.515625 C 230.410156 127.464844 230.320312 128.402344 230.132812 129.332031 C 229.949219 130.261719 229.675781 131.164062 229.3125 132.042969 C 228.949219 132.917969 228.503906 133.75 227.980469 134.539062 C 227.453125 135.324219 226.855469 136.054688 226.183594 136.726562 C 225.511719 137.394531 224.785156 137.992188 223.996094 138.519531 C 223.207031 139.046875 222.375 139.492188 221.5 139.855469 C 220.625 140.21875 219.722656 140.492188 218.792969 140.675781 C 217.863281 140.859375 216.925781 140.953125 215.976562 140.953125 C 215.027344 140.953125 214.089844 140.859375 213.160156 140.675781 C 212.230469 140.492188 211.328125 140.21875 210.453125 139.855469 C 209.574219 139.492188 208.742188 139.046875 207.957031 138.519531 C 207.167969 137.992188 206.4375 137.394531 205.769531 136.726562 C 205.097656 136.054688 204.5 135.324219 203.972656 134.539062 C 203.445312 133.75 203 132.917969 202.640625 132.042969 C 202.277344 131.164062 202.003906 130.261719 201.816406 129.332031 C 201.632812 128.402344 201.539062 127.464844 201.539062 126.515625 C 201.539062 125.570312 201.632812 124.628906 201.816406 123.699219 C 202.003906 122.769531 202.277344 121.867188 202.640625 120.992188 C 203 120.117188 203.445312 119.285156 203.972656 118.496094 C 204.5 117.707031 205.097656 116.980469 205.769531 116.308594 C 206.4375 115.640625 207.167969 115.039062 207.957031 114.515625 C 208.742188 113.988281 209.574219 113.542969 210.453125 113.179688 C 211.328125 112.816406 212.230469 112.542969 213.160156 112.359375 C 214.089844 112.171875 215.027344 112.082031 215.976562 112.082031 C 216.925781 112.082031 217.863281 112.171875 218.792969 112.359375 C 219.722656 112.542969 220.625 112.816406 221.5 113.179688 C 222.375 113.542969 223.207031 113.988281 223.996094 114.515625 C 224.785156 115.039062 225.511719 115.640625 226.183594 116.308594 C 226.855469 116.980469 227.453125 117.707031 227.980469 118.496094 C 228.503906 119.285156 228.949219 120.117188 229.3125 120.992188 C 229.675781 121.867188 229.949219 122.769531 230.132812 123.699219 C 230.320312 124.628906 230.410156 125.570312 230.410156 126.515625 Z M 230.410156 126.515625 " fill-opacity="1" fill-rule="nonzero"/><path fill="#fce3fb" d="M 341.972656 126.515625 C 341.972656 127.464844 341.878906 128.402344 341.695312 129.332031 C 341.507812 130.261719 341.234375 131.164062 340.871094 132.042969 C 340.507812 132.917969 340.066406 133.75 339.539062 134.539062 C 339.011719 135.324219 338.414062 136.054688 337.742188 136.726562 C 337.074219 137.394531 336.34375 137.992188 335.554688 138.519531 C 334.765625 139.046875 333.933594 139.492188 333.058594 139.855469 C 332.183594 140.21875 331.28125 140.492188 330.351562 140.675781 C 329.421875 140.859375 328.484375 140.953125 327.535156 140.953125 C 326.585938 140.953125 325.648438 140.859375 324.71875 140.675781 C 323.789062 140.492188 322.886719 140.21875 322.011719 139.855469 C 321.136719 139.492188 320.304688 139.046875 319.515625 138.519531 C 318.726562 137.992188 317.996094 137.394531 317.328125 136.726562 C 316.65625 136.054688 316.058594 135.324219 315.53125 134.539062 C 315.003906 133.75 314.5625 132.917969 314.199219 132.042969 C 313.835938 131.164062 313.5625 130.261719 313.375 129.332031 C 313.191406 128.402344 313.097656 127.464844 313.097656 126.515625 C 313.097656 125.570312 313.191406 124.628906 313.375 123.699219 C 313.5625 122.769531 313.835938 121.867188 314.199219 120.992188 C 314.5625 120.117188 315.003906 119.285156 315.53125 118.496094 C 316.058594 117.707031 316.65625 116.980469 317.328125 116.308594 C 317.996094 115.640625 318.726562 115.039062 319.515625 114.515625 C 320.304688 113.988281 321.136719 113.542969 322.011719 113.179688 C 322.886719 112.816406 323.789062 112.542969 324.71875 112.359375 C 325.648438 112.171875 326.585938 112.082031 327.535156 112.082031 C 328.484375 112.082031 329.421875 112.171875 330.351562 112.359375 C 331.28125 112.542969 332.183594 112.816406 333.058594 113.179688 C 333.933594 113.542969 334.765625 113.988281 335.554688 114.515625 C 336.34375 115.039062 337.074219 115.640625 337.742188 116.308594 C 338.414062 116.980469 339.011719 117.707031 339.539062 118.496094 C 340.066406 119.285156 340.507812 120.117188 340.871094 120.992188 C 341.234375 121.867188 341.507812 122.769531 341.695312 123.699219 C 341.878906 124.628906 341.972656 125.570312 341.972656 126.515625 Z M 341.972656 126.515625 " fill-opacity="1" fill-rule="nonzero"/><path fill="#bb74ca" d="M 70.308594 137.804688 C 70.308594 138.628906 70.226562 139.449219 70.066406 140.257812 C 69.90625 141.070312 69.667969 141.855469 69.351562 142.617188 C 69.035156 143.382812 68.648438 144.105469 68.1875 144.792969 C 67.730469 145.480469 67.207031 146.117188 66.625 146.699219 C 66.039062 147.285156 65.402344 147.804688 64.714844 148.265625 C 64.03125 148.722656 63.304688 149.109375 62.542969 149.425781 C 61.777344 149.742188 60.992188 149.980469 60.183594 150.140625 C 59.371094 150.304688 58.554688 150.382812 57.726562 150.382812 C 56.902344 150.382812 56.082031 150.304688 55.273438 150.140625 C 54.464844 149.980469 53.675781 149.742188 52.914062 149.425781 C 52.148438 149.109375 51.425781 148.722656 50.738281 148.265625 C 50.050781 147.804688 49.417969 147.285156 48.832031 146.699219 C 48.246094 146.117188 47.726562 145.480469 47.265625 144.792969 C 46.808594 144.105469 46.421875 143.382812 46.105469 142.617188 C 45.789062 141.855469 45.550781 141.070312 45.390625 140.257812 C 45.226562 139.449219 45.148438 138.628906 45.148438 137.804688 C 45.148438 136.976562 45.226562 136.160156 45.390625 135.351562 C 45.550781 134.539062 45.789062 133.753906 46.105469 132.988281 C 46.421875 132.226562 46.808594 131.5 47.265625 130.816406 C 47.726562 130.128906 48.246094 129.492188 48.832031 128.910156 C 49.417969 128.324219 50.050781 127.804688 50.738281 127.34375 C 51.425781 126.886719 52.148438 126.496094 52.914062 126.179688 C 53.675781 125.867188 54.464844 125.625 55.273438 125.464844 C 56.082031 125.304688 56.902344 125.222656 57.726562 125.222656 C 58.554688 125.222656 59.371094 125.304688 60.183594 125.464844 C 60.992188 125.625 61.777344 125.867188 62.542969 126.179688 C 63.304688 126.496094 64.03125 126.886719 64.714844 127.34375 C 65.402344 127.804688 66.039062 128.324219 66.625 128.910156 C 67.207031 129.492188 67.730469 130.128906 68.1875 130.816406 C 68.648438 131.5 69.035156 132.226562 69.351562 132.988281 C 69.667969 133.753906 69.90625 134.539062 70.066406 135.351562 C 70.226562 136.160156 70.308594 136.976562 70.308594 137.804688 Z M 70.308594 137.804688 " fill-opacity="1" fill-rule="nonzero"/><path fill="#bb74ca" d="M 134.992188 137.804688 C 134.992188 138.628906 134.910156 139.449219 134.75 140.257812 C 134.589844 141.070312 134.351562 141.855469 134.035156 142.617188 C 133.71875 143.382812 133.332031 144.105469 132.871094 144.792969 C 132.414062 145.480469 131.890625 146.117188 131.308594 146.699219 C 130.722656 147.285156 130.089844 147.804688 129.402344 148.265625 C 128.714844 148.722656 127.988281 149.109375 127.226562 149.425781 C 126.464844 149.742188 125.675781 149.980469 124.867188 150.140625 C 124.054688 150.304688 123.238281 150.382812 122.410156 150.382812 C 121.585938 150.382812 120.769531 150.304688 119.957031 150.140625 C 119.148438 149.980469 118.359375 149.742188 117.597656 149.425781 C 116.835938 149.109375 116.109375 148.722656 115.421875 148.265625 C 114.734375 147.804688 114.101562 147.285156 113.515625 146.699219 C 112.933594 146.117188 112.410156 145.480469 111.953125 144.792969 C 111.492188 144.105469 111.105469 143.382812 110.789062 142.617188 C 110.472656 141.855469 110.234375 141.070312 110.074219 140.257812 C 109.914062 139.449219 109.832031 138.628906 109.832031 137.804688 C 109.832031 136.976562 109.914062 136.160156 110.074219 135.351562 C 110.234375 134.539062 110.472656 133.753906 110.789062 132.988281 C 111.105469 132.226562 111.492188 131.5 111.953125 130.816406 C 112.410156 130.128906 112.933594 129.492188 113.515625 128.910156 C 114.101562 128.324219 114.734375 127.804688 115.421875 127.34375 C 116.109375 126.886719 116.835938 126.496094 117.597656 126.179688 C 118.359375 125.867188 119.148438 125.625 119.957031 125.464844 C 120.769531 125.304688 121.585938 125.222656 122.410156 125.222656 C 123.238281 125.222656 124.054688 125.304688 124.867188 125.464844 C 125.675781 125.625 126.464844 125.867188 127.226562 126.179688 C 127.988281 126.496094 128.714844 126.886719 129.402344 127.34375 C 130.089844 127.804688 130.722656 128.324219 131.308594 128.910156 C 131.890625 129.492188 132.414062 130.128906 132.871094 130.816406 C 133.332031 131.5 133.71875 132.226562 134.035156 132.988281 C 134.351562 133.753906 134.589844 134.539062 134.75 135.351562 C 134.910156 136.160156 134.992188 136.976562 134.992188 137.804688 Z M 134.992188 137.804688 " fill-opacity="1" fill-rule="nonzero"/><path fill="#d49dd2" d="M 315.148438 234.910156 C 315.148438 235.757812 315.066406 236.597656 314.898438 237.429688 C 314.734375 238.261719 314.488281 239.070312 314.164062 239.855469 C 313.839844 240.636719 313.441406 241.382812 312.96875 242.085938 C 312.5 242.792969 311.964844 243.445312 311.363281 244.046875 C 310.765625 244.644531 310.113281 245.179688 309.40625 245.652344 C 308.703125 246.121094 307.957031 246.519531 307.171875 246.84375 C 306.390625 247.167969 305.582031 247.414062 304.75 247.582031 C 303.917969 247.746094 303.078125 247.828125 302.230469 247.828125 C 301.382812 247.828125 300.542969 247.746094 299.710938 247.582031 C 298.878906 247.414062 298.070312 247.167969 297.285156 246.84375 C 296.503906 246.519531 295.757812 246.121094 295.054688 245.652344 C 294.347656 245.179688 293.695312 244.644531 293.097656 244.046875 C 292.496094 243.445312 291.960938 242.792969 291.488281 242.085938 C 291.019531 241.382812 290.621094 240.636719 290.296875 239.855469 C 289.972656 239.070312 289.726562 238.261719 289.5625 237.429688 C 289.394531 236.597656 289.3125 235.757812 289.3125 234.910156 C 289.3125 234.0625 289.394531 233.222656 289.5625 232.390625 C 289.726562 231.558594 289.972656 230.75 290.296875 229.96875 C 290.621094 229.183594 291.019531 228.441406 291.488281 227.734375 C 291.960938 227.027344 292.496094 226.375 293.097656 225.777344 C 293.695312 225.175781 294.347656 224.640625 295.054688 224.171875 C 295.757812 223.699219 296.503906 223.300781 297.285156 222.976562 C 298.070312 222.652344 298.878906 222.40625 299.710938 222.242188 C 300.542969 222.074219 301.382812 221.992188 302.230469 221.992188 C 303.078125 221.992188 303.917969 222.074219 304.75 222.242188 C 305.582031 222.40625 306.390625 222.652344 307.171875 222.976562 C 307.957031 223.300781 308.703125 223.699219 309.40625 224.171875 C 310.113281 224.640625 310.765625 225.175781 311.363281 225.777344 C 311.964844 226.375 312.5 227.027344 312.96875 227.734375 C 313.441406 228.441406 313.839844 229.183594 314.164062 229.96875 C 314.488281 230.75 314.734375 231.558594 314.898438 232.390625 C 315.066406 233.222656 315.148438 234.0625 315.148438 234.910156 Z M 315.148438 234.910156 " fill-opacity="1" fill-rule="nonzero"/><path fill="#d49dd2" d="M 365.050781 234.910156 C 365.050781 235.757812 364.96875 236.597656 364.800781 237.429688 C 364.636719 238.261719 364.390625 239.070312 364.066406 239.855469 C 363.742188 240.636719 363.34375 241.382812 362.875 242.085938 C 362.402344 242.792969 361.867188 243.445312 361.265625 244.046875 C 360.667969 244.644531 360.015625 245.179688 359.308594 245.652344 C 358.605469 246.121094 357.859375 246.519531 357.078125 246.84375 C 356.292969 247.167969 355.484375 247.414062 354.652344 247.582031 C 353.820312 247.746094 352.980469 247.828125 352.132812 247.828125 C 351.285156 247.828125 350.445312 247.746094 349.613281 247.582031 C 348.78125 247.414062 347.972656 247.167969 347.191406 246.84375 C 346.40625 246.519531 345.660156 246.121094 344.957031 245.652344 C 344.25 245.179688 343.597656 244.644531 343 244.046875 C 342.398438 243.445312 341.863281 242.792969 341.390625 242.085938 C 340.921875 241.382812 340.523438 240.636719 340.199219 239.855469 C 339.875 239.070312 339.628906 238.261719 339.464844 237.429688 C 339.296875 236.597656 339.214844 235.757812 339.214844 234.910156 C 339.214844 234.0625 339.296875 233.222656 339.464844 232.390625 C 339.628906 231.558594 339.875 230.75 340.199219 229.96875 C 340.523438 229.183594 340.921875 228.441406 341.390625 227.734375 C 341.863281 227.027344 342.398438 226.375 343 225.777344 C 343.597656 225.175781 344.25 224.640625 344.957031 224.171875 C 345.660156 223.699219 346.40625 223.300781 347.191406 222.976562 C 347.972656 222.652344 348.78125 222.40625 349.613281 222.242188 C 350.445312 222.074219 351.285156 221.992188 352.132812 221.992188 C 352.980469 221.992188 353.820312 222.074219 354.652344 222.242188 C 355.484375 222.40625 356.292969 222.652344 357.078125 222.976562 C 357.859375 223.300781 358.605469 223.699219 359.308594 224.171875 C 360.015625 224.640625 360.667969 225.175781 361.265625 225.777344 C 361.867188 226.375 362.402344 227.027344 362.875 227.734375 C 363.34375 228.441406 363.742188 229.183594 364.066406 229.96875 C 364.390625 230.75 364.636719 231.558594 364.800781 232.390625 C 364.96875 233.222656 365.050781 234.0625 365.050781 234.910156 Z M 365.050781 234.910156 " fill-opacity="1" fill-rule="nonzero"/><path fill="#fce3fb" d="M 160.34375 311.949219 L 109.148438 362.425781 L 109.148438 311.992188 L 109.164062 311.976562 L 75.585938 311.976562 C 62.894531 311.976562 52.53125 301.613281 52.53125 288.839844 L 52.53125 191.3125 C 52.53125 178.542969 62.894531 168.257812 75.585938 168.257812 L 245.972656 168.257812 C 258.664062 168.257812 269.027344 178.542969 269.027344 191.3125 L 269.027344 288.839844 C 269.027344 301.613281 258.664062 311.976562 245.972656 311.976562 L 160.335938 311.976562 " fill-opacity="1" fill-rule="nonzero"/><path fill="#d1a5db" d="M 175.914062 240.101562 C 175.914062 241.09375 175.816406 242.078125 175.625 243.054688 C 175.429688 244.027344 175.140625 244.972656 174.761719 245.890625 C 174.382812 246.808594 173.914062 247.683594 173.363281 248.507812 C 172.8125 249.335938 172.183594 250.101562 171.480469 250.800781 C 170.777344 251.503906 170.015625 252.132812 169.1875 252.683594 C 168.359375 253.238281 167.488281 253.703125 166.570312 254.082031 C 165.652344 254.464844 164.707031 254.75 163.730469 254.945312 C 162.757812 255.136719 161.773438 255.234375 160.777344 255.234375 C 159.785156 255.234375 158.800781 255.136719 157.828125 254.945312 C 156.851562 254.75 155.90625 254.464844 154.988281 254.082031 C 154.070312 253.703125 153.195312 253.238281 152.371094 252.683594 C 151.542969 252.132812 150.78125 251.503906 150.078125 250.800781 C 149.375 250.101562 148.746094 249.335938 148.195312 248.507812 C 147.644531 247.683594 147.175781 246.808594 146.796875 245.890625 C 146.417969 244.972656 146.128906 244.027344 145.933594 243.054688 C 145.742188 242.078125 145.644531 241.09375 145.644531 240.101562 C 145.644531 239.105469 145.742188 238.121094 145.933594 237.148438 C 146.128906 236.171875 146.417969 235.226562 146.796875 234.308594 C 147.175781 233.390625 147.644531 232.519531 148.195312 231.691406 C 148.746094 230.867188 149.375 230.101562 150.078125 229.398438 C 150.78125 228.695312 151.542969 228.070312 152.371094 227.515625 C 153.195312 226.964844 154.070312 226.5 154.988281 226.117188 C 155.90625 225.738281 156.851562 225.449219 157.828125 225.257812 C 158.800781 225.0625 159.785156 224.964844 160.777344 224.964844 C 161.773438 224.964844 162.757812 225.0625 163.730469 225.257812 C 164.707031 225.449219 165.652344 225.738281 166.570312 226.117188 C 167.488281 226.5 168.359375 226.964844 169.1875 227.515625 C 170.015625 228.070312 170.777344 228.695312 171.480469 229.398438 C 172.183594 230.101562 172.8125 230.867188 173.363281 231.691406 C 173.914062 232.519531 174.382812 233.390625 174.761719 234.308594 C 175.140625 235.226562 175.429688 236.171875 175.625 237.148438 C 175.816406 238.121094 175.914062 239.105469 175.914062 240.101562 Z M 175.914062 240.101562 " fill-opacity="1" fill-rule="nonzero"/><path fill="#d1a5db" d="M 117.457031 240.101562 C 117.457031 241.09375 117.359375 242.078125 117.164062 243.054688 C 116.96875 244.027344 116.683594 244.972656 116.304688 245.890625 C 115.921875 246.808594 115.457031 247.683594 114.90625 248.507812 C 114.351562 249.335938 113.726562 250.101562 113.023438 250.800781 C 112.320312 251.503906 111.554688 252.132812 110.730469 252.683594 C 109.902344 253.238281 109.03125 253.703125 108.113281 254.082031 C 107.195312 254.464844 106.246094 254.75 105.273438 254.945312 C 104.296875 255.136719 103.3125 255.234375 102.320312 255.234375 C 101.328125 255.234375 100.34375 255.136719 99.367188 254.945312 C 98.394531 254.75 97.445312 254.464844 96.527344 254.082031 C 95.609375 253.703125 94.738281 253.238281 93.910156 252.683594 C 93.085938 252.132812 92.320312 251.503906 91.617188 250.800781 C 90.914062 250.101562 90.289062 249.335938 89.738281 248.507812 C 89.183594 247.683594 88.71875 246.808594 88.335938 245.890625 C 87.957031 244.972656 87.671875 244.027344 87.476562 243.054688 C 87.28125 242.078125 87.1875 241.09375 87.1875 240.101562 C 87.1875 239.105469 87.28125 238.121094 87.476562 237.148438 C 87.671875 236.171875 87.957031 235.226562 88.335938 234.308594 C 88.71875 233.390625 89.183594 232.519531 89.738281 231.691406 C 90.289062 230.867188 90.914062 230.101562 91.617188 229.398438 C 92.320312 228.695312 93.085938 228.070312 93.910156 227.515625 C 94.738281 226.964844 95.609375 226.5 96.527344 226.117188 C 97.445312 225.738281 98.394531 225.449219 99.367188 225.257812 C 100.34375 225.0625 101.328125 224.964844 102.320312 224.964844 C 103.3125 224.964844 104.296875 225.0625 105.273438 225.257812 C 106.246094 225.449219 107.195312 225.738281 108.113281 226.117188 C 109.03125 226.5 109.902344 226.964844 110.730469 227.515625 C 111.554688 228.070312 112.320312 228.695312 113.023438 229.398438 C 113.726562 230.101562 114.351562 230.867188 114.90625 231.691406 C 115.457031 232.519531 115.921875 233.390625 116.304688 234.308594 C 116.683594 235.226562 116.96875 236.171875 117.164062 237.148438 C 117.359375 238.121094 117.457031 239.105469 117.457031 240.101562 Z M 117.457031 240.101562 " fill-opacity="1" fill-rule="nonzero"/><path fill="#d1a5db" d="M 234.371094 240.101562 C 234.371094 241.09375 234.277344 242.078125 234.082031 243.054688 C 233.886719 244.027344 233.601562 244.972656 233.21875 245.890625 C 232.839844 246.808594 232.375 247.683594 231.820312 248.507812 C 231.269531 249.335938 230.640625 250.101562 229.941406 250.800781 C 229.238281 251.503906 228.472656 252.132812 227.644531 252.683594 C 226.820312 253.238281 225.949219 253.703125 225.03125 254.082031 C 224.113281 254.464844 223.164062 254.75 222.191406 254.945312 C 221.214844 255.136719 220.230469 255.234375 219.238281 255.234375 C 218.242188 255.234375 217.257812 255.136719 216.285156 254.945312 C 215.308594 254.75 214.363281 254.464844 213.445312 254.082031 C 212.527344 253.703125 211.65625 253.238281 210.828125 252.683594 C 210.003906 252.132812 209.238281 251.503906 208.535156 250.800781 C 207.832031 250.101562 207.207031 249.335938 206.652344 248.507812 C 206.101562 247.683594 205.636719 246.808594 205.253906 245.890625 C 204.875 244.972656 204.585938 244.027344 204.394531 243.054688 C 204.199219 242.078125 204.101562 241.09375 204.101562 240.101562 C 204.101562 239.105469 204.199219 238.121094 204.394531 237.148438 C 204.585938 236.171875 204.875 235.226562 205.253906 234.308594 C 205.636719 233.390625 206.101562 232.519531 206.652344 231.691406 C 207.207031 230.867188 207.832031 230.101562 208.535156 229.398438 C 209.238281 228.695312 210.003906 228.070312 210.828125 227.515625 C 211.65625 226.964844 212.527344 226.5 213.445312 226.117188 C 214.363281 225.738281 215.308594 225.449219 216.285156 225.257812 C 217.257812 225.0625 218.242188 224.964844 219.238281 224.964844 C 220.230469 224.964844 221.214844 225.0625 222.191406 225.257812 C 223.164062 225.449219 224.113281 225.738281 225.03125 226.117188 C 225.949219 226.5 226.820312 226.964844 227.644531 227.515625 C 228.472656 228.070312 229.238281 228.695312 229.941406 229.398438 C 230.640625 230.101562 231.269531 230.867188 231.820312 231.691406 C 232.375 232.519531 232.839844 233.390625 233.21875 234.308594 C 233.601562 235.226562 233.886719 236.171875 234.082031 237.148438 C 234.277344 238.121094 234.371094 239.105469 234.371094 240.101562 Z M 234.371094 240.101562 " fill-opacity="1" fill-rule="nonzero"/><g mask="url(#3d2bb7d195)"><g transform="matrix(1, 0, 0, 1, 105, 186)"><g clip-path="url(#a9e8c279d8)"><path fill="#ffffff" d="M 40.644531 12.078125 L 7.386719 12.078125 C 5.167969 12.078125 3.371094 10.277344 3.371094 8.0625 C 3.371094 5.84375 5.167969 4.042969 7.386719 4.042969 L 40.644531 4.042969 C 42.863281 4.042969 44.660156 5.84375 44.660156 8.0625 C 44.660156 10.277344 42.863281 12.078125 40.644531 12.078125 Z M 40.644531 12.078125 " fill-opacity="1" fill-rule="nonzero"/></g></g></g><g mask="url(#073730de13)"><g transform="matrix(1, 0, 0, 1, 154, 186)"><g clip-path="url(#57919bb322)"><path fill="#ffffff" d="M 10.683594 12.078125 L 6.777344 12.078125 C 4.5625 12.078125 2.761719 10.277344 2.761719 8.0625 C 2.761719 5.84375 4.5625 4.042969 6.777344 4.042969 L 10.683594 4.042969 C 12.902344 4.042969 14.699219 5.84375 14.699219 8.0625 C 14.699219 10.277344 12.902344 12.078125 10.683594 12.078125 Z M 10.683594 12.078125 " fill-opacity="1" fill-rule="nonzero"/></g></g></g><g mask="url(#508c1ae5b6)"><g transform="matrix(1, 0, 0, 1, 186, 234)"><g clip-path="url(#16123d0a19)"><path fill="#ffffff" d="M 39.449219 10.117188 L 8.9375 10.117188 C 6.71875 10.117188 4.921875 8.316406 4.921875 6.101562 C 4.921875 3.882812 6.71875 2.082031 8.9375 2.082031 L 39.449219 2.082031 C 41.664062 2.082031 43.464844 3.882812 43.464844 6.101562 C 43.464844 8.316406 41.664062 10.117188 39.449219 10.117188 Z M 39.449219 10.117188 " fill-opacity="1" fill-rule="nonzero"/></g></g></g><g mask="url(#0c917f44b3)"><g transform="matrix(1, 0, 0, 1, 226, 234)"><g clip-path="url(#97e148fb76)"><path fill="#ffffff" d="M 15.601562 10.117188 L 12.527344 10.117188 C 10.308594 10.117188 8.507812 8.316406 8.507812 6.101562 C 8.507812 3.882812 10.308594 2.082031 12.527344 2.082031 L 15.601562 2.082031 C 17.820312 2.082031 19.621094 3.882812 19.621094 6.101562 C 19.621094 8.316406 17.820312 10.117188 15.601562 10.117188 Z M 15.601562 10.117188 " fill-opacity="1" fill-rule="nonzero"/></g></g></g><g mask="url(#6f641ad801)"><g transform="matrix(1, 0, 0, 1, 97, 274)"><g clip-path="url(#999723703e)"><path fill="#ffffff" d="M 15.386719 11 L 10.765625 11 C 8.550781 11 6.75 9.199219 6.75 6.980469 C 6.75 4.765625 8.550781 2.964844 10.765625 2.964844 L 15.386719 2.964844 C 17.605469 2.964844 19.402344 4.765625 19.402344 6.980469 C 19.402344 9.199219 17.605469 11 15.386719 11 Z M 15.386719 11 " fill-opacity="1" fill-rule="nonzero"/></g></g></g><g mask="url(#4ce8221ebd)"><g transform="matrix(1, 0, 0, 1, 121, 274)"><g clip-path="url(#c15a02b26e)"><path fill="#ffffff" d="M 35.996094 11 L 8.015625 11 C 5.796875 11 4 9.199219 4 6.980469 C 4 4.765625 5.796875 2.964844 8.015625 2.964844 L 35.996094 2.964844 C 38.210938 2.964844 40.011719 4.765625 40.011719 6.980469 C 40.011719 9.199219 38.210938 11 35.996094 11 Z M 35.996094 11 " fill-opacity="1" fill-rule="nonzero"/></g></g></g><g mask="url(#ac278c600a)"><g transform="matrix(1, 0, 0, 1, 290, 258)"><g clip-path="url(#ed0fc421c3)"><g clip-path="url(#c6522a0ee7)"><path fill="#ffffff" d="M 15.363281 16.304688 L 12.230469 16.304688 C 10.011719 16.304688 8.214844 14.507812 8.214844 12.289062 C 8.214844 10.074219 10.011719 8.273438 12.230469 8.273438 L 15.363281 8.273438 C 17.582031 8.273438 19.378906 10.074219 19.378906 12.289062 C 19.378906 14.507812 17.582031 16.304688 15.363281 16.304688 Z M 15.363281 16.304688 " fill-opacity="1" fill-rule="nonzero"/></g></g></g></g><g mask="url(#d7fa113958)"><g transform="matrix(1, 0, 0, 1, 314, 258)"><g clip-path="url(#8913ef4ce5)"><g clip-path="url(#2d4439696f)"><path fill="#ffffff" d="M 40.921875 16.304688 L 5.710938 16.304688 C 3.492188 16.304688 1.695312 14.507812 1.695312 12.289062 C 1.695312 10.074219 3.492188 8.273438 5.710938 8.273438 L 40.921875 8.273438 C 43.136719 8.273438 44.9375 10.074219 44.9375 12.289062 C 44.9375 14.507812 43.136719 16.304688 40.921875 16.304688 Z M 40.921875 16.304688 " fill-opacity="1" fill-rule="nonzero"/></g></g></g></g><g mask="url(#b6b39b26c2)"><g transform="matrix(1, 0, 0, 1, 322, 202)"><g clip-path="url(#ddb2fed360)"><path fill="#ffffff" d="M 39.417969 12.210938 L 11.730469 12.210938 C 9.511719 12.210938 7.710938 10.410156 7.710938 8.191406 C 7.710938 5.976562 9.511719 4.175781 11.730469 4.175781 L 39.417969 4.175781 C 41.636719 4.175781 43.4375 5.976562 43.4375 8.191406 C 43.4375 10.410156 41.636719 12.210938 39.417969 12.210938 Z M 39.417969 12.210938 " fill-opacity="1" fill-rule="nonzero"/></g></g></g><g mask="url(#df773656ed)"><g transform="matrix(1, 0, 0, 1, 363, 202)"><g clip-path="url(#3e80abd118)"><path fill="#ffffff" d="M 15.167969 12.210938 L 11.996094 12.210938 C 9.777344 12.210938 7.980469 10.410156 7.980469 8.191406 C 7.980469 5.976562 9.777344 4.175781 11.996094 4.175781 L 15.167969 4.175781 C 17.386719 4.175781 19.1875 5.976562 19.1875 8.191406 C 19.1875 10.410156 17.386719 12.210938 15.167969 12.210938 Z M 15.167969 12.210938 " fill-opacity="1" fill-rule="nonzero"/></g></g></g><g mask="url(#cf5b154f9d)"><g transform="matrix(1, 0, 0, 1, 202, 73)"><g clip-path="url(#302ca2178d)"><g clip-path="url(#f0ce40eb8e)"><path fill="#ffffff" d="M 10.371094 16.371094 L 8.191406 16.371094 C 5.976562 16.371094 4.175781 14.570312 4.175781 12.355469 C 4.175781 10.136719 5.976562 8.335938 8.191406 8.335938 L 10.371094 8.335938 C 12.585938 8.335938 14.386719 10.136719 14.386719 12.355469 C 14.386719 14.570312 12.585938 16.371094 10.371094 16.371094 Z M 10.371094 16.371094 " fill-opacity="1" fill-rule="nonzero"/></g></g></g></g><g mask="url(#bed7eb76f7)"><g transform="matrix(1, 0, 0, 1, 218, 73)"><g clip-path="url(#36ea302b9d)"><g clip-path="url(#b22290319a)"><path fill="#ffffff" d="M 42.570312 16.371094 L 9.070312 16.371094 C 6.851562 16.371094 5.054688 14.570312 5.054688 12.355469 C 5.054688 10.136719 6.851562 8.335938 9.070312 8.335938 L 42.570312 8.335938 C 44.785156 8.335938 46.585938 10.136719 46.585938 12.355469 C 46.585938 14.570312 44.785156 16.371094 42.570312 16.371094 Z M 42.570312 16.371094 " fill-opacity="1" fill-rule="nonzero"/></g></g></g></g><g mask="url(#f68832672a)"><g transform="matrix(1, 0, 0, 1, 266, 121)"><g clip-path="url(#556e14a484)"><g clip-path="url(#f7ad07d3bd)"><path fill="#ffffff" d="M 12.691406 9.535156 L 9.953125 9.535156 C 7.734375 9.535156 5.9375 7.734375 5.9375 5.515625 C 5.9375 3.300781 7.734375 1.5 9.953125 1.5 L 12.691406 1.5 C 14.910156 1.5 16.710938 3.300781 16.710938 5.515625 C 16.710938 7.734375 14.910156 9.535156 12.691406 9.535156 Z M 12.691406 9.535156 " fill-opacity="1" fill-rule="nonzero"/></g></g></g></g><g mask="url(#14b247440d)"><g transform="matrix(1, 0, 0, 1, 290, 121)"><g clip-path="url(#84d0de0c18)"><path fill="#ffffff" d="M 37.535156 9.542969 L 5.789062 9.542969 C 3.570312 9.542969 1.769531 7.742188 1.769531 5.523438 C 1.769531 3.308594 3.570312 1.507812 5.789062 1.507812 L 37.535156 1.507812 C 39.753906 1.507812 41.550781 3.308594 41.550781 5.523438 C 41.550781 7.742188 39.753906 9.542969 37.535156 9.542969 Z M 37.535156 9.542969 " fill-opacity="1" fill-rule="nonzero"/></g></g></g><g mask="url(#60459da9b5)"><g transform="matrix(1, 0, 0, 1, 306, 161)"><g clip-path="url(#476575173f)"><path fill="#ffffff" d="M 46.140625 11.273438 L 10.640625 11.273438 C 8.425781 11.273438 6.625 9.476562 6.625 7.257812 C 6.625 5.042969 8.425781 3.242188 10.640625 3.242188 L 46.140625 3.242188 C 48.359375 3.242188 50.15625 5.042969 50.15625 7.257812 C 50.15625 9.476562 48.359375 11.273438 46.140625 11.273438 Z M 46.140625 11.273438 " fill-opacity="1" fill-rule="nonzero"/></g></g></g><g mask="url(#772539d3de)"><g transform="matrix(1, 0, 0, 1, 354, 161)"><g clip-path="url(#ea9242755b)"><path fill="#ffffff" d="M 14.601562 11.273438 L 11.058594 11.273438 C 8.839844 11.273438 7.042969 9.476562 7.042969 7.257812 C 7.042969 5.042969 8.839844 3.242188 11.058594 3.242188 L 14.601562 3.242188 C 16.820312 3.242188 18.617188 5.042969 18.617188 7.257812 C 18.617188 9.476562 16.820312 11.273438 14.601562 11.273438 Z M 14.601562 11.273438 " fill-opacity="1" fill-rule="nonzero"/></g></g></g><g mask="url(#565a36e96d)"><g transform="matrix(1, 0, 0, 1, 25, 89)"><g clip-path="url(#eafb3c1931)"><path fill="#ffffff" d="M 32.726562 10.285156 L 7.566406 10.285156 C 5.351562 10.285156 3.550781 8.484375 3.550781 6.265625 C 3.550781 4.050781 5.351562 2.25 7.566406 2.25 L 32.726562 2.25 C 34.945312 2.25 36.746094 4.050781 36.746094 6.265625 C 36.746094 8.484375 34.945312 10.285156 32.726562 10.285156 Z M 32.726562 10.285156 " fill-opacity="1" fill-rule="nonzero"/></g></g></g><g mask="url(#a91c369c08)"><g transform="matrix(1, 0, 0, 1, 73, 89)"><g clip-path="url(#c355e0f5d8)"><path fill="#ffffff" d="M 11.179688 10.285156 L 5.027344 10.285156 C 2.8125 10.285156 1.011719 8.484375 1.011719 6.265625 C 1.011719 4.050781 2.8125 2.25 5.027344 2.25 L 11.179688 2.25 C 13.398438 2.25 15.199219 4.050781 15.199219 6.265625 C 15.199219 8.484375 13.398438 10.285156 11.179688 10.285156 Z M 11.179688 10.285156 " fill-opacity="1" fill-rule="nonzero"/></g></g></g><g mask="url(#aff8edc4c9)"><g transform="matrix(1, 0, 0, 1, 89, 129)"><g clip-path="url(#bc5a12be57)"><path fill="#ffffff" d="M 44.410156 12.828125 L 7.488281 12.828125 C 5.269531 12.828125 3.472656 11.027344 3.472656 8.8125 C 3.472656 6.59375 5.269531 4.796875 7.488281 4.796875 L 44.410156 4.796875 C 46.625 4.796875 48.425781 6.59375 48.425781 8.8125 C 48.425781 11.027344 46.625 12.828125 44.410156 12.828125 Z M 44.410156 12.828125 " fill-opacity="1" fill-rule="nonzero"/></g></g></g><g mask="url(#cc59502f66)"><g transform="matrix(1, 0, 0, 1, 137, 129)"><g clip-path="url(#78d7e9f3fe)"><g clip-path="url(#b5f8c8d1c4)"><path fill="#ffffff" d="M 13.160156 12.828125 L 10.082031 12.828125 C 7.863281 12.828125 6.066406 11.027344 6.066406 8.8125 C 6.066406 6.59375 7.863281 4.796875 10.082031 4.796875 L 13.160156 4.796875 C 15.375 4.796875 17.175781 6.59375 17.175781 8.8125 C 17.175781 11.027344 15.375 12.828125 13.160156 12.828125 Z M 13.160156 12.828125 " fill-opacity="1" fill-rule="nonzero"/></g></g></g></g></svg>