<svg xmlns="http://www.w3.org/2000/svg" xmlns:xlink="http://www.w3.org/1999/xlink" width="540" zoomAndPan="magnify" viewBox="0 0 404.88 404.99999" height="540" preserveAspectRatio="xMidYMid meet" version="1.0"><defs><clipPath id="a0b2d048dd"><path d="M 37 0.0585938 L 402 0.0585938 L 402 394 L 37 394 Z M 37 0.0585938 " clip-rule="nonzero"/></clipPath></defs><g clip-path="url(#a0b2d048dd)"><path fill="#fce3fb" d="M 238.519531 10.195312 C 217.691406 1.972656 197.960938 0.0546875 175.492188 1.289062 C 153.019531 2.523438 127.808594 6.90625 120 32.949219 C 112.195312 58.988281 121.792969 106.691406 125.628906 136.695312 C 129.464844 166.703125 127.539062 179.019531 120.933594 191.070312 C 114.328125 203.117188 103.042969 214.902344 90.4375 223.917969 C 77.828125 232.929688 63.90625 239.175781 53.789062 248.902344 C 43.671875 258.632812 37.371094 271.84375 37.78125 286.398438 C 38.191406 300.949219 45.316406 316.84375 59.703125 327.667969 C 74.089844 338.492188 95.742188 344.246094 121.640625 341.242188 C 147.535156 338.234375 177.679688 326.464844 202.890625 325.371094 C 228.105469 324.277344 248.382812 333.851562 266.058594 346.449219 C 283.734375 359.046875 298.804688 374.667969 314.5625 383.984375 C 330.320312 393.304688 346.761719 396.316406 362.929688 389.191406 C 379.101562 382.066406 394.996094 364.800781 399.925781 347.949219 C 404.859375 331.09375 398.832031 314.652344 385.949219 300.949219 C 373.070312 287.25 353.339844 276.285156 349.230469 258.609375 C 345.117188 240.9375 356.628906 216.546875 358.957031 197.089844 C 361.289062 177.632812 354.4375 163.105469 343.613281 138.992188 C 332.789062 114.875 317.988281 81.167969 299.628906 57.054688 C 281.265625 32.9375 259.34375 18.414062 238.519531 10.191406 Z M 238.519531 10.195312 " fill-opacity="1" fill-rule="evenodd"/></g><path fill="#5c478f" d="M 112.632812 51.71875 L 263.480469 51.71875 C 274.964844 51.71875 284.359375 61.113281 284.359375 72.59375 L 284.359375 363.515625 C 284.359375 374.996094 274.964844 384.390625 263.480469 384.390625 L 112.632812 384.390625 C 101.152344 384.390625 91.757812 374.996094 91.757812 363.515625 L 91.757812 72.59375 C 91.757812 61.113281 101.152344 51.71875 112.632812 51.71875 Z M 112.632812 51.71875 " fill-opacity="1" fill-rule="evenodd"/><path fill="#fce3fb" d="M 114.683594 59.742188 L 261.429688 59.742188 C 269.457031 59.742188 276.023438 66.308594 276.023438 74.332031 L 276.023438 361.773438 C 276.023438 369.796875 269.457031 376.363281 261.429688 376.363281 L 114.683594 376.363281 C 106.660156 376.363281 100.09375 369.796875 100.09375 361.773438 L 100.09375 74.332031 C 100.09375 66.308594 106.660156 59.742188 114.683594 59.742188 Z M 114.683594 59.742188 " fill-opacity="1" fill-rule="evenodd"/><path fill="#5c478f" d="M 170.367188 67.1875 L 205.75 67.1875 C 209.234375 67.1875 212.085938 70.039062 212.085938 73.523438 C 212.085938 77.007812 209.234375 79.859375 205.75 79.859375 L 170.367188 79.859375 C 166.882812 79.859375 164.03125 77.011719 164.03125 73.523438 C 164.03125 70.042969 166.882812 67.1875 170.367188 67.1875 Z M 170.367188 67.1875 " fill-opacity="1" fill-rule="evenodd"/><path fill="#5c478f" d="M 160.921875 364.796875 L 215.195312 364.796875 C 216.292969 364.796875 217.191406 365.695312 217.191406 366.792969 C 217.191406 367.890625 216.292969 368.789062 215.195312 368.789062 L 160.921875 368.789062 C 159.824219 368.789062 158.925781 367.890625 158.925781 366.792969 C 158.925781 365.695312 159.824219 364.796875 160.921875 364.796875 Z M 160.921875 364.796875 " fill-opacity="1" fill-rule="evenodd"/><path fill="#d1a5db" d="M 151 226.3125 C 153.296875 226.3125 155.375 227.246094 156.878906 228.75 C 158.382812 230.253906 159.3125 232.332031 159.3125 234.625 C 159.3125 236.921875 158.382812 239 156.878906 240.503906 C 155.851562 241.53125 154.550781 242.292969 153.097656 242.671875 L 153.097656 294.9375 L 171.75 294.9375 C 172.90625 294.9375 173.847656 295.878906 173.847656 297.039062 L 173.847656 330.171875 L 179.160156 330.171875 L 179.160156 312.601562 C 179.160156 311.441406 180.097656 310.5 181.257812 310.5 L 215.21875 310.5 L 215.21875 275.605469 C 213.765625 275.226562 212.46875 274.464844 211.4375 273.4375 C 209.933594 271.933594 209.003906 269.851562 209.003906 267.558594 C 209.003906 265.265625 209.933594 263.1875 211.4375 261.683594 C 212.941406 260.179688 215.019531 259.246094 217.316406 259.246094 C 219.613281 259.246094 221.691406 260.179688 223.195312 261.683594 C 224.699219 263.1875 225.628906 265.265625 225.628906 267.558594 C 225.628906 269.855469 224.699219 271.933594 223.195312 273.4375 C 222.164062 274.464844 220.867188 275.226562 219.414062 275.605469 L 219.414062 312.597656 C 219.414062 313.757812 218.476562 314.699219 217.3125 314.699219 L 183.355469 314.699219 L 183.355469 330.171875 L 192.027344 330.171875 L 192.027344 320.320312 C 192.027344 319.164062 192.96875 318.222656 194.128906 318.222656 L 238.832031 318.222656 C 239.210938 316.769531 239.972656 315.472656 241 314.441406 C 242.503906 312.9375 244.582031 312.007812 246.878906 312.007812 C 249.175781 312.007812 251.253906 312.9375 252.757812 314.441406 C 254.261719 315.945312 255.191406 318.023438 255.191406 320.320312 C 255.191406 322.617188 254.261719 324.695312 252.757812 326.199219 C 251.253906 327.703125 249.175781 328.632812 246.878906 328.632812 C 244.582031 328.632812 242.503906 327.703125 241 326.199219 C 239.972656 325.167969 239.210938 323.871094 238.832031 322.417969 L 196.226562 322.417969 L 196.226562 330.171875 L 218.199219 330.171875 C 219.359375 330.171875 220.296875 331.109375 220.296875 332.269531 C 220.296875 333.429688 219.359375 334.371094 218.199219 334.371094 L 150.148438 334.371094 C 148.992188 334.371094 148.050781 333.433594 148.050781 332.269531 C 148.050781 331.113281 148.988281 330.171875 150.148438 330.171875 L 161.003906 330.171875 L 161.003906 319.800781 L 137.273438 319.800781 C 136.894531 321.253906 136.132812 322.550781 135.105469 323.582031 C 133.601562 325.085938 131.519531 326.015625 129.226562 326.015625 C 126.933594 326.015625 124.855469 325.085938 123.351562 323.582031 C 121.847656 322.078125 120.914062 320 120.914062 317.703125 C 120.914062 315.40625 121.847656 313.328125 123.351562 311.824219 C 124.855469 310.320312 126.933594 309.390625 129.226562 309.390625 C 131.523438 309.390625 133.601562 310.320312 135.105469 311.824219 C 136.132812 312.855469 136.894531 314.152344 137.273438 315.605469 L 163.101562 315.605469 C 164.261719 315.605469 165.203125 316.542969 165.203125 317.703125 L 165.203125 330.171875 L 169.644531 330.171875 L 169.644531 299.136719 L 150.996094 299.136719 C 149.835938 299.136719 148.894531 298.195312 148.894531 297.035156 L 148.894531 242.667969 C 147.441406 242.292969 146.144531 241.53125 145.113281 240.5 C 143.609375 238.996094 142.679688 236.917969 142.679688 234.625 C 142.679688 232.328125 143.609375 230.25 145.113281 228.746094 C 146.617188 227.242188 148.695312 226.3125 150.992188 226.3125 Z M 132.144531 314.796875 C 131.398438 314.050781 130.367188 313.589844 129.234375 313.589844 C 128.097656 313.589844 127.070312 314.050781 126.324219 314.796875 C 125.582031 315.539062 125.117188 316.570312 125.117188 317.703125 C 125.117188 318.84375 125.578125 319.871094 126.324219 320.613281 C 127.070312 321.359375 128.097656 321.820312 129.234375 321.820312 C 130.371094 321.820312 131.398438 321.359375 132.144531 320.613281 C 132.886719 319.871094 133.347656 318.839844 133.347656 317.703125 C 133.347656 316.566406 132.890625 315.539062 132.144531 314.796875 Z M 249.796875 317.414062 C 249.050781 316.667969 248.023438 316.207031 246.886719 316.207031 C 245.75 316.207031 244.722656 316.667969 243.976562 317.414062 C 243.234375 318.15625 242.773438 319.1875 242.773438 320.320312 C 242.773438 321.460938 243.230469 322.488281 243.976562 323.230469 C 244.722656 323.976562 245.75 324.4375 246.886719 324.4375 C 248.023438 324.4375 249.050781 323.976562 249.796875 323.230469 C 250.539062 322.488281 251.003906 321.457031 251.003906 320.320312 C 251.003906 319.183594 250.542969 318.15625 249.796875 317.414062 Z M 153.910156 237.539062 C 154.65625 236.792969 155.117188 235.761719 155.117188 234.628906 C 155.117188 233.492188 154.65625 232.460938 153.910156 231.71875 C 153.167969 230.976562 152.136719 230.511719 151.003906 230.511719 C 149.867188 230.511719 148.835938 230.972656 148.09375 231.71875 C 147.347656 232.460938 146.886719 233.492188 146.886719 234.628906 C 146.886719 235.765625 147.347656 236.792969 148.09375 237.539062 C 148.835938 238.28125 149.867188 238.742188 151.003906 238.742188 C 152.140625 238.742188 153.167969 238.285156 153.910156 237.539062 Z M 217.347656 271.675781 C 218.472656 271.667969 219.492188 271.210938 220.230469 270.46875 C 220.976562 269.726562 221.4375 268.695312 221.4375 267.558594 C 221.4375 266.421875 220.976562 265.394531 220.230469 264.648438 C 219.488281 263.90625 218.457031 263.441406 217.320312 263.441406 C 216.183594 263.441406 215.15625 263.902344 214.414062 264.648438 C 213.667969 265.394531 213.207031 266.421875 213.207031 267.558594 C 213.207031 268.695312 213.667969 269.726562 214.414062 270.46875 C 215.152344 271.210938 216.171875 271.667969 217.296875 271.675781 C 217.304688 271.675781 217.3125 271.675781 217.320312 271.675781 C 217.328125 271.675781 217.335938 271.675781 217.347656 271.675781 Z M 217.347656 271.675781 " fill-opacity="1" fill-rule="evenodd"/><path fill="#d1a5db" d="M 119.941406 125.976562 L 114.984375 134.566406 C 114.523438 135.359375 114.433594 136.277344 114.65625 137.109375 C 114.875 137.917969 115.382812 138.644531 116.140625 139.101562 L 116.210938 139.140625 L 120.878906 141.839844 C 121.40625 142.144531 121.714844 142.753906 121.613281 143.386719 C 121.503906 144.070312 121.414062 144.777344 121.355469 145.519531 C 121.296875 146.21875 121.269531 146.941406 121.269531 147.675781 C 121.269531 148.414062 121.296875 149.132812 121.355469 149.832031 C 121.414062 150.574219 121.5 151.285156 121.613281 151.964844 L 121.609375 151.964844 C 121.710938 152.566406 121.433594 153.191406 120.871094 153.515625 L 116.289062 156.160156 L 116.207031 156.210938 C 115.414062 156.671875 114.878906 157.414062 114.65625 158.242188 C 114.433594 159.074219 114.523438 159.988281 114.980469 160.777344 L 114.980469 160.78125 L 119.894531 169.296875 L 119.941406 169.375 C 120.402344 170.167969 121.148438 170.703125 121.976562 170.925781 C 122.808594 171.148438 123.71875 171.058594 124.511719 170.601562 L 124.515625 170.605469 L 129.136719 167.933594 C 129.671875 167.597656 130.382812 167.625 130.898438 168.046875 C 132 168.949219 133.183594 169.769531 134.441406 170.496094 C 135.640625 171.191406 136.90625 171.796875 138.21875 172.296875 C 138.84375 172.484375 139.300781 173.0625 139.300781 173.746094 L 139.300781 179.136719 C 139.300781 180.054688 139.675781 180.890625 140.28125 181.496094 C 140.886719 182.101562 141.722656 182.476562 142.640625 182.476562 L 152.566406 182.476562 C 153.484375 182.476562 154.316406 182.101562 154.925781 181.496094 C 155.53125 180.890625 155.90625 180.054688 155.90625 179.136719 L 155.90625 173.746094 L 155.910156 173.746094 C 155.910156 173.136719 156.285156 172.5625 156.890625 172.335938 C 158.238281 171.828125 159.535156 171.210938 160.765625 170.496094 C 162.023438 169.769531 163.207031 168.949219 164.308594 168.046875 C 164.777344 167.660156 165.457031 167.582031 166.015625 167.902344 L 170.613281 170.554688 L 170.695312 170.601562 C 171.488281 171.058594 172.402344 171.148438 173.230469 170.925781 C 174.058594 170.703125 174.804688 170.167969 175.261719 169.375 L 175.265625 169.375 L 180.222656 160.785156 C 180.679688 159.992188 180.773438 159.078125 180.550781 158.242188 C 180.324219 157.414062 179.792969 156.667969 178.996094 156.210938 L 174.410156 153.558594 C 173.835938 153.273438 173.484375 152.632812 173.59375 151.964844 C 173.703125 151.285156 173.792969 150.570312 173.851562 149.832031 C 173.910156 149.132812 173.9375 148.414062 173.9375 147.675781 C 173.9375 146.941406 173.910156 146.222656 173.851562 145.519531 C 173.792969 144.800781 173.710938 144.105469 173.601562 143.4375 C 173.480469 142.820312 173.753906 142.167969 174.328125 141.835938 L 178.996094 139.140625 C 179.792969 138.679688 180.324219 137.9375 180.550781 137.105469 C 180.765625 136.296875 180.6875 135.414062 180.261719 134.636719 L 180.222656 134.570312 L 175.261719 125.976562 L 175.261719 125.972656 C 174.804688 125.183594 174.058594 124.648438 173.230469 124.425781 C 172.398438 124.199219 171.484375 124.292969 170.691406 124.75 L 170.691406 124.746094 L 166.066406 127.417969 C 165.53125 127.753906 164.820312 127.730469 164.304688 127.304688 C 163.203125 126.402344 162.019531 125.582031 160.761719 124.855469 C 159.558594 124.160156 158.296875 123.554688 156.984375 123.054688 C 156.355469 122.867188 155.902344 122.289062 155.902344 121.601562 L 155.902344 116.214844 C 155.902344 115.296875 155.523438 114.460938 154.917969 113.855469 C 154.484375 113.421875 153.929688 113.105469 153.3125 112.960938 C 153.304688 112.957031 153.296875 112.957031 153.292969 112.953125 C 153.058594 112.902344 152.8125 112.875 152.5625 112.875 L 142.636719 112.875 C 141.71875 112.875 140.882812 113.25 140.277344 113.855469 C 139.671875 114.460938 139.296875 115.296875 139.296875 116.214844 L 139.296875 121.601562 L 139.292969 121.601562 C 139.292969 122.214844 138.917969 122.789062 138.3125 123.015625 C 136.964844 123.523438 135.667969 124.140625 134.4375 124.855469 C 133.203125 125.566406 132.042969 126.371094 130.960938 127.253906 C 130.488281 127.6875 129.765625 127.789062 129.179688 127.449219 L 124.507812 124.75 C 123.714844 124.292969 122.804688 124.199219 121.972656 124.425781 C 121.144531 124.648438 120.398438 125.183594 119.9375 125.976562 Z M 135.203125 135.273438 C 138.375 132.097656 142.761719 130.132812 147.605469 130.132812 C 152.449219 130.132812 156.835938 132.097656 160.007812 135.273438 C 163.183594 138.445312 165.144531 142.832031 165.144531 147.675781 C 165.144531 152.519531 163.183594 156.902344 160.007812 160.078125 C 156.835938 163.25 152.449219 165.214844 147.605469 165.214844 C 142.761719 165.214844 138.375 163.25 135.203125 160.078125 C 132.027344 156.902344 130.066406 152.519531 130.066406 147.675781 C 130.066406 142.832031 132.027344 138.445312 135.203125 135.273438 Z M 135.203125 135.273438 " fill-opacity="1" fill-rule="evenodd"/><path fill="#d1a5db" d="M 204.5 202.359375 L 202.167969 206.394531 C 201.953125 206.769531 201.910156 207.199219 202.011719 207.589844 C 202.117188 207.96875 202.355469 208.3125 202.710938 208.527344 L 202.742188 208.546875 L 204.9375 209.8125 C 205.183594 209.957031 205.332031 210.242188 205.285156 210.539062 C 205.230469 210.859375 205.191406 211.195312 205.164062 211.542969 C 205.136719 211.871094 205.125 212.210938 205.125 212.558594 C 205.125 212.902344 205.136719 213.242188 205.164062 213.570312 C 205.191406 213.917969 205.234375 214.253906 205.285156 214.574219 L 205.28125 214.574219 C 205.328125 214.855469 205.199219 215.152344 204.933594 215.304688 L 202.78125 216.546875 L 202.742188 216.570312 C 202.367188 216.785156 202.117188 217.136719 202.011719 217.527344 C 201.90625 217.917969 201.949219 218.34375 202.164062 218.71875 L 202.160156 218.71875 L 204.472656 222.71875 L 204.496094 222.757812 C 204.710938 223.128906 205.0625 223.382812 205.449219 223.484375 C 205.839844 223.589844 206.269531 223.546875 206.640625 223.332031 L 206.640625 223.335938 L 208.816406 222.078125 C 209.066406 221.921875 209.402344 221.933594 209.644531 222.128906 C 210.160156 222.554688 210.71875 222.941406 211.308594 223.28125 C 211.871094 223.609375 212.464844 223.894531 213.085938 224.128906 C 213.378906 224.214844 213.589844 224.488281 213.589844 224.8125 L 213.589844 227.34375 C 213.589844 227.773438 213.769531 228.167969 214.054688 228.453125 C 214.335938 228.738281 214.730469 228.914062 215.164062 228.914062 L 219.824219 228.914062 C 220.253906 228.914062 220.648438 228.738281 220.933594 228.453125 C 221.21875 228.167969 221.394531 227.777344 221.394531 227.34375 L 221.394531 224.8125 L 221.398438 224.8125 C 221.398438 224.527344 221.574219 224.257812 221.859375 224.148438 C 222.492188 223.910156 223.101562 223.617188 223.679688 223.285156 C 224.269531 222.945312 224.828125 222.558594 225.34375 222.132812 C 225.5625 221.949219 225.882812 221.914062 226.148438 222.066406 L 228.304688 223.3125 L 228.34375 223.335938 C 228.71875 223.550781 229.148438 223.59375 229.539062 223.488281 C 229.929688 223.382812 230.277344 223.132812 230.492188 222.757812 L 230.496094 222.757812 L 232.824219 218.722656 C 233.039062 218.347656 233.085938 217.917969 232.976562 217.527344 C 232.875 217.136719 232.621094 216.789062 232.246094 216.570312 L 230.09375 215.328125 C 229.820312 215.191406 229.65625 214.890625 229.710938 214.578125 C 229.761719 214.257812 229.800781 213.921875 229.828125 213.574219 C 229.855469 213.246094 229.871094 212.90625 229.871094 212.5625 C 229.871094 212.214844 229.855469 211.878906 229.828125 211.550781 C 229.800781 211.210938 229.761719 210.882812 229.710938 210.570312 C 229.652344 210.28125 229.78125 209.972656 230.050781 209.816406 L 232.246094 208.550781 C 232.621094 208.335938 232.875 207.984375 232.976562 207.59375 C 233.082031 207.214844 233.042969 206.800781 232.84375 206.433594 L 232.824219 206.40625 L 230.496094 202.367188 L 230.496094 202.363281 C 230.28125 201.992188 229.929688 201.742188 229.539062 201.640625 C 229.148438 201.535156 228.71875 201.578125 228.347656 201.792969 L 228.347656 201.789062 L 226.175781 203.046875 C 225.921875 203.203125 225.589844 203.195312 225.34375 202.996094 C 224.828125 202.570312 224.273438 202.183594 223.679688 201.84375 C 223.117188 201.515625 222.523438 201.230469 221.90625 200.996094 C 221.609375 200.910156 221.398438 200.636719 221.398438 200.3125 L 221.398438 197.78125 C 221.398438 197.351562 221.21875 196.957031 220.9375 196.671875 C 220.730469 196.464844 220.472656 196.316406 220.183594 196.25 C 220.179688 196.25 220.175781 196.25 220.171875 196.25 C 220.0625 196.222656 219.945312 196.210938 219.828125 196.210938 L 215.167969 196.210938 C 214.738281 196.210938 214.34375 196.386719 214.058594 196.671875 C 213.773438 196.957031 213.59375 197.351562 213.59375 197.78125 L 213.59375 200.3125 C 213.59375 200.601562 213.417969 200.871094 213.132812 200.980469 C 212.5 201.21875 211.890625 201.507812 211.3125 201.84375 C 210.734375 202.175781 210.1875 202.554688 209.675781 202.96875 C 209.453125 203.175781 209.117188 203.21875 208.839844 203.058594 L 206.644531 201.792969 C 206.269531 201.578125 205.84375 201.535156 205.453125 201.640625 C 205.0625 201.742188 204.710938 201.992188 204.496094 202.367188 Z M 211.671875 206.726562 C 213.164062 205.234375 215.222656 204.3125 217.5 204.3125 C 219.777344 204.3125 221.835938 205.238281 223.328125 206.726562 C 224.820312 208.21875 225.742188 210.28125 225.742188 212.554688 C 225.742188 214.832031 224.816406 216.890625 223.328125 218.382812 C 221.835938 219.875 219.777344 220.796875 217.5 220.796875 C 215.222656 220.796875 213.164062 219.875 211.671875 218.382812 C 210.179688 216.890625 209.257812 214.832031 209.257812 212.554688 C 209.257812 210.28125 210.179688 208.21875 211.671875 206.726562 Z M 211.671875 206.726562 " fill-opacity="1" fill-rule="evenodd"/><path fill="#d1a5db" d="M 342.167969 92.75 L 362.335938 98.15625 L 390.269531 70.222656 L 385.351562 51.871094 L 370.59375 66.632812 C 367.140625 70.085938 362.585938 71.8125 358.039062 71.8125 C 353.492188 71.8125 348.941406 70.085938 345.488281 66.632812 C 342.035156 63.179688 340.304688 58.628906 340.304688 54.078125 L 340.3125 54.078125 C 340.3125 49.527344 342.039062 44.972656 345.484375 41.527344 L 360.246094 26.765625 L 341.894531 21.851562 L 313.960938 49.78125 L 319.339844 69.84375 C 319.574219 70.570312 319.402344 71.402344 318.828125 71.976562 L 290.039062 100.765625 L 290.039062 143.394531 L 340.144531 93.292969 C 340.65625 92.78125 341.417969 92.550781 342.167969 92.75 Z M 342.167969 92.75 " fill-opacity="1" fill-rule="evenodd"/><path fill="#d1a5db" d="M 41.40625 175.753906 L 24.046875 180.40625 L 0.0117188 156.367188 L 4.242188 140.578125 L 16.941406 153.277344 C 19.914062 156.25 23.832031 157.738281 27.746094 157.738281 C 31.660156 157.738281 35.574219 156.25 38.546875 153.277344 C 41.519531 150.304688 43.007812 146.390625 43.007812 142.476562 L 43 142.476562 C 43 138.558594 41.515625 134.640625 38.546875 131.671875 L 25.847656 118.96875 L 41.640625 114.738281 L 65.675781 138.777344 L 61.050781 156.039062 C 60.847656 156.664062 60.992188 157.378906 61.492188 157.875 L 86.265625 182.652344 L 86.265625 219.335938 L 43.148438 176.222656 C 42.707031 175.78125 42.050781 175.582031 41.40625 175.753906 Z M 41.40625 175.753906 " fill-opacity="1" fill-rule="evenodd"/><path fill="#d1a5db" d="M 260.679688 187.328125 L 326.089844 187.328125 C 329.445312 187.328125 332.195312 190.074219 332.195312 193.433594 L 332.195312 211.738281 C 332.195312 215.09375 329.445312 217.839844 326.089844 217.839844 L 273.167969 217.839844 L 254.578125 228.574219 C 254.578125 216.859375 254.578125 205.144531 254.578125 193.429688 C 254.578125 190.074219 257.324219 187.324219 260.679688 187.324219 Z M 260.679688 187.328125 " fill-opacity="1" fill-rule="evenodd"/><path fill="#fce3fb" d="M 265.140625 194.730469 L 321.628906 194.730469 C 323.132812 194.730469 324.363281 195.960938 324.363281 197.460938 C 324.363281 198.964844 323.132812 200.195312 321.628906 200.195312 L 265.140625 200.195312 C 263.636719 200.195312 262.410156 198.964844 262.410156 197.460938 C 262.410156 195.960938 263.636719 194.730469 265.140625 194.730469 Z M 265.140625 194.730469 " fill-opacity="1" fill-rule="evenodd"/><path fill="#fce3fb" d="M 265.140625 205.28125 L 297.34375 205.28125 C 298.847656 205.28125 300.074219 206.511719 300.074219 208.015625 C 300.074219 209.515625 298.847656 210.746094 297.34375 210.746094 L 265.140625 210.746094 C 263.636719 210.746094 262.410156 209.515625 262.410156 208.015625 C 262.410156 206.511719 263.636719 205.28125 265.140625 205.28125 Z M 265.140625 205.28125 " fill-opacity="1" fill-rule="evenodd"/><path fill="#d1a5db" d="M 24.988281 245.425781 L 129.929688 245.425781 C 132.875 245.425781 135.285156 247.835938 135.285156 250.777344 L 135.285156 266.839844 C 135.285156 269.785156 132.875 272.195312 129.929688 272.195312 L 24.988281 272.195312 C 22.042969 272.195312 19.632812 269.785156 19.632812 266.839844 L 19.632812 250.777344 C 19.632812 247.835938 22.042969 245.425781 24.988281 245.425781 Z M 24.988281 245.425781 " fill-opacity="1" fill-rule="evenodd"/><path fill="#fce3fb" d="M 53.148438 250.097656 C 56.179688 250.097656 58.640625 252.558594 58.640625 255.589844 C 58.640625 258.625 56.179688 261.085938 53.148438 261.085938 C 50.113281 261.085938 47.65625 258.625 47.65625 255.589844 C 47.65625 252.558594 50.113281 250.097656 53.148438 250.097656 Z M 53.148438 250.097656 " fill-opacity="1" fill-rule="evenodd"/><path fill="#fce3fb" d="M 48.222656 264.113281 L 58.070312 264.113281 C 59.007812 264.113281 59.773438 264.878906 59.773438 265.816406 C 59.773438 266.753906 59.007812 267.519531 58.070312 267.519531 L 48.222656 267.519531 C 47.285156 267.519531 46.519531 266.753906 46.519531 265.816406 C 46.519531 264.878906 47.285156 264.113281 48.222656 264.113281 Z M 48.222656 264.113281 " fill-opacity="1" fill-rule="evenodd"/><path fill="#fce3fb" d="M 71.074219 250.097656 L 82.058594 250.097656 L 82.058594 261.085938 L 71.074219 261.085938 Z M 71.074219 250.097656 " fill-opacity="1" fill-rule="evenodd"/><path fill="#fce3fb" d="M 71.644531 264.113281 L 81.492188 264.113281 C 82.429688 264.113281 83.195312 264.878906 83.195312 265.816406 C 83.195312 266.753906 82.429688 267.519531 81.492188 267.519531 L 71.644531 267.519531 C 70.707031 267.519531 69.941406 266.753906 69.941406 265.816406 C 69.941406 264.878906 70.707031 264.113281 71.644531 264.113281 Z M 71.644531 264.113281 " fill-opacity="1" fill-rule="evenodd"/><path fill="#fce3fb" d="M 101.769531 250.097656 L 104.941406 255.589844 L 108.113281 261.085938 L 95.429688 261.085938 L 98.601562 255.589844 Z M 101.769531 250.097656 " fill-opacity="1" fill-rule="evenodd"/><path fill="#fce3fb" d="M 96.847656 264.113281 L 106.695312 264.113281 C 107.632812 264.113281 108.398438 264.878906 108.398438 265.816406 C 108.398438 266.753906 107.632812 267.519531 106.695312 267.519531 L 96.847656 267.519531 C 95.910156 267.519531 95.144531 266.753906 95.144531 265.816406 C 95.144531 264.878906 95.914062 264.113281 96.847656 264.113281 Z M 96.847656 264.113281 " fill-opacity="1" fill-rule="evenodd"/><path fill="#d1a5db" d="M 237.414062 140.894531 L 261.574219 140.894531 C 263.042969 140.894531 264.246094 142.097656 264.246094 143.566406 L 264.246094 167.726562 C 264.246094 169.199219 263.042969 170.398438 261.574219 170.398438 L 237.414062 170.398438 C 235.941406 170.398438 234.742188 169.199219 234.742188 167.726562 L 234.742188 143.566406 C 234.742188 142.097656 235.941406 140.894531 237.414062 140.894531 Z M 237.414062 140.894531 " fill-opacity="1" fill-rule="evenodd"/><path fill="#fce3fb" d="M 243.664062 146.453125 L 257.777344 146.453125 C 258.984375 146.453125 259.96875 147.441406 259.96875 148.644531 C 259.96875 149.851562 258.980469 150.835938 257.777344 150.835938 L 243.664062 150.835938 C 242.460938 150.835938 241.476562 149.851562 241.476562 148.644531 C 241.476562 147.441406 242.460938 146.453125 243.664062 146.453125 Z M 243.664062 146.453125 " fill-opacity="1" fill-rule="evenodd"/><path fill="#fce3fb" d="M 241.207031 153.457031 L 260.238281 153.457031 C 261.441406 153.457031 262.429688 154.441406 262.429688 155.648438 C 262.429688 156.851562 261.441406 157.835938 260.238281 157.835938 L 241.207031 157.835938 C 240.003906 157.835938 239.015625 156.851562 239.015625 155.648438 C 239.015625 154.441406 240.003906 153.457031 241.207031 153.457031 Z M 241.207031 153.457031 " fill-opacity="1" fill-rule="evenodd"/><path fill="#fce3fb" d="M 245.269531 160.457031 L 256.171875 160.457031 C 257.378906 160.457031 258.363281 161.445312 258.363281 162.648438 C 258.363281 163.855469 257.378906 164.839844 256.171875 164.839844 L 245.269531 164.839844 C 244.0625 164.839844 243.078125 163.851562 243.078125 162.648438 C 243.078125 161.445312 244.066406 160.457031 245.269531 160.457031 Z M 245.269531 160.457031 " fill-opacity="1" fill-rule="evenodd"/><path fill="#d1a5db" d="M 299.492188 302.078125 L 356.320312 302.078125 C 358.261719 302.078125 359.855469 303.667969 359.855469 305.613281 L 359.855469 359.046875 C 359.855469 360.992188 358.261719 362.582031 356.320312 362.582031 L 299.492188 362.582031 C 297.546875 362.582031 295.957031 360.988281 295.957031 359.046875 L 295.957031 305.613281 C 295.957031 303.667969 297.550781 302.078125 299.492188 302.078125 Z M 299.492188 302.078125 " fill-opacity="1" fill-rule="evenodd"/><path fill="#fce3fb" d="M 309.859375 312.125 C 314.53125 312.125 318.320312 315.910156 318.320312 320.585938 C 318.320312 325.257812 314.53125 329.046875 309.859375 329.046875 C 305.1875 329.046875 301.398438 325.257812 301.398438 320.585938 C 301.398438 315.914062 305.183594 312.125 309.859375 312.125 Z M 309.859375 312.125 " fill-opacity="1" fill-rule="evenodd"/><path fill="#fce3fb" d="M 324.027344 315.332031 L 352.617188 315.332031 C 353.601562 315.332031 354.410156 316.136719 354.410156 317.125 C 354.410156 318.109375 353.605469 318.917969 352.617188 318.917969 L 324.027344 318.917969 C 323.042969 318.917969 322.234375 318.113281 322.234375 317.125 C 322.234375 316.140625 323.042969 315.332031 324.027344 315.332031 Z M 324.027344 315.332031 " fill-opacity="1" fill-rule="evenodd"/><path fill="#fce3fb" d="M 324.027344 322.253906 L 340.003906 322.253906 C 340.988281 322.253906 341.796875 323.058594 341.796875 324.042969 C 341.796875 325.03125 340.992188 325.835938 340.003906 325.835938 L 324.027344 325.835938 C 323.042969 325.835938 322.234375 325.03125 322.234375 324.042969 C 322.234375 323.058594 323.039062 322.253906 324.027344 322.253906 Z M 324.027344 322.253906 " fill-opacity="1" fill-rule="evenodd"/><path fill="#fce3fb" d="M 309.859375 335.613281 C 314.53125 335.613281 318.320312 339.402344 318.320312 344.078125 C 318.320312 348.75 314.53125 352.539062 309.859375 352.539062 C 305.1875 352.539062 301.398438 348.75 301.398438 344.078125 C 301.398438 339.40625 305.183594 335.613281 309.859375 335.613281 Z M 309.859375 335.613281 " fill-opacity="1" fill-rule="evenodd"/><path fill="#fce3fb" d="M 324.027344 338.820312 L 352.617188 338.820312 C 353.601562 338.820312 354.410156 339.628906 354.410156 340.613281 C 354.410156 341.597656 353.605469 342.40625 352.617188 342.40625 L 324.027344 342.40625 C 323.042969 342.40625 322.234375 341.601562 322.234375 340.613281 C 322.234375 339.628906 323.042969 338.820312 324.027344 338.820312 Z M 324.027344 338.820312 " fill-opacity="1" fill-rule="evenodd"/><path fill="#fce3fb" d="M 324.027344 345.742188 L 340.003906 345.742188 C 340.988281 345.742188 341.796875 346.550781 341.796875 347.535156 C 341.796875 348.519531 340.992188 349.328125 340.003906 349.328125 L 324.027344 349.328125 C 323.042969 349.328125 322.234375 348.523438 322.234375 347.535156 C 322.234375 346.550781 323.039062 345.742188 324.027344 345.742188 Z M 324.027344 345.742188 " fill-opacity="1" fill-rule="evenodd"/></svg>