<svg xmlns="http://www.w3.org/2000/svg" xmlns:xlink="http://www.w3.org/1999/xlink" width="540" zoomAndPan="magnify" viewBox="0 0 404.88 404.99999" height="540" preserveAspectRatio="xMidYMid meet" version="1.0"><defs><clipPath id="e4a0d1810d"><path d="M 9.109375 0.0585938 L 213 0.0585938 L 213 404.9375 L 9.109375 404.9375 Z M 9.109375 0.0585938 " clip-rule="nonzero"/></clipPath></defs><g clip-path="url(#e4a0d1810d)"><path fill="#fce3fb" d="M 113.148438 174.988281 C 113.902344 172.308594 114.765625 169.660156 115.734375 167.050781 C 116.707031 164.4375 117.777344 161.871094 118.957031 159.347656 C 120.136719 156.820312 121.414062 154.347656 122.792969 151.929688 C 124.171875 149.507812 125.644531 147.144531 127.214844 144.84375 C 128.785156 142.542969 130.445312 140.308594 132.195312 138.140625 C 133.949219 135.976562 135.785156 133.882812 137.703125 131.863281 C 139.625 129.847656 141.625 127.910156 143.699219 126.054688 C 145.777344 124.199219 147.929688 122.429688 150.148438 120.746094 C 152.371094 119.066406 154.65625 117.476562 157.003906 115.980469 C 159.355469 114.484375 161.761719 113.082031 164.222656 111.78125 C 166.6875 110.480469 169.199219 109.28125 171.757812 108.183594 C 174.320312 107.085938 176.921875 106.09375 179.5625 105.203125 C 182.203125 104.316406 184.875 103.539062 187.578125 102.867188 C 190.28125 102.199219 193.007812 101.636719 195.757812 101.1875 C 198.507812 100.738281 201.269531 100.398438 204.046875 100.175781 C 206.824219 99.949219 209.605469 99.835938 212.390625 99.835938 L 212.390625 37.316406 C 208.105469 37.316406 203.8125 37.488281 199.515625 37.824219 L 179.683594 0.0585938 L 144.121094 9.105469 L 144.785156 51.753906 C 140.242188 53.792969 135.777344 56.035156 131.390625 58.488281 C 127.007812 60.941406 122.769531 63.589844 118.660156 66.394531 L 82.628906 43.570312 L 56.351562 69.191406 L 78.234375 105.769531 C 72.34375 113.894531 67.238281 122.484375 62.925781 131.542969 L 20.324219 129.792969 L 10.375 165.109375 L 47.625 185.851562 C 46.578125 195.824219 46.449219 205.8125 47.242188 215.8125 L 9.476562 235.597656 L 18.523438 271.160156 L 61.171875 270.5 C 63.207031 275.046875 65.453125 279.507812 67.90625 283.886719 C 70.359375 288.265625 73.007812 292.507812 75.8125 296.617188 L 52.988281 332.648438 L 78.605469 358.925781 L 115.1875 337.042969 C 123.308594 342.9375 131.902344 348.042969 140.960938 352.359375 L 139.210938 394.957031 L 174.53125 404.910156 L 195.273438 367.65625 C 200.945312 368.25 206.636719 368.546875 212.339844 368.546875 L 212.339844 306.011719 C 210.359375 306.011719 208.378906 305.953125 206.398438 305.835938 C 204.421875 305.722656 202.449219 305.550781 200.480469 305.320312 C 198.511719 305.089844 196.550781 304.804688 194.597656 304.464844 C 192.644531 304.121094 190.707031 303.722656 188.777344 303.269531 C 186.847656 302.816406 184.933594 302.308594 183.03125 301.742188 C 181.132812 301.179688 179.25 300.558594 177.386719 299.886719 C 175.523438 299.214844 173.679688 298.488281 171.855469 297.710938 C 170.035156 296.929688 168.234375 296.101562 166.460938 295.21875 C 164.6875 294.335938 162.9375 293.402344 161.21875 292.417969 C 159.496094 291.433594 157.804688 290.402344 156.144531 289.320312 C 154.484375 288.242188 152.855469 287.113281 151.257812 285.9375 C 149.664062 284.765625 148.101562 283.542969 146.574219 282.28125 C 145.050781 281.015625 143.5625 279.707031 142.109375 278.355469 C 140.660156 277.003906 139.25 275.613281 137.878906 274.183594 C 136.507812 272.75 135.179688 271.28125 133.894531 269.773438 C 132.609375 268.265625 131.367188 266.71875 130.171875 265.140625 C 128.976562 263.558594 127.824219 261.945312 126.722656 260.300781 C 125.617188 258.65625 124.5625 256.976562 123.554688 255.269531 C 122.550781 253.5625 121.59375 251.828125 120.6875 250.066406 C 119.777344 248.304688 118.921875 246.519531 118.121094 244.707031 C 117.316406 242.894531 116.5625 241.0625 115.867188 239.207031 C 115.167969 237.351562 114.523438 235.476562 113.933594 233.585938 C 113.34375 231.695312 112.808594 229.789062 112.328125 227.863281 C 111.847656 225.941406 111.421875 224.007812 111.054688 222.058594 C 110.683594 220.113281 110.371094 218.15625 110.117188 216.191406 C 109.859375 214.226562 109.660156 212.253906 109.519531 210.277344 C 109.375 208.300781 109.292969 206.320312 109.261719 204.339844 C 109.234375 202.359375 109.261719 200.375 109.347656 198.398438 C 109.433594 196.417969 109.578125 194.441406 109.777344 192.46875 C 109.976562 190.496094 110.234375 188.53125 110.546875 186.574219 C 110.859375 184.617188 111.230469 182.671875 111.65625 180.738281 C 112.078125 178.800781 112.558594 176.878906 113.097656 174.96875 Z M 113.148438 174.988281 " fill-opacity="1" fill-rule="nonzero"/></g><path fill="#fce3fb" d="M 380.96875 244.695312 C 380.1875 244.695312 379.414062 244.761719 378.648438 244.890625 C 377.878906 245.023438 377.128906 245.214844 376.394531 245.472656 C 375.660156 245.726562 374.949219 246.042969 374.265625 246.421875 C 373.585938 246.796875 372.9375 247.226562 372.328125 247.710938 C 371.71875 248.195312 371.152344 248.726562 370.632812 249.304688 C 370.113281 249.886719 369.644531 250.503906 369.226562 251.160156 C 368.8125 251.820312 368.453125 252.507812 368.152344 253.226562 C 367.851562 253.945312 367.609375 254.683594 367.433594 255.441406 L 337.445312 255.441406 L 319.992188 237.988281 L 297.332031 237.988281 L 297.398438 237.847656 L 297.234375 237.847656 C 301.738281 227.601562 304.171875 216.878906 304.535156 205.691406 L 359.285156 205.691406 C 359.414062 206.242188 359.574219 206.78125 359.769531 207.308594 C 359.960938 207.835938 360.1875 208.351562 360.441406 208.855469 C 360.699219 209.355469 360.984375 209.839844 361.300781 210.308594 C 361.613281 210.773438 361.957031 211.21875 362.324219 211.644531 C 362.695312 212.070312 363.085938 212.472656 363.503906 212.851562 C 363.921875 213.226562 364.363281 213.578125 364.824219 213.902344 C 365.285156 214.226562 365.761719 214.523438 366.257812 214.789062 C 366.753906 215.054688 367.265625 215.289062 367.789062 215.492188 C 368.316406 215.699219 368.851562 215.871094 369.394531 216.007812 C 369.941406 216.148438 370.496094 216.253906 371.054688 216.324219 C 371.613281 216.398438 372.171875 216.433594 372.734375 216.4375 C 373.300781 216.441406 373.859375 216.410156 374.417969 216.347656 C 374.980469 216.28125 375.53125 216.183594 376.082031 216.054688 C 376.628906 215.921875 377.164062 215.757812 377.691406 215.558594 C 378.222656 215.363281 378.734375 215.136719 379.234375 214.875 C 379.734375 214.617188 380.21875 214.328125 380.679688 214.007812 C 381.144531 213.691406 381.589844 213.347656 382.011719 212.972656 C 382.4375 212.601562 382.835938 212.207031 383.210938 211.785156 C 383.585938 211.367188 383.933594 210.921875 384.253906 210.460938 C 384.574219 210 384.867188 209.519531 385.128906 209.019531 C 385.390625 208.523438 385.625 208.007812 385.824219 207.484375 C 386.023438 206.957031 386.191406 206.421875 386.328125 205.875 C 386.464844 205.328125 386.566406 204.773438 386.632812 204.214844 C 386.703125 203.65625 386.734375 203.09375 386.734375 202.53125 C 386.734375 201.96875 386.703125 201.40625 386.632812 200.847656 C 386.566406 200.289062 386.464844 199.734375 386.328125 199.191406 C 386.191406 198.644531 386.023438 198.105469 385.824219 197.578125 C 385.625 197.054688 385.390625 196.542969 385.128906 196.042969 C 384.867188 195.546875 384.574219 195.066406 384.253906 194.601562 C 383.933594 194.140625 383.585938 193.699219 383.210938 193.277344 C 382.835938 192.855469 382.4375 192.460938 382.011719 192.089844 C 381.589844 191.71875 381.144531 191.371094 380.679688 191.054688 C 380.214844 190.734375 379.734375 190.445312 379.234375 190.1875 C 378.734375 189.929688 378.222656 189.699219 377.691406 189.503906 C 377.164062 189.304688 376.628906 189.140625 376.082031 189.011719 C 375.53125 188.878906 374.980469 188.78125 374.417969 188.714844 C 373.859375 188.652344 373.300781 188.621094 372.734375 188.625 C 372.171875 188.628906 371.613281 188.667969 371.054688 188.738281 C 370.496094 188.808594 369.941406 188.914062 369.394531 189.054688 C 368.851562 189.195312 368.316406 189.367188 367.789062 189.570312 C 367.265625 189.773438 366.753906 190.007812 366.257812 190.273438 C 365.761719 190.539062 365.285156 190.835938 364.824219 191.160156 C 364.363281 191.484375 363.921875 191.835938 363.503906 192.214844 C 363.085938 192.589844 362.695312 192.992188 362.324219 193.417969 C 361.957031 193.84375 361.613281 194.289062 361.300781 194.757812 C 360.984375 195.222656 360.699219 195.707031 360.441406 196.207031 C 360.1875 196.710938 359.960938 197.226562 359.769531 197.753906 C 359.574219 198.285156 359.414062 198.824219 359.285156 199.371094 L 304.535156 199.371094 C 304.167969 188.183594 301.734375 177.46875 297.234375 167.222656 L 319.992188 167.222656 L 337.445312 149.769531 L 367.433594 149.769531 C 367.5625 150.316406 367.722656 150.855469 367.917969 151.382812 C 368.109375 151.914062 368.335938 152.429688 368.589844 152.929688 C 368.847656 153.429688 369.132812 153.914062 369.445312 154.382812 C 369.761719 154.847656 370.105469 155.296875 370.472656 155.722656 C 370.84375 156.144531 371.234375 156.546875 371.652344 156.925781 C 372.070312 157.304688 372.511719 157.652344 372.972656 157.976562 C 373.433594 158.300781 373.910156 158.597656 374.40625 158.863281 C 374.902344 159.128906 375.414062 159.363281 375.9375 159.570312 C 376.464844 159.773438 377 159.945312 377.542969 160.082031 C 378.089844 160.222656 378.644531 160.328125 379.203125 160.398438 C 379.761719 160.472656 380.320312 160.507812 380.882812 160.511719 C 381.445312 160.515625 382.007812 160.488281 382.566406 160.421875 C 383.128906 160.359375 383.679688 160.261719 384.230469 160.128906 C 384.777344 159.996094 385.3125 159.832031 385.839844 159.636719 C 386.367188 159.4375 386.882812 159.210938 387.382812 158.949219 C 387.882812 158.691406 388.363281 158.402344 388.828125 158.085938 C 389.292969 157.765625 389.738281 157.421875 390.160156 157.050781 C 390.585938 156.675781 390.984375 156.28125 391.359375 155.859375 C 391.734375 155.441406 392.082031 155 392.402344 154.535156 C 392.722656 154.074219 393.015625 153.59375 393.277344 153.09375 C 393.539062 152.597656 393.773438 152.085938 393.972656 151.558594 C 394.171875 151.03125 394.339844 150.496094 394.476562 149.949219 C 394.613281 149.402344 394.714844 148.847656 394.78125 148.289062 C 394.851562 147.730469 394.882812 147.171875 394.882812 146.605469 C 394.882812 146.042969 394.851562 145.484375 394.78125 144.921875 C 394.714844 144.363281 394.613281 143.8125 394.476562 143.265625 C 394.339844 142.71875 394.171875 142.183594 393.972656 141.65625 C 393.773438 141.128906 393.539062 140.617188 393.277344 140.117188 C 393.015625 139.621094 392.722656 139.140625 392.402344 138.675781 C 392.082031 138.214844 391.734375 137.773438 391.359375 137.351562 C 390.984375 136.933594 390.585938 136.535156 390.160156 136.164062 C 389.738281 135.792969 389.292969 135.449219 388.828125 135.128906 C 388.363281 134.8125 387.882812 134.523438 387.382812 134.261719 C 386.882812 134.003906 386.367188 133.777344 385.839844 133.578125 C 385.3125 133.382812 384.777344 133.21875 384.230469 133.085938 C 383.679688 132.953125 383.128906 132.855469 382.566406 132.792969 C 382.007812 132.726562 381.445312 132.695312 380.882812 132.699219 C 380.320312 132.703125 379.761719 132.742188 379.199219 132.8125 C 378.640625 132.886719 378.089844 132.992188 377.542969 133.128906 C 377 133.269531 376.464844 133.441406 375.9375 133.644531 C 375.414062 133.847656 374.902344 134.085938 374.40625 134.351562 C 373.910156 134.617188 373.433594 134.910156 372.972656 135.234375 C 372.511719 135.558594 372.070312 135.910156 371.652344 136.289062 C 371.234375 136.664062 370.84375 137.066406 370.472656 137.492188 C 370.105469 137.917969 369.761719 138.363281 369.445312 138.832031 C 369.132812 139.296875 368.847656 139.78125 368.589844 140.285156 C 368.335938 140.785156 368.109375 141.300781 367.917969 141.832031 C 367.722656 142.359375 367.5625 142.898438 367.433594 143.445312 L 334.816406 143.445312 L 317.363281 160.8125 L 294.144531 160.8125 C 290.503906 154.03125 286.054688 147.835938 280.800781 142.21875 C 275.542969 136.601562 269.652344 131.75 263.132812 127.667969 L 262.957031 127.554688 L 295.15625 127.554688 L 314.0625 108.648438 L 338.230469 108.648438 C 338.339844 109.199219 338.480469 109.742188 338.65625 110.277344 C 338.832031 110.8125 339.039062 111.335938 339.277344 111.847656 C 339.515625 112.355469 339.785156 112.851562 340.085938 113.328125 C 340.382812 113.804688 340.710938 114.261719 341.066406 114.699219 C 341.417969 115.136719 341.800781 115.550781 342.203125 115.945312 C 342.609375 116.335938 343.035156 116.699219 343.484375 117.039062 C 343.933594 117.378906 344.402344 117.691406 344.890625 117.972656 C 345.375 118.257812 345.878906 118.507812 346.398438 118.730469 C 346.914062 118.953125 347.445312 119.140625 347.984375 119.300781 C 348.523438 119.457031 349.074219 119.582031 349.628906 119.671875 C 350.183594 119.761719 350.746094 119.820312 351.308594 119.84375 C 351.871094 119.867188 352.433594 119.855469 352.992188 119.808594 C 353.554688 119.761719 354.109375 119.683594 354.664062 119.570312 C 355.214844 119.457031 355.757812 119.3125 356.292969 119.132812 C 356.824219 118.953125 357.347656 118.742188 357.855469 118.5 C 358.363281 118.257812 358.855469 117.988281 359.332031 117.683594 C 359.804688 117.382812 360.261719 117.054688 360.695312 116.695312 C 361.132812 116.339844 361.542969 115.957031 361.933594 115.546875 C 362.320312 115.140625 362.683594 114.710938 363.019531 114.261719 C 363.355469 113.808594 363.664062 113.339844 363.945312 112.847656 C 364.222656 112.359375 364.472656 111.855469 364.691406 111.335938 C 364.910156 110.816406 365.097656 110.289062 365.25 109.746094 C 365.402344 109.203125 365.523438 108.65625 365.613281 108.097656 C 365.699219 107.542969 365.75 106.984375 365.769531 106.417969 C 365.789062 105.855469 365.773438 105.292969 365.726562 104.734375 C 365.675781 104.171875 365.59375 103.617188 365.476562 103.066406 C 365.359375 102.515625 365.210938 101.972656 365.027344 101.441406 C 364.847656 100.90625 364.632812 100.386719 364.386719 99.878906 C 364.140625 99.375 363.863281 98.882812 363.558594 98.410156 C 363.253906 97.9375 362.921875 97.484375 362.5625 97.050781 C 362.203125 96.617188 361.816406 96.207031 361.40625 95.824219 C 360.996094 95.4375 360.5625 95.078125 360.109375 94.742188 C 359.65625 94.410156 359.183594 94.105469 358.695312 93.828125 C 358.203125 93.550781 357.699219 93.304688 357.175781 93.089844 C 356.65625 92.875 356.125 92.695312 355.582031 92.542969 C 355.039062 92.394531 354.488281 92.277344 353.933594 92.195312 C 353.375 92.109375 352.816406 92.0625 352.253906 92.046875 C 351.6875 92.03125 351.128906 92.046875 350.566406 92.101562 C 350.007812 92.15625 349.449219 92.242188 348.902344 92.359375 C 348.351562 92.480469 347.808594 92.636719 347.277344 92.820312 C 346.746094 93.007812 346.226562 93.222656 345.722656 93.472656 C 345.21875 93.722656 344.730469 94 344.257812 94.308594 C 343.785156 94.617188 343.335938 94.953125 342.90625 95.316406 C 342.476562 95.679688 342.066406 96.066406 341.683594 96.480469 C 341.300781 96.894531 340.945312 97.328125 340.613281 97.78125 C 340.28125 98.238281 339.980469 98.714844 339.707031 99.207031 C 339.433594 99.699219 339.191406 100.207031 338.980469 100.726562 C 338.769531 101.25 338.589844 101.78125 338.445312 102.324219 L 311.433594 102.324219 L 292.527344 121.234375 L 250.71875 121.234375 C 240.75 117.027344 230.363281 114.734375 219.554688 114.347656 L 219.554688 114.292969 L 213.230469 114.292969 L 213.230469 114.347656 C 209.394531 114.488281 205.585938 114.875 201.796875 115.507812 C 198.011719 116.144531 194.285156 117.023438 190.613281 118.144531 C 186.941406 119.265625 183.359375 120.621094 179.863281 122.210938 C 176.371094 123.800781 172.992188 125.613281 169.734375 127.640625 C 166.476562 129.671875 163.363281 131.90625 160.398438 134.34375 C 157.433594 136.78125 154.636719 139.398438 152.011719 142.199219 C 149.386719 145.003906 146.957031 147.964844 144.71875 151.082031 C 142.480469 154.203125 140.453125 157.453125 138.640625 160.835938 L 137.753906 162.566406 L 135.410156 167.183594 L 135.574219 167.183594 C 131.074219 177.429688 128.640625 188.148438 128.273438 199.332031 L 128.214844 199.332031 L 128.214844 205.65625 L 128.273438 205.65625 C 128.636719 216.84375 131.074219 227.5625 135.574219 237.8125 L 135.410156 237.8125 L 137.753906 242.425781 L 138.640625 244.15625 C 140.453125 247.542969 142.480469 250.792969 144.71875 253.910156 C 146.957031 257.03125 149.386719 259.992188 152.011719 262.792969 C 154.636719 265.59375 157.429688 268.214844 160.398438 270.652344 C 163.363281 273.085938 166.476562 275.320312 169.734375 277.351562 C 172.992188 279.382812 176.367188 281.191406 179.863281 282.78125 C 183.359375 284.371094 186.941406 285.726562 190.613281 286.847656 C 194.285156 287.96875 198.011719 288.847656 201.796875 289.480469 C 205.585938 290.117188 209.394531 290.5 213.230469 290.636719 L 213.230469 290.695312 L 219.554688 290.695312 L 219.554688 290.636719 C 230.242188 290.261719 240.519531 288.011719 250.390625 283.886719 L 292.527344 283.886719 L 311.433594 302.792969 L 338.445312 302.792969 C 338.589844 303.335938 338.769531 303.871094 338.980469 304.394531 C 339.191406 304.914062 339.433594 305.421875 339.707031 305.914062 C 339.980469 306.40625 340.28125 306.882812 340.613281 307.335938 C 340.945312 307.792969 341.300781 308.226562 341.683594 308.640625 C 342.066406 309.050781 342.476562 309.441406 342.90625 309.804688 C 343.335938 310.167969 343.785156 310.503906 344.257812 310.8125 C 344.730469 311.117188 345.21875 311.398438 345.722656 311.648438 C 346.226562 311.894531 346.746094 312.113281 347.277344 312.300781 C 347.808594 312.484375 348.351562 312.636719 348.898438 312.757812 C 349.449219 312.878906 350.007812 312.964844 350.566406 313.019531 C 351.128906 313.070312 351.6875 313.089844 352.253906 313.074219 C 352.816406 313.058594 353.375 313.011719 353.933594 312.925781 C 354.488281 312.84375 355.039062 312.726562 355.582031 312.574219 C 356.125 312.425781 356.65625 312.242188 357.175781 312.027344 C 357.699219 311.8125 358.203125 311.566406 358.695312 311.292969 C 359.183594 311.015625 359.65625 310.710938 360.109375 310.375 C 360.5625 310.042969 360.996094 309.683594 361.40625 309.296875 C 361.816406 308.910156 362.203125 308.5 362.5625 308.070312 C 362.921875 307.636719 363.253906 307.183594 363.558594 306.710938 C 363.863281 306.234375 364.140625 305.746094 364.386719 305.238281 C 364.632812 304.734375 364.84375 304.210938 365.027344 303.679688 C 365.210938 303.148438 365.359375 302.605469 365.476562 302.054688 C 365.59375 301.503906 365.675781 300.949219 365.726562 300.386719 C 365.773438 299.824219 365.789062 299.261719 365.769531 298.699219 C 365.75 298.136719 365.699219 297.578125 365.609375 297.023438 C 365.523438 296.464844 365.402344 295.917969 365.25 295.375 C 365.097656 294.832031 364.910156 294.300781 364.691406 293.78125 C 364.472656 293.265625 364.222656 292.757812 363.945312 292.269531 C 363.664062 291.78125 363.355469 291.3125 363.019531 290.859375 C 362.683594 290.410156 362.320312 289.980469 361.933594 289.570312 C 361.542969 289.164062 361.132812 288.78125 360.695312 288.425781 C 360.261719 288.066406 359.804688 287.738281 359.332031 287.433594 C 358.855469 287.132812 358.363281 286.859375 357.855469 286.617188 C 357.347656 286.375 356.824219 286.167969 356.292969 285.988281 C 355.757812 285.808594 355.214844 285.664062 354.664062 285.550781 C 354.109375 285.4375 353.554688 285.355469 352.992188 285.3125 C 352.433594 285.265625 351.871094 285.253906 351.308594 285.277344 C 350.746094 285.300781 350.183594 285.355469 349.628906 285.449219 C 349.074219 285.539062 348.523438 285.664062 347.984375 285.820312 C 347.445312 285.976562 346.914062 286.167969 346.398438 286.390625 C 345.878906 286.609375 345.375 286.863281 344.890625 287.144531 C 344.402344 287.429688 343.933594 287.738281 343.484375 288.078125 C 343.035156 288.417969 342.609375 288.785156 342.203125 289.175781 C 341.800781 289.566406 341.417969 289.980469 341.066406 290.421875 C 340.710938 290.859375 340.382812 291.316406 340.085938 291.792969 C 339.785156 292.269531 339.515625 292.761719 339.277344 293.273438 C 339.039062 293.785156 338.832031 294.304688 338.65625 294.839844 C 338.480469 295.375 338.339844 295.921875 338.230469 296.472656 L 314.0625 296.472656 L 295.15625 277.566406 L 262.734375 277.566406 L 263.132812 277.320312 C 269.632812 273.25 275.5 268.421875 280.746094 262.828125 C 285.988281 257.234375 290.429688 251.0625 294.070312 244.316406 L 317.363281 244.316406 L 334.816406 261.761719 L 367.433594 261.761719 C 367.632812 262.609375 367.90625 263.429688 368.257812 264.222656 C 368.609375 265.015625 369.03125 265.773438 369.523438 266.488281 C 370.015625 267.203125 370.570312 267.867188 371.1875 268.476562 C 371.804688 269.089844 372.472656 269.636719 373.191406 270.125 C 373.910156 270.609375 374.667969 271.027344 375.46875 271.371094 C 376.265625 271.714844 377.085938 271.980469 377.933594 272.171875 C 378.78125 272.363281 379.640625 272.472656 380.507812 272.5 C 381.375 272.53125 382.238281 272.476562 383.097656 272.347656 C 383.957031 272.214844 384.792969 272.003906 385.613281 271.710938 C 386.433594 271.421875 387.21875 271.058594 387.96875 270.625 C 388.71875 270.1875 389.421875 269.683594 390.078125 269.117188 C 390.734375 268.546875 391.335938 267.921875 391.875 267.242188 C 392.414062 266.5625 392.886719 265.835938 393.289062 265.066406 C 393.691406 264.300781 394.023438 263.5 394.277344 262.667969 C 394.53125 261.839844 394.703125 260.992188 394.800781 260.128906 C 394.894531 259.265625 394.910156 258.398438 394.84375 257.535156 C 394.777344 256.667969 394.628906 255.816406 394.402344 254.976562 C 394.175781 254.136719 393.875 253.328125 393.496094 252.546875 C 393.117188 251.765625 392.671875 251.023438 392.152344 250.328125 C 391.636719 249.628906 391.058594 248.984375 390.421875 248.394531 C 389.785156 247.804688 389.097656 247.277344 388.363281 246.816406 C 387.625 246.355469 386.855469 245.96875 386.042969 245.652344 C 385.234375 245.335938 384.40625 245.097656 383.550781 244.933594 C 382.699219 244.773438 381.835938 244.695312 380.96875 244.695312 Z M 372.820312 194.953125 C 373.316406 194.953125 373.8125 195 374.300781 195.097656 C 374.789062 195.195312 375.261719 195.339844 375.722656 195.53125 C 376.183594 195.71875 376.621094 195.953125 377.035156 196.230469 C 377.449219 196.507812 377.832031 196.820312 378.183594 197.175781 C 378.535156 197.527344 378.851562 197.910156 379.128906 198.324219 C 379.402344 198.738281 379.636719 199.175781 379.828125 199.636719 C 380.019531 200.09375 380.164062 200.570312 380.257812 201.058594 C 380.355469 201.546875 380.40625 202.039062 380.40625 202.539062 C 380.40625 203.035156 380.355469 203.527344 380.257812 204.019531 C 380.164062 204.507812 380.019531 204.980469 379.828125 205.441406 C 379.636719 205.902344 379.402344 206.339844 379.128906 206.753906 C 378.851562 207.167969 378.535156 207.550781 378.183594 207.902344 C 377.832031 208.253906 377.449219 208.566406 377.035156 208.84375 C 376.621094 209.121094 376.183594 209.355469 375.722656 209.546875 C 375.261719 209.738281 374.789062 209.878906 374.300781 209.976562 C 373.8125 210.074219 373.316406 210.125 372.820312 210.125 C 372.320312 210.125 371.828125 210.074219 371.339844 209.976562 C 370.851562 209.878906 370.378906 209.738281 369.917969 209.546875 C 369.457031 209.355469 369.019531 209.121094 368.605469 208.84375 C 368.191406 208.566406 367.808594 208.253906 367.457031 207.902344 C 367.105469 207.550781 366.789062 207.167969 366.511719 206.753906 C 366.234375 206.339844 366.003906 205.902344 365.8125 205.441406 C 365.621094 204.980469 365.476562 204.507812 365.378906 204.019531 C 365.28125 203.527344 365.234375 203.035156 365.234375 202.539062 C 365.230469 202.039062 365.277344 201.542969 365.375 201.054688 C 365.46875 200.5625 365.613281 200.085938 365.800781 199.625 C 365.992188 199.164062 366.226562 198.722656 366.5 198.308594 C 366.777344 197.890625 367.09375 197.507812 367.445312 197.152344 C 367.796875 196.800781 368.179688 196.484375 368.59375 196.207031 C 369.011719 195.925781 369.449219 195.691406 369.910156 195.5 C 370.371094 195.308594 370.847656 195.164062 371.335938 195.066406 C 371.824219 194.96875 372.320312 194.921875 372.820312 194.921875 Z M 380.96875 138.996094 C 381.464844 138.996094 381.960938 139.042969 382.449219 139.140625 C 382.9375 139.238281 383.410156 139.382812 383.871094 139.574219 C 384.332031 139.765625 384.769531 139.996094 385.183594 140.273438 C 385.597656 140.550781 385.980469 140.867188 386.332031 141.21875 C 386.683594 141.570312 387 141.953125 387.273438 142.367188 C 387.550781 142.78125 387.785156 143.21875 387.976562 143.679688 C 388.167969 144.140625 388.3125 144.613281 388.40625 145.101562 C 388.503906 145.589844 388.554688 146.082031 388.554688 146.582031 C 388.554688 147.078125 388.503906 147.574219 388.40625 148.0625 C 388.3125 148.550781 388.167969 149.023438 387.976562 149.484375 C 387.785156 149.945312 387.550781 150.382812 387.273438 150.796875 C 387 151.210938 386.683594 151.59375 386.332031 151.945312 C 385.980469 152.296875 385.597656 152.613281 385.183594 152.890625 C 384.769531 153.164062 384.332031 153.398438 383.871094 153.589844 C 383.410156 153.78125 382.9375 153.925781 382.449219 154.019531 C 381.960938 154.117188 381.464844 154.167969 380.96875 154.167969 C 380.46875 154.167969 379.976562 154.117188 379.488281 154.019531 C 379 153.925781 378.523438 153.78125 378.066406 153.589844 C 377.605469 153.398438 377.167969 153.164062 376.753906 152.890625 C 376.339844 152.613281 375.957031 152.296875 375.605469 151.945312 C 375.253906 151.59375 374.9375 151.210938 374.660156 150.796875 C 374.382812 150.382812 374.152344 149.945312 373.960938 149.484375 C 373.769531 149.023438 373.625 148.550781 373.527344 148.0625 C 373.429688 147.574219 373.382812 147.078125 373.382812 146.582031 C 373.378906 146.082031 373.425781 145.585938 373.523438 145.097656 C 373.617188 144.605469 373.761719 144.132812 373.949219 143.667969 C 374.140625 143.207031 374.375 142.769531 374.648438 142.351562 C 374.925781 141.9375 375.242188 141.550781 375.59375 141.199219 C 375.945312 140.84375 376.328125 140.527344 376.742188 140.25 C 377.160156 139.972656 377.597656 139.738281 378.058594 139.546875 C 378.519531 139.351562 378.996094 139.207031 379.484375 139.109375 C 379.972656 139.011719 380.46875 138.964844 380.96875 138.964844 Z M 351.890625 98.402344 C 352.386719 98.402344 352.882812 98.449219 353.371094 98.546875 C 353.859375 98.644531 354.332031 98.789062 354.792969 98.976562 C 355.253906 99.167969 355.691406 99.402344 356.105469 99.679688 C 356.519531 99.957031 356.902344 100.269531 357.253906 100.621094 C 357.605469 100.972656 357.921875 101.359375 358.195312 101.773438 C 358.472656 102.1875 358.707031 102.625 358.898438 103.082031 C 359.089844 103.542969 359.234375 104.019531 359.328125 104.507812 C 359.425781 104.996094 359.476562 105.488281 359.476562 105.984375 C 359.476562 106.484375 359.425781 106.976562 359.328125 107.464844 C 359.234375 107.953125 359.089844 108.429688 358.898438 108.890625 C 358.707031 109.347656 358.472656 109.785156 358.195312 110.199219 C 357.921875 110.613281 357.605469 110.996094 357.253906 111.351562 C 356.902344 111.703125 356.519531 112.015625 356.105469 112.292969 C 355.691406 112.570312 355.253906 112.804688 354.792969 112.996094 C 354.332031 113.183594 353.859375 113.328125 353.371094 113.425781 C 352.882812 113.523438 352.386719 113.570312 351.890625 113.570312 C 351.390625 113.570312 350.898438 113.523438 350.410156 113.425781 C 349.921875 113.328125 349.449219 113.183594 348.988281 112.996094 C 348.527344 112.804688 348.089844 112.570312 347.675781 112.292969 C 347.261719 112.015625 346.878906 111.703125 346.527344 111.351562 C 346.175781 110.996094 345.859375 110.613281 345.582031 110.199219 C 345.304688 109.785156 345.074219 109.347656 344.882812 108.890625 C 344.691406 108.429688 344.546875 107.953125 344.449219 107.464844 C 344.351562 106.976562 344.304688 106.484375 344.304688 105.984375 C 344.300781 105.488281 344.347656 104.992188 344.445312 104.503906 C 344.539062 104.015625 344.679688 103.539062 344.871094 103.078125 C 345.058594 102.617188 345.292969 102.179688 345.566406 101.765625 C 345.84375 101.347656 346.15625 100.964844 346.507812 100.609375 C 346.855469 100.257812 347.238281 99.941406 347.652344 99.664062 C 348.066406 99.382812 348.503906 99.148438 348.960938 98.957031 C 349.421875 98.765625 349.894531 98.617188 350.382812 98.519531 C 350.871094 98.421875 351.367188 98.371094 351.863281 98.367188 Z M 193.167969 123.957031 L 192.941406 124.171875 L 192.480469 124.589844 L 192.132812 124.914062 L 191.675781 125.355469 L 191.335938 125.683594 L 190.878906 126.136719 L 190.550781 126.472656 L 190.078125 126.964844 L 189.773438 127.289062 L 189.28125 127.828125 L 189.007812 128.125 C 188.820312 128.339844 188.628906 128.546875 188.445312 128.753906 L 188.25 128.984375 C 187.738281 129.578125 187.234375 130.183594 186.734375 130.808594 L 186.621094 130.957031 C 186.410156 131.214844 186.207031 131.480469 185.988281 131.75 L 185.792969 132.011719 L 185.261719 132.710938 L 185.03125 133.027344 C 184.867188 133.25 184.710938 133.476562 184.546875 133.707031 C 184.464844 133.820312 184.386719 133.933594 184.304688 134.039062 L 183.839844 134.722656 L 183.597656 135.070312 L 183.136719 135.765625 L 182.902344 136.121094 C 182.75 136.359375 182.59375 136.601562 182.441406 136.847656 L 182.21875 137.1875 L 181.746094 137.964844 C 181.683594 138.066406 181.613281 138.167969 181.550781 138.277344 L 181.03125 139.148438 C 180.988281 139.222656 180.941406 139.304688 180.890625 139.382812 C 180.683594 139.75 180.46875 140.113281 180.261719 140.488281 C 179.824219 141.265625 179.386719 142.0625 178.996094 142.878906 C 178.957031 142.9375 178.925781 143 178.894531 143.066406 C 178.722656 143.394531 178.550781 143.730469 178.382812 144.070312 L 178.21875 144.394531 L 177.78125 145.285156 L 177.597656 145.675781 C 177.460938 145.960938 177.328125 146.246094 177.195312 146.53125 L 177 146.953125 L 176.617188 147.796875 C 176.550781 147.941406 176.480469 148.09375 176.417969 148.246094 C 176.289062 148.523438 176.171875 148.800781 176.050781 149.085938 C 175.980469 149.238281 175.917969 149.386719 175.855469 149.539062 C 175.726562 149.832031 175.609375 150.117188 175.492188 150.40625 L 175.304688 150.855469 C 175.179688 151.160156 175.058594 151.488281 174.9375 151.765625 L 174.765625 152.1875 C 174.632812 152.523438 174.507812 152.859375 174.382812 153.195312 L 174.25 153.542969 C 174.078125 153.976562 173.917969 154.421875 173.753906 154.863281 L 173.753906 154.914062 C 173.585938 155.375 173.421875 155.847656 173.257812 156.324219 C 173.21875 156.417969 173.1875 156.519531 173.15625 156.613281 L 172.777344 157.71875 C 172.726562 157.882812 172.667969 158.046875 172.617188 158.210938 L 172.3125 159.140625 C 172.25 159.332031 172.195312 159.519531 172.132812 159.710938 C 172.042969 160 171.953125 160.292969 171.859375 160.582031 C 171.859375 160.660156 171.816406 160.730469 171.796875 160.804688 L 145.941406 160.804688 C 148.542969 156.386719 151.53125 152.25 154.914062 148.394531 C 158.292969 144.542969 162.003906 141.039062 166.046875 137.882812 C 170.089844 134.730469 174.390625 131.980469 178.949219 129.640625 C 183.511719 127.300781 188.25 125.40625 193.167969 123.957031 Z M 142.507812 167.183594 L 169.996094 167.183594 C 169.996094 167.296875 169.945312 167.417969 169.914062 167.535156 C 169.855469 167.777344 169.792969 168.015625 169.734375 168.265625 C 169.621094 168.75 169.5 169.242188 169.394531 169.738281 C 169.332031 169.996094 169.273438 170.25 169.21875 170.5 C 169.101562 171.011719 168.996094 171.53125 168.886719 172.042969 C 168.84375 172.265625 168.792969 172.488281 168.75 172.714844 C 168.445312 174.179688 168.171875 175.660156 167.914062 177.140625 C 167.875 177.367188 167.84375 177.59375 167.808594 177.820312 C 167.71875 178.347656 167.636719 178.878906 167.554688 179.402344 C 167.511719 179.667969 167.472656 179.925781 167.433594 180.191406 C 167.359375 180.703125 167.28125 181.222656 167.214844 181.734375 C 167.179688 181.988281 167.144531 182.238281 167.113281 182.492188 C 167.03125 183.101562 166.957031 183.714844 166.882812 184.332031 L 166.828125 184.773438 C 166.738281 185.539062 166.65625 186.300781 166.582031 187.070312 C 166.582031 187.273438 166.550781 187.46875 166.53125 187.664062 C 166.472656 188.238281 166.421875 188.8125 166.371094 189.390625 C 166.371094 189.65625 166.328125 189.925781 166.308594 190.199219 C 166.265625 190.71875 166.230469 191.234375 166.195312 191.753906 L 166.136719 192.582031 C 166.101562 193.136719 166.074219 193.695312 166.042969 194.246094 L 166.003906 194.941406 C 165.96875 195.71875 165.9375 196.5 165.910156 197.285156 C 165.910156 197.410156 165.910156 197.542969 165.910156 197.671875 C 165.910156 198.21875 165.878906 198.769531 165.867188 199.320312 L 134.574219 199.320312 C 134.773438 193.742188 135.539062 188.246094 136.875 182.828125 C 138.210938 177.410156 140.089844 172.1875 142.507812 167.15625 Z M 134.570312 205.679688 L 165.859375 205.679688 C 165.859375 206.234375 165.859375 206.785156 165.90625 207.335938 C 165.90625 207.460938 165.90625 207.59375 165.90625 207.722656 C 165.90625 208.503906 165.960938 209.289062 166 210.066406 L 166.039062 210.753906 C 166.039062 211.3125 166.09375 211.867188 166.132812 212.417969 L 166.1875 213.253906 C 166.222656 213.769531 166.261719 214.289062 166.300781 214.808594 C 166.300781 215.078125 166.339844 215.34375 166.367188 215.617188 C 166.417969 216.191406 166.46875 216.765625 166.523438 217.34375 C 166.523438 217.539062 166.554688 217.734375 166.574219 217.929688 C 166.648438 218.703125 166.734375 219.464844 166.820312 220.230469 L 166.878906 220.671875 C 166.949219 221.289062 167.027344 221.902344 167.105469 222.511719 C 167.105469 222.765625 167.175781 223.019531 167.207031 223.265625 C 167.277344 223.785156 167.351562 224.300781 167.429688 224.8125 C 167.464844 225.074219 167.503906 225.339844 167.546875 225.597656 C 167.628906 226.128906 167.710938 226.652344 167.800781 227.183594 C 167.839844 227.414062 167.871094 227.640625 167.910156 227.859375 C 168.167969 229.351562 168.4375 230.839844 168.742188 232.285156 C 168.785156 232.507812 168.835938 232.734375 168.882812 232.957031 C 168.988281 233.46875 169.097656 233.988281 169.210938 234.5 C 169.265625 234.75 169.324219 235.003906 169.386719 235.261719 C 169.496094 235.757812 169.613281 236.242188 169.730469 236.734375 C 169.785156 236.976562 169.847656 237.222656 169.90625 237.464844 C 169.90625 237.582031 169.960938 237.695312 169.988281 237.816406 L 142.507812 237.816406 C 140.089844 232.789062 138.210938 227.566406 136.871094 222.148438 C 135.535156 216.730469 134.769531 211.230469 134.570312 205.65625 Z M 145.898438 244.183594 L 171.75 244.183594 C 171.75 244.257812 171.796875 244.328125 171.816406 244.402344 C 171.910156 244.695312 172 244.984375 172.085938 245.269531 C 172.175781 245.554688 172.207031 245.65625 172.269531 245.84375 L 172.574219 246.769531 L 172.730469 247.265625 C 172.859375 247.632812 172.984375 248 173.105469 248.359375 L 173.210938 248.664062 C 173.375 249.136719 173.539062 249.605469 173.710938 250.074219 C 173.710938 250.09375 173.710938 250.117188 173.710938 250.136719 C 173.871094 250.578125 174.035156 251.007812 174.191406 251.445312 C 174.242188 251.566406 174.285156 251.6875 174.332031 251.804688 C 174.457031 252.136719 174.582031 252.4375 174.714844 252.792969 L 174.886719 253.230469 C 175.007812 253.53125 175.128906 253.859375 175.253906 254.125 L 175.441406 254.585938 L 175.796875 255.441406 C 175.867188 255.597656 175.9375 255.75 176 255.910156 C 176.121094 256.1875 176.238281 256.464844 176.367188 256.738281 C 176.429688 256.894531 176.5 257.046875 176.570312 257.199219 L 176.941406 258.027344 C 177.011719 258.171875 177.082031 258.316406 177.144531 258.460938 L 177.542969 259.304688 L 177.730469 259.703125 L 178.167969 260.582031 C 178.226562 260.695312 178.273438 260.808594 178.332031 260.914062 L 178.835938 261.90625 L 178.945312 262.117188 C 179.367188 262.925781 179.796875 263.714844 180.210938 264.5 L 180.839844 265.59375 L 180.988281 265.839844 L 181.5 266.707031 L 181.695312 267.023438 L 182.167969 267.792969 L 182.390625 268.132812 C 182.542969 268.378906 182.699219 268.621094 182.851562 268.855469 L 183.085938 269.214844 L 183.546875 269.902344 L 183.789062 270.257812 C 183.945312 270.484375 184.097656 270.714844 184.253906 270.933594 L 184.496094 271.277344 L 184.980469 271.953125 L 185.210938 272.269531 L 185.742188 272.96875 L 185.9375 273.230469 L 186.570312 274.027344 C 186.605469 274.078125 186.636719 274.125 186.675781 274.171875 C 187.175781 274.804688 187.679688 275.402344 188.195312 275.996094 L 188.382812 276.21875 L 188.953125 276.851562 L 189.21875 277.148438 L 189.71875 277.691406 L 190.019531 278.015625 L 190.496094 278.507812 L 190.816406 278.835938 L 191.277344 279.296875 L 191.621094 279.625 L 192.074219 280.0625 L 192.421875 280.390625 L 192.882812 280.808594 L 193.113281 281.015625 C 188.191406 279.570312 183.453125 277.675781 178.894531 275.332031 C 174.335938 272.988281 170.035156 270.242188 165.992188 267.085938 C 161.953125 263.929688 158.242188 260.425781 154.863281 256.570312 C 151.484375 252.714844 148.496094 248.578125 145.898438 244.15625 Z M 213.207031 284.160156 L 212.847656 284.109375 L 212.605469 284.070312 L 211.917969 283.949219 L 211.808594 283.949219 L 211.222656 283.828125 L 210.960938 283.765625 L 210.53125 283.664062 L 210.242188 283.589844 L 209.835938 283.476562 L 209.539062 283.394531 L 209.140625 283.265625 C 209.042969 283.234375 208.941406 283.210938 208.84375 283.171875 L 208.433594 283.039062 L 208.15625 282.9375 L 207.683594 282.769531 L 207.472656 282.6875 L 206.804688 282.414062 L 206.570312 282.3125 L 206.121094 282.117188 L 205.84375 281.992188 L 205.445312 281.800781 L 205.152344 281.660156 L 204.761719 281.464844 L 204.472656 281.3125 L 204.078125 281.097656 L 203.800781 280.949219 L 203.378906 280.707031 L 203.128906 280.5625 C 202.917969 280.441406 202.710938 280.3125 202.5 280.183594 L 202.378906 280.105469 L 201.804688 279.738281 L 201.570312 279.582031 L 201.144531 279.296875 L 200.878906 279.109375 L 200.488281 278.828125 L 200.214844 278.628906 L 199.824219 278.335938 L 199.558594 278.132812 L 199.15625 277.8125 L 198.914062 277.621094 C 198.75 277.496094 198.59375 277.363281 198.433594 277.230469 L 198.269531 277.089844 C 198.054688 276.914062 197.847656 276.730469 197.636719 276.542969 L 197.480469 276.402344 L 197.003906 275.972656 L 196.777344 275.757812 C 196.636719 275.636719 196.507812 275.511719 196.375 275.378906 L 196.125 275.144531 L 195.742188 274.765625 C 195.652344 274.683594 195.578125 274.601562 195.496094 274.519531 L 195.101562 274.121094 L 194.867188 273.878906 L 194.453125 273.4375 L 194.25 273.222656 L 193.617188 272.554688 C 193.410156 272.320312 193.199219 272.078125 192.984375 271.839844 L 192.78125 271.605469 L 192.371094 271.113281 C 192.289062 271.015625 192.207031 270.921875 192.132812 270.820312 L 191.757812 270.367188 L 191.53125 269.980469 C 191.410156 269.835938 191.296875 269.683594 191.175781 269.53125 C 191.058594 269.378906 191.011719 269.308594 190.925781 269.203125 L 190.582031 268.746094 L 190.335938 268.414062 L 189.988281 267.9375 L 189.75 267.601562 C 189.628906 267.4375 189.515625 267.269531 189.394531 267.097656 L 189.171875 266.78125 L 188.78125 266.207031 L 188.605469 265.945312 L 188.054688 265.101562 L 187.933594 264.917969 C 187.789062 264.6875 187.644531 264.460938 187.503906 264.234375 L 187.296875 263.898438 C 187.183594 263.714844 187.066406 263.53125 186.960938 263.347656 L 186.734375 262.96875 L 186.421875 262.445312 L 186.195312 262.046875 C 186.09375 261.875 185.992188 261.707031 185.898438 261.527344 L 185.664062 261.117188 L 185.375 260.59375 L 185.148438 260.175781 L 184.863281 259.636719 L 184.640625 259.226562 L 184.34375 258.652344 C 184.28125 258.519531 184.210938 258.394531 184.140625 258.261719 C 184.027344 258.03125 183.914062 257.8125 183.804688 257.582031 L 183.65625 257.28125 L 183.179688 256.300781 C 183.128906 256.1875 183.074219 256.078125 183.023438 255.964844 L 182.707031 255.289062 L 182.515625 254.871094 L 182.246094 254.238281 C 182.175781 254.09375 182.113281 253.941406 182.050781 253.792969 L 181.789062 253.203125 C 181.726562 253.050781 181.65625 252.894531 181.59375 252.734375 C 181.53125 252.578125 181.421875 252.34375 181.339844 252.148438 C 181.257812 251.953125 181.214844 251.832031 181.144531 251.671875 C 181.074219 251.515625 180.988281 251.273438 180.90625 251.078125 L 180.714844 250.605469 L 180.46875 249.972656 L 180.292969 249.519531 C 180.203125 249.289062 180.121094 249.0625 180.039062 248.839844 C 179.957031 248.621094 179.929688 248.5625 179.882812 248.417969 L 179.558594 247.539062 L 179.476562 247.3125 C 179.34375 246.945312 179.210938 246.578125 179.085938 246.207031 C 179.039062 246.078125 178.996094 245.953125 178.957031 245.828125 C 178.871094 245.574219 178.78125 245.320312 178.699219 245.066406 L 178.546875 244.613281 C 178.496094 244.449219 178.441406 244.277344 178.382812 244.105469 L 213.1875 244.105469 Z M 213.207031 237.835938 L 176.542969 237.835938 C 176.367188 237.167969 176.195312 236.488281 176.03125 235.808594 C 175.980469 235.609375 175.9375 235.414062 175.890625 235.226562 L 175.53125 233.703125 L 175.359375 232.929688 C 175.265625 232.476562 175.164062 232.019531 175.070312 231.566406 L 174.898438 230.742188 L 174.632812 229.390625 L 174.484375 228.574219 C 174.394531 228.09375 174.3125 227.609375 174.222656 227.128906 C 174.183594 226.886719 174.140625 226.648438 174.101562 226.40625 C 173.996094 225.773438 173.894531 225.144531 173.792969 224.511719 L 173.753906 224.25 C 173.640625 223.523438 173.539062 222.792969 173.441406 222.050781 L 173.363281 221.417969 C 173.292969 220.894531 173.222656 220.371094 173.167969 219.839844 L 173.074219 219.03125 L 172.921875 217.59375 C 172.890625 217.3125 172.863281 217.027344 172.839844 216.742188 C 172.789062 216.269531 172.75 215.789062 172.707031 215.3125 C 172.707031 215.027344 172.660156 214.75 172.636719 214.464844 L 172.523438 212.929688 C 172.523438 212.683594 172.492188 212.445312 172.472656 212.203125 C 172.429688 211.46875 172.382812 210.742188 172.351562 210.003906 C 172.347656 209.976562 172.347656 209.953125 172.351562 209.925781 C 172.3125 209.160156 172.28125 208.394531 172.257812 207.632812 L 172.257812 206.925781 C 172.257812 206.519531 172.257812 206.117188 172.257812 205.710938 L 213.25 205.710938 Z M 213.207031 199.332031 L 172.214844 199.332031 C 172.214844 198.929688 172.214844 198.53125 172.214844 198.125 L 172.214844 197.417969 C 172.238281 196.652344 172.269531 195.886719 172.308594 195.121094 C 172.304688 195.097656 172.304688 195.074219 172.308594 195.046875 C 172.339844 194.3125 172.382812 193.582031 172.429688 192.847656 C 172.429688 192.605469 172.464844 192.367188 172.480469 192.121094 L 172.59375 190.578125 C 172.59375 190.300781 172.636719 190.015625 172.660156 189.738281 C 172.707031 189.261719 172.742188 188.78125 172.792969 188.308594 C 172.792969 188.023438 172.84375 187.738281 172.875 187.457031 L 173.027344 186.019531 L 173.125 185.203125 C 173.179688 184.679688 173.25 184.15625 173.320312 183.628906 L 173.394531 183 C 173.496094 182.257812 173.597656 181.527344 173.710938 180.792969 L 173.75 180.539062 C 173.851562 179.90625 173.953125 179.277344 174.058594 178.644531 C 174.097656 178.402344 174.140625 178.164062 174.179688 177.921875 C 174.265625 177.4375 174.351562 176.957031 174.4375 176.476562 L 174.589844 175.660156 L 174.855469 174.308594 L 175.027344 173.484375 C 175.121094 173.03125 175.222656 172.574219 175.316406 172.121094 L 175.488281 171.347656 L 175.847656 169.824219 C 175.890625 169.628906 175.9375 169.433594 175.988281 169.242188 C 176.152344 168.5625 176.320312 167.882812 176.5 167.214844 L 213.164062 167.214844 Z M 213.207031 160.835938 L 178.402344 160.835938 C 178.457031 160.664062 178.507812 160.5 178.566406 160.335938 L 178.71875 159.867188 L 178.96875 159.128906 L 179.101562 158.738281 C 179.230469 158.363281 179.363281 157.996094 179.496094 157.632812 C 179.496094 157.542969 179.550781 157.460938 179.582031 157.378906 L 179.894531 156.523438 C 179.949219 156.378906 180.007812 156.234375 180.058594 156.089844 C 180.109375 155.945312 180.230469 155.644531 180.3125 155.457031 C 180.394531 155.265625 180.429688 155.140625 180.492188 154.988281 C 180.558594 154.835938 180.652344 154.578125 180.734375 154.355469 L 180.925781 153.875 L 181.164062 153.289062 C 181.234375 153.128906 181.296875 152.964844 181.367188 152.808594 C 181.4375 152.648438 181.523438 152.421875 181.605469 152.226562 C 181.6875 152.03125 181.746094 151.910156 181.808594 151.753906 C 181.871094 151.59375 181.980469 151.367188 182.0625 151.175781 C 182.144531 150.988281 182.195312 150.867188 182.265625 150.714844 C 182.332031 150.5625 182.441406 150.316406 182.535156 150.121094 C 182.628906 149.925781 182.664062 149.835938 182.730469 149.691406 C 182.800781 149.546875 182.933594 149.253906 183.035156 149.058594 C 183.09375 148.941406 183.144531 148.820312 183.199219 148.707031 L 183.671875 147.726562 C 183.722656 147.617188 183.78125 147.511719 183.839844 147.398438 L 184.160156 146.765625 L 184.367188 146.359375 C 184.464844 146.171875 184.558594 145.988281 184.660156 145.804688 C 184.761719 145.621094 184.8125 145.519531 184.882812 145.375 L 185.164062 144.851562 L 185.398438 144.417969 L 185.683594 143.914062 C 185.757812 143.769531 185.84375 143.628906 185.917969 143.492188 L 186.207031 142.984375 C 186.285156 142.847656 186.367188 142.707031 186.449219 142.574219 C 186.53125 142.441406 186.644531 142.234375 186.746094 142.0625 C 186.847656 141.890625 186.902344 141.804688 186.980469 141.675781 C 187.054688 141.550781 187.195312 141.316406 187.308594 141.140625 C 187.421875 140.960938 187.449219 140.90625 187.523438 140.792969 C 187.65625 140.570312 187.796875 140.355469 187.933594 140.160156 C 187.976562 140.089844 188.023438 140.015625 188.074219 139.945312 L 188.625 139.105469 C 188.6875 139.003906 188.757812 138.90625 188.820312 138.8125 L 189.191406 138.261719 L 189.417969 137.933594 L 189.765625 137.441406 L 190.015625 137.101562 L 190.347656 136.636719 C 190.4375 136.523438 190.519531 136.40625 190.601562 136.289062 L 190.941406 135.847656 L 191.203125 135.507812 L 191.542969 135.0625 C 191.632812 134.957031 191.714844 134.847656 191.804688 134.75 L 192.164062 134.292969 L 192.410156 133.996094 C 192.542969 133.839844 192.675781 133.671875 192.8125 133.515625 L 193.023438 133.269531 C 193.226562 133.027344 193.433594 132.792969 193.65625 132.5625 L 194.289062 131.882812 L 194.484375 131.675781 C 194.628906 131.53125 194.765625 131.378906 194.90625 131.234375 C 195.046875 131.089844 195.058594 131.070312 195.140625 130.992188 C 195.222656 130.917969 195.398438 130.722656 195.53125 130.589844 L 195.773438 130.347656 L 196.164062 129.964844 L 196.40625 129.734375 L 196.820312 129.34375 L 197.035156 129.140625 L 197.542969 128.691406 L 197.675781 128.570312 L 198.308594 128.015625 L 198.425781 127.914062 L 198.953125 127.484375 L 199.160156 127.3125 L 199.601562 126.972656 L 199.835938 126.789062 L 200.261719 126.472656 L 200.5 126.296875 L 200.9375 125.988281 L 201.164062 125.828125 L 201.644531 125.5 L 201.820312 125.378906 C 202.269531 125.089844 202.71875 124.804688 203.167969 124.539062 L 203.339844 124.445312 L 203.839844 124.152344 L 204.066406 124.035156 L 204.519531 123.785156 L 204.761719 123.660156 L 205.203125 123.4375 L 205.445312 123.320312 L 205.910156 123.105469 L 206.132812 123.003906 L 206.675781 122.761719 L 206.816406 122.699219 L 207.511719 122.421875 L 207.617188 122.378906 L 208.195312 122.167969 L 208.421875 122.085938 L 208.882812 121.933594 L 209.140625 121.851562 L 209.578125 121.714844 L 209.851562 121.636719 L 210.285156 121.519531 L 210.546875 121.449219 L 211.011719 121.339844 L 211.242188 121.285156 L 211.871094 121.152344 L 211.941406 121.152344 L 212.632812 121.03125 L 212.867188 120.992188 L 213.230469 120.941406 Z M 351.863281 291.613281 C 352.363281 291.613281 352.855469 291.660156 353.34375 291.757812 C 353.832031 291.855469 354.308594 292 354.765625 292.1875 C 355.226562 292.378906 355.664062 292.613281 356.078125 292.890625 C 356.492188 293.167969 356.875 293.480469 357.230469 293.832031 C 357.582031 294.183594 357.894531 294.570312 358.171875 294.984375 C 358.449219 295.398438 358.683594 295.835938 358.871094 296.292969 C 359.0625 296.753906 359.207031 297.230469 359.304688 297.71875 C 359.402344 298.207031 359.449219 298.699219 359.449219 299.195312 C 359.449219 299.695312 359.402344 300.1875 359.304688 300.675781 C 359.207031 301.164062 359.0625 301.640625 358.871094 302.101562 C 358.683594 302.558594 358.449219 302.996094 358.171875 303.410156 C 357.894531 303.824219 357.582031 304.207031 357.230469 304.5625 C 356.875 304.914062 356.492188 305.226562 356.078125 305.503906 C 355.664062 305.78125 355.226562 306.015625 354.769531 306.207031 C 354.308594 306.394531 353.832031 306.539062 353.34375 306.636719 C 352.855469 306.734375 352.363281 306.78125 351.863281 306.78125 C 351.367188 306.78125 350.875 306.734375 350.386719 306.636719 C 349.894531 306.539062 349.421875 306.394531 348.960938 306.207031 C 348.5 306.015625 348.066406 305.78125 347.652344 305.503906 C 347.234375 305.226562 346.851562 304.914062 346.5 304.5625 C 346.148438 304.207031 345.835938 303.824219 345.558594 303.410156 C 345.28125 302.996094 345.046875 302.558594 344.855469 302.101562 C 344.664062 301.640625 344.523438 301.164062 344.425781 300.675781 C 344.328125 300.1875 344.277344 299.695312 344.277344 299.195312 C 344.277344 298.699219 344.328125 298.207031 344.425781 297.71875 C 344.523438 297.230469 344.664062 296.753906 344.855469 296.292969 C 345.046875 295.835938 345.28125 295.398438 345.558594 294.984375 C 345.835938 294.570312 346.148438 294.183594 346.5 293.832031 C 346.851562 293.480469 347.234375 293.167969 347.652344 292.890625 C 348.066406 292.613281 348.5 292.378906 348.960938 292.1875 C 349.421875 292 349.894531 291.855469 350.386719 291.757812 C 350.875 291.660156 351.367188 291.613281 351.863281 291.613281 Z M 290.25 167.15625 C 292.671875 172.183594 294.550781 177.40625 295.886719 182.820312 C 297.222656 188.238281 297.992188 193.734375 298.191406 199.308594 L 266.898438 199.308594 C 266.898438 198.757812 266.898438 198.207031 266.855469 197.65625 C 266.855469 197.53125 266.855469 197.398438 266.855469 197.273438 C 266.855469 196.488281 266.800781 195.703125 266.761719 194.925781 L 266.722656 194.230469 C 266.691406 193.683594 266.667969 193.125 266.628906 192.570312 L 266.570312 191.742188 C 266.542969 191.222656 266.503906 190.703125 266.457031 190.1875 C 266.457031 189.914062 266.417969 189.640625 266.394531 189.378906 C 266.34375 188.800781 266.292969 188.226562 266.234375 187.652344 C 266.234375 187.457031 266.203125 187.257812 266.1875 187.058594 C 266.109375 186.292969 266.027344 185.53125 265.9375 184.761719 L 265.882812 184.320312 C 265.8125 183.699219 265.734375 183.085938 265.65625 182.480469 C 265.625 182.226562 265.585938 181.976562 265.554688 181.722656 C 265.484375 181.210938 265.410156 180.691406 265.332031 180.179688 C 265.292969 179.914062 265.257812 179.65625 265.210938 179.390625 C 265.128906 178.863281 265.046875 178.332031 264.960938 177.808594 C 264.921875 177.582031 264.890625 177.355469 264.851562 177.125 C 264.59375 175.632812 264.320312 174.15625 264.015625 172.703125 C 263.972656 172.472656 263.921875 172.253906 263.878906 172.03125 C 263.769531 171.519531 263.664062 171 263.550781 170.488281 C 263.492188 170.234375 263.4375 169.984375 263.371094 169.722656 C 263.265625 169.230469 263.144531 168.738281 263.03125 168.25 C 262.972656 168.003906 262.910156 167.765625 262.855469 167.523438 C 262.824219 167.402344 262.796875 167.285156 262.773438 167.171875 L 290.257812 167.171875 Z M 249.195312 127.429688 L 249.195312 127.554688 L 249.492188 127.554688 C 253.375 129.269531 257.105469 131.273438 260.675781 133.570312 C 264.246094 135.863281 267.617188 138.421875 270.789062 141.246094 C 273.960938 144.070312 276.894531 147.121094 279.589844 150.402344 C 282.285156 153.679688 284.710938 157.152344 286.863281 160.8125 L 261.007812 160.8125 C 261.007812 160.734375 260.964844 160.664062 260.945312 160.589844 C 260.851562 160.300781 260.761719 160.007812 260.671875 159.71875 C 260.609375 159.527344 260.554688 159.339844 260.488281 159.148438 L 260.1875 158.21875 C 260.136719 158.054688 260.078125 157.890625 260.027344 157.726562 L 259.648438 156.621094 C 259.617188 156.523438 259.585938 156.425781 259.546875 156.328125 C 259.382812 155.855469 259.21875 155.382812 259.050781 154.917969 L 259.050781 154.867188 C 258.882812 154.425781 258.726562 153.984375 258.554688 153.546875 L 258.421875 153.199219 C 258.296875 152.863281 258.171875 152.53125 258.039062 152.195312 L 257.867188 151.769531 C 257.746094 151.46875 257.625 151.140625 257.5 150.859375 L 257.3125 150.414062 C 257.195312 150.121094 257.078125 149.835938 256.949219 149.546875 C 256.886719 149.394531 256.824219 149.242188 256.753906 149.089844 C 256.632812 148.808594 256.515625 148.527344 256.386719 148.25 C 256.324219 148.097656 256.253906 147.945312 256.183594 147.800781 L 255.804688 146.960938 L 255.609375 146.539062 C 255.476562 146.253906 255.34375 145.96875 255.207031 145.683594 L 255.023438 145.292969 L 254.585938 144.402344 L 254.421875 144.078125 C 254.253906 143.738281 254.082031 143.402344 253.910156 143.074219 L 253.808594 142.882812 C 253.386719 142.066406 252.964844 141.269531 252.542969 140.496094 C 252.335938 140.121094 252.121094 139.753906 251.914062 139.386719 C 251.863281 139.3125 251.816406 139.230469 251.773438 139.152344 L 251.253906 138.28125 C 251.191406 138.175781 251.121094 138.074219 251.058594 137.972656 L 250.585938 137.195312 L 250.363281 136.851562 C 250.210938 136.605469 250.054688 136.367188 249.902344 136.125 L 249.667969 135.773438 L 249.207031 135.078125 L 248.964844 134.730469 L 248.5 134.046875 C 248.417969 133.9375 248.339844 133.824219 248.257812 133.710938 C 248.09375 133.484375 247.9375 133.257812 247.773438 133.035156 L 247.542969 132.71875 L 247.011719 132.015625 L 246.816406 131.757812 C 246.609375 131.488281 246.40625 131.222656 246.183594 130.960938 L 246.070312 130.816406 C 245.570312 130.183594 245.066406 129.582031 244.554688 128.988281 L 244.359375 128.761719 C 244.175781 128.546875 243.984375 128.339844 243.796875 128.128906 L 243.523438 127.832031 L 243.03125 127.296875 L 242.726562 126.972656 L 242.253906 126.480469 L 241.925781 126.144531 L 241.46875 125.691406 L 241.128906 125.359375 L 240.671875 124.917969 L 240.324219 124.597656 L 239.863281 124.179688 L 239.574219 123.957031 C 242.851562 124.914062 246.058594 126.070312 249.195312 127.429688 Z M 219.554688 120.835938 L 219.921875 120.886719 L 220.152344 120.921875 L 220.84375 121.042969 L 220.914062 121.042969 L 221.542969 121.175781 L 221.773438 121.234375 L 222.238281 121.339844 L 222.5 121.410156 L 222.933594 121.53125 L 223.207031 121.605469 L 223.644531 121.746094 L 223.902344 121.828125 L 224.363281 121.980469 L 224.589844 122.0625 L 225.167969 122.269531 L 225.273438 122.3125 L 225.96875 122.59375 L 226.109375 122.65625 L 226.652344 122.894531 L 226.875 122.996094 L 227.339844 123.210938 L 227.582031 123.332031 L 228.023438 123.554688 L 228.265625 123.679688 L 228.71875 123.925781 L 228.945312 124.046875 L 229.445312 124.335938 L 229.617188 124.433594 C 230.066406 124.699219 230.515625 124.980469 230.957031 125.273438 L 231.140625 125.394531 L 231.621094 125.722656 L 231.847656 125.878906 L 232.285156 126.1875 L 232.523438 126.367188 L 232.949219 126.683594 L 233.183594 126.867188 L 233.625 127.207031 L 233.832031 127.378906 L 234.359375 127.808594 L 234.476562 127.910156 L 235.109375 128.464844 L 235.242188 128.585938 L 235.75 129.035156 L 235.964844 129.234375 L 236.378906 129.628906 L 236.621094 129.855469 L 237.011719 130.242188 L 237.253906 130.480469 C 237.386719 130.613281 237.519531 130.746094 237.644531 130.886719 C 237.769531 131.023438 237.804688 131.042969 237.878906 131.125 C 237.953125 131.207031 238.15625 131.421875 238.300781 131.570312 L 238.5 131.777344 L 239.128906 132.453125 C 239.339844 132.6875 239.546875 132.921875 239.761719 133.160156 L 239.972656 133.40625 C 240.109375 133.566406 240.242188 133.730469 240.375 133.886719 L 240.621094 134.1875 L 240.984375 134.640625 C 241.070312 134.742188 241.152344 134.847656 241.234375 134.957031 C 241.316406 135.0625 241.46875 135.253906 241.582031 135.398438 L 241.84375 135.742188 L 242.183594 136.183594 C 242.265625 136.296875 242.347656 136.417969 242.4375 136.53125 L 242.773438 136.992188 L 243.019531 137.332031 L 243.367188 137.828125 L 243.59375 138.15625 L 243.964844 138.707031 C 244.03125 138.800781 244.097656 138.894531 244.164062 138.996094 L 244.710938 139.835938 C 244.761719 139.90625 244.808594 139.980469 244.851562 140.050781 C 244.992188 140.265625 245.128906 140.480469 245.261719 140.683594 C 245.339844 140.796875 245.40625 140.917969 245.476562 141.03125 C 245.546875 141.144531 245.699219 141.386719 245.804688 141.570312 C 245.914062 141.753906 245.957031 141.828125 246.039062 141.953125 C 246.121094 142.082031 246.242188 142.296875 246.335938 142.464844 C 246.429688 142.636719 246.5 142.738281 246.578125 142.878906 L 246.867188 143.382812 C 246.945312 143.523438 247.027344 143.660156 247.101562 143.804688 L 247.386719 144.3125 L 247.621094 144.742188 L 247.90625 145.265625 C 247.972656 145.414062 248.050781 145.550781 248.125 145.695312 C 248.203125 145.84375 248.320312 146.0625 248.417969 146.253906 L 248.625 146.65625 L 248.949219 147.289062 C 249.003906 147.402344 249.0625 147.511719 249.113281 147.617188 L 249.585938 148.597656 C 249.644531 148.710938 249.695312 148.832031 249.75 148.953125 C 249.851562 149.167969 249.957031 149.386719 250.054688 149.585938 C 250.148438 149.78125 250.1875 149.875 250.25 150.015625 C 250.3125 150.152344 250.433594 150.414062 250.519531 150.609375 C 250.609375 150.804688 250.652344 150.917969 250.722656 151.070312 C 250.792969 151.222656 250.886719 151.457031 250.976562 151.644531 C 251.066406 151.835938 251.109375 151.960938 251.179688 152.121094 C 251.25 152.277344 251.34375 152.503906 251.417969 152.699219 C 251.496094 152.898438 251.550781 153.023438 251.621094 153.179688 L 251.863281 153.769531 L 252.050781 154.25 C 252.132812 154.457031 252.214844 154.660156 252.292969 154.882812 C 252.367188 155.101562 252.417969 155.191406 252.476562 155.347656 C 252.53125 155.507812 252.644531 155.785156 252.726562 155.980469 C 252.808594 156.175781 252.835938 156.273438 252.890625 156.417969 L 253.203125 157.269531 C 253.234375 157.351562 253.265625 157.433594 253.289062 157.523438 C 253.421875 157.890625 253.554688 158.257812 253.683594 158.628906 L 253.816406 159.023438 L 254.066406 159.761719 L 254.21875 160.230469 C 254.277344 160.394531 254.328125 160.558594 254.382812 160.730469 L 219.554688 160.730469 Z M 219.554688 167.15625 L 256.21875 167.15625 C 256.394531 167.828125 256.566406 168.503906 256.730469 169.1875 C 256.78125 169.375 256.824219 169.570312 256.867188 169.769531 L 257.226562 171.292969 L 257.398438 172.0625 C 257.492188 172.519531 257.59375 172.972656 257.691406 173.429688 L 257.859375 174.25 L 258.125 175.601562 L 258.277344 176.417969 C 258.367188 176.898438 258.449219 177.378906 258.535156 177.867188 C 258.574219 178.105469 258.617188 178.347656 258.65625 178.585938 C 258.765625 179.21875 258.867188 179.851562 258.964844 180.484375 L 259.003906 180.734375 C 259.117188 181.46875 259.21875 182.203125 259.320312 182.941406 L 259.398438 183.574219 C 259.464844 184.097656 259.535156 184.625 259.59375 185.148438 L 259.6875 185.964844 L 259.839844 187.398438 C 259.871094 187.683594 259.894531 187.96875 259.921875 188.25 C 259.972656 188.726562 260.011719 189.207031 260.054688 189.679688 C 260.054688 189.957031 260.097656 190.242188 260.125 190.519531 L 260.238281 192.0625 C 260.238281 192.308594 260.269531 192.550781 260.289062 192.789062 C 260.332031 193.523438 260.375 194.257812 260.40625 194.992188 C 260.410156 195.015625 260.410156 195.039062 260.40625 195.066406 C 260.445312 195.828125 260.476562 196.59375 260.503906 197.359375 L 260.503906 198.070312 C 260.503906 198.472656 260.503906 198.871094 260.503906 199.277344 L 219.554688 199.277344 Z M 219.554688 205.65625 L 260.546875 205.65625 C 260.546875 206.058594 260.546875 206.464844 260.546875 206.867188 L 260.546875 207.574219 C 260.523438 208.34375 260.488281 209.109375 260.453125 209.871094 C 260.457031 209.894531 260.457031 209.921875 260.453125 209.945312 C 260.421875 210.6875 260.375 211.414062 260.332031 212.144531 C 260.332031 212.386719 260.292969 212.625 260.28125 212.875 L 260.167969 214.410156 C 260.167969 214.695312 260.125 214.972656 260.097656 215.257812 C 260.054688 215.730469 260.015625 216.210938 259.964844 216.683594 C 259.964844 216.96875 259.914062 217.253906 259.882812 217.539062 L 259.730469 218.972656 L 259.636719 219.78125 C 259.578125 220.3125 259.511719 220.839844 259.441406 221.363281 L 259.363281 221.996094 C 259.265625 222.734375 259.164062 223.46875 259.050781 224.195312 L 259.011719 224.453125 C 258.910156 225.085938 258.808594 225.71875 258.703125 226.351562 C 258.664062 226.589844 258.621094 226.832031 258.582031 227.070312 C 258.492188 227.550781 258.410156 228.039062 258.320312 228.519531 L 258.171875 229.332031 L 257.90625 230.6875 L 257.734375 231.507812 C 257.640625 231.964844 257.539062 232.417969 257.445312 232.875 L 257.273438 233.644531 L 256.914062 235.167969 C 256.867188 235.359375 256.824219 235.554688 256.773438 235.75 C 256.609375 236.433594 256.4375 237.109375 256.261719 237.777344 L 219.597656 237.777344 Z M 238.515625 273.171875 L 238.316406 273.386719 L 237.898438 273.828125 L 237.664062 274.070312 L 237.273438 274.46875 L 237.027344 274.714844 L 236.640625 275.09375 L 236.394531 275.328125 C 236.261719 275.460938 236.128906 275.585938 235.988281 275.707031 L 235.761719 275.921875 L 235.289062 276.351562 L 235.128906 276.492188 C 234.914062 276.679688 234.707031 276.863281 234.496094 277.039062 L 234.332031 277.179688 C 234.175781 277.3125 234.015625 277.445312 233.851562 277.570312 L 233.613281 277.761719 L 233.207031 278.082031 L 232.941406 278.285156 L 232.550781 278.578125 L 232.277344 278.777344 L 231.886719 279.058594 L 231.621094 279.246094 L 231.195312 279.53125 L 230.964844 279.691406 L 230.386719 280.054688 L 230.269531 280.132812 C 230.058594 280.261719 229.847656 280.390625 229.636719 280.511719 L 229.390625 280.65625 L 228.964844 280.898438 L 228.6875 281.046875 L 228.296875 281.261719 L 228.003906 281.414062 L 227.613281 281.609375 L 227.320312 281.75 L 226.925781 281.941406 L 226.644531 282.066406 L 226.195312 282.261719 L 225.964844 282.363281 L 225.292969 282.636719 L 225.085938 282.71875 L 224.609375 282.886719 L 224.332031 282.988281 L 223.921875 283.121094 C 223.828125 283.160156 223.726562 283.183594 223.625 283.214844 L 223.226562 283.34375 L 222.929688 283.425781 L 222.523438 283.539062 L 222.234375 283.613281 L 221.804688 283.714844 L 221.542969 283.78125 L 220.957031 283.898438 L 220.847656 283.898438 L 220.160156 284.019531 L 219.921875 284.058594 L 219.558594 284.109375 L 219.558594 244.15625 L 254.363281 244.15625 C 254.308594 244.328125 254.25 244.5 254.199219 244.664062 L 254.046875 245.117188 C 253.964844 245.371094 253.878906 245.625 253.789062 245.875 C 253.75 246.003906 253.707031 246.128906 253.664062 246.257812 C 253.535156 246.628906 253.402344 246.996094 253.269531 247.363281 L 253.1875 247.589844 L 252.847656 248.488281 C 252.796875 248.632812 252.746094 248.773438 252.691406 248.910156 C 252.632812 249.050781 252.523438 249.359375 252.4375 249.585938 L 252.261719 250.042969 L 252.011719 250.675781 L 251.824219 251.148438 C 251.742188 251.34375 251.664062 251.546875 251.582031 251.742188 C 251.5 251.9375 251.449219 252.058594 251.386719 252.21875 C 251.324219 252.375 251.222656 252.609375 251.132812 252.804688 C 251.046875 253 251 253.121094 250.9375 253.273438 L 250.679688 253.859375 C 250.617188 254.011719 250.554688 254.164062 250.484375 254.308594 L 250.210938 254.941406 L 250.023438 255.359375 L 249.707031 256.035156 C 249.65625 256.148438 249.597656 256.257812 249.546875 256.371094 L 249.074219 257.351562 L 248.921875 257.652344 C 248.816406 257.882812 248.699219 258.101562 248.585938 258.328125 C 248.519531 258.460938 248.449219 258.589844 248.386719 258.722656 L 248.085938 259.296875 L 247.867188 259.707031 L 247.582031 260.246094 L 247.355469 260.664062 L 247.0625 261.1875 L 246.828125 261.597656 C 246.734375 261.773438 246.632812 261.945312 246.53125 262.117188 L 246.304688 262.515625 L 245.996094 263.039062 L 245.769531 263.417969 C 245.660156 263.601562 245.546875 263.785156 245.433594 263.96875 L 245.222656 264.304688 C 245.085938 264.53125 244.941406 264.757812 244.792969 264.984375 L 244.675781 265.167969 L 244.125 266.015625 L 243.949219 266.277344 L 243.554688 266.851562 L 243.335938 267.167969 C 243.214844 267.335938 243.101562 267.507812 242.980469 267.671875 L 242.738281 268.007812 L 242.390625 268.480469 L 242.144531 268.816406 L 241.804688 269.273438 C 241.714844 269.378906 241.632812 269.492188 241.550781 269.601562 C 241.46875 269.707031 241.316406 269.902344 241.199219 270.050781 L 240.949219 270.367188 L 240.578125 270.820312 C 240.503906 270.921875 240.421875 271.015625 240.339844 271.113281 L 239.925781 271.605469 L 239.726562 271.839844 C 239.523438 272.078125 239.3125 272.320312 239.09375 272.550781 Z M 239.574219 281.03125 L 239.800781 280.820312 L 240.261719 280.402344 L 240.609375 280.074219 L 241.066406 279.640625 L 241.40625 279.308594 L 241.867188 278.847656 L 242.191406 278.519531 L 242.664062 278.027344 L 242.96875 277.703125 L 243.46875 277.160156 L 243.734375 276.863281 L 244.300781 276.230469 L 244.492188 276.011719 C 245.003906 275.417969 245.507812 274.808594 246.007812 274.183594 C 246.046875 274.140625 246.078125 274.089844 246.117188 274.039062 L 246.746094 273.242188 L 246.945312 272.984375 L 247.476562 272.28125 L 247.703125 271.964844 L 248.1875 271.289062 L 248.429688 270.945312 C 248.585938 270.726562 248.738281 270.5 248.898438 270.269531 L 249.136719 269.917969 L 249.597656 269.226562 L 249.832031 268.867188 C 249.984375 268.632812 250.140625 268.394531 250.292969 268.148438 L 250.515625 267.804688 L 250.988281 267.035156 L 251.183594 266.71875 L 251.699219 265.851562 L 251.84375 265.605469 L 252.476562 264.511719 C 252.910156 263.726562 253.339844 262.9375 253.738281 262.128906 L 253.847656 261.921875 L 254.351562 260.929688 C 254.410156 260.820312 254.460938 260.707031 254.515625 260.59375 L 254.953125 259.714844 L 255.140625 259.316406 L 255.539062 258.476562 C 255.605469 258.328125 255.671875 258.183594 255.742188 258.039062 L 256.117188 257.210938 C 256.183594 257.058594 256.253906 256.90625 256.316406 256.75 C 256.445312 256.476562 256.566406 256.199219 256.683594 255.921875 C 256.746094 255.761719 256.816406 255.613281 256.886719 255.453125 L 257.242188 254.601562 L 257.429688 254.140625 C 257.558594 253.839844 257.675781 253.542969 257.796875 253.242188 L 258.355469 251.820312 C 258.398438 251.699219 258.441406 251.578125 258.492188 251.457031 C 258.652344 251.023438 258.816406 250.59375 258.972656 250.148438 C 258.972656 250.128906 258.972656 250.109375 258.972656 250.085938 C 259.144531 249.617188 259.308594 249.152344 259.472656 248.675781 L 259.578125 248.375 C 259.699219 248.011719 259.828125 247.648438 259.953125 247.28125 L 260.109375 246.78125 L 260.414062 245.859375 C 260.476562 245.667969 260.535156 245.476562 260.597656 245.28125 L 260.863281 244.417969 C 260.863281 244.339844 260.914062 244.269531 260.933594 244.195312 L 286.785156 244.195312 C 284.1875 248.613281 281.199219 252.746094 277.820312 256.601562 C 274.441406 260.453125 270.730469 263.957031 266.6875 267.109375 C 262.648438 270.261719 258.347656 273.007812 253.789062 275.347656 C 249.226562 277.691406 244.488281 279.582031 239.574219 281.03125 Z M 290.230469 237.8125 L 262.765625 237.8125 C 262.765625 237.691406 262.816406 237.578125 262.847656 237.457031 C 262.90625 237.214844 262.96875 236.96875 263.023438 236.730469 C 263.140625 236.238281 263.257812 235.75 263.367188 235.257812 C 263.429688 234.996094 263.488281 234.746094 263.542969 234.492188 C 263.65625 233.980469 263.765625 233.460938 263.871094 232.949219 C 263.917969 232.726562 263.96875 232.5 264.011719 232.28125 C 264.316406 230.8125 264.585938 229.328125 264.84375 227.855469 C 264.882812 227.632812 264.914062 227.40625 264.953125 227.179688 C 265.042969 226.648438 265.125 226.121094 265.207031 225.589844 C 265.25 225.332031 265.289062 225.066406 265.324219 224.808594 C 265.402344 224.296875 265.476562 223.777344 265.546875 223.257812 C 265.578125 223.011719 265.617188 222.761719 265.648438 222.507812 C 265.726562 221.890625 265.804688 221.277344 265.875 220.667969 L 265.933594 220.226562 C 266.019531 219.460938 266.105469 218.695312 266.179688 217.925781 C 266.179688 217.726562 266.210938 217.53125 266.230469 217.335938 C 266.285156 216.761719 266.335938 216.1875 266.386719 215.609375 C 266.386719 215.339844 266.433594 215.074219 266.453125 214.800781 C 266.496094 214.28125 266.535156 213.765625 266.566406 213.246094 L 266.621094 212.410156 C 266.660156 211.863281 266.683594 211.304688 266.714844 210.75 L 266.753906 210.058594 C 266.792969 209.28125 266.824219 208.5 266.847656 207.714844 C 266.847656 207.589844 266.847656 207.457031 266.847656 207.328125 C 266.847656 206.78125 266.847656 206.230469 266.894531 205.671875 L 298.183594 205.671875 C 297.984375 211.246094 297.21875 216.738281 295.882812 222.152344 C 294.546875 227.566406 292.667969 232.785156 290.25 237.8125 Z M 380.949219 266.136719 C 380.449219 266.136719 379.957031 266.089844 379.46875 265.992188 C 378.980469 265.894531 378.507812 265.75 378.046875 265.558594 C 377.585938 265.367188 377.148438 265.136719 376.734375 264.859375 C 376.320312 264.582031 375.9375 264.265625 375.585938 263.914062 C 375.234375 263.5625 374.917969 263.179688 374.640625 262.765625 C 374.363281 262.351562 374.132812 261.914062 373.941406 261.453125 C 373.75 260.992188 373.605469 260.519531 373.507812 260.03125 C 373.410156 259.542969 373.363281 259.050781 373.363281 258.550781 C 373.363281 258.054688 373.410156 257.558594 373.507812 257.070312 C 373.605469 256.582031 373.75 256.109375 373.941406 255.648438 C 374.132812 255.1875 374.363281 254.75 374.640625 254.335938 C 374.917969 253.921875 375.234375 253.539062 375.585938 253.1875 C 375.9375 252.835938 376.320312 252.519531 376.734375 252.242188 C 377.148438 251.96875 377.585938 251.734375 378.046875 251.542969 C 378.507812 251.351562 378.980469 251.207031 379.46875 251.109375 C 379.957031 251.015625 380.449219 250.964844 380.949219 250.964844 C 381.445312 250.964844 381.941406 251.015625 382.429688 251.109375 C 382.917969 251.207031 383.390625 251.351562 383.851562 251.542969 C 384.3125 251.734375 384.75 251.96875 385.164062 252.242188 C 385.578125 252.519531 385.960938 252.835938 386.3125 253.1875 C 386.664062 253.539062 386.980469 253.921875 387.257812 254.335938 C 387.53125 254.75 387.765625 255.1875 387.957031 255.648438 C 388.148438 256.109375 388.292969 256.582031 388.390625 257.070312 C 388.484375 257.558594 388.535156 258.054688 388.535156 258.550781 C 388.535156 259.046875 388.484375 259.539062 388.390625 260.027344 C 388.292969 260.515625 388.148438 260.988281 387.960938 261.449219 C 387.769531 261.910156 387.535156 262.34375 387.261719 262.757812 C 386.984375 263.171875 386.671875 263.554688 386.320312 263.90625 C 385.96875 264.261719 385.585938 264.574219 385.171875 264.851562 C 384.761719 265.128906 384.324219 265.363281 383.863281 265.554688 C 383.40625 265.746094 382.933594 265.890625 382.445312 265.988281 C 381.957031 266.085938 381.464844 266.136719 380.96875 266.136719 Z M 380.949219 266.136719 " fill-opacity="1" fill-rule="nonzero"/></svg>