<svg xmlns="http://www.w3.org/2000/svg" xmlns:xlink="http://www.w3.org/1999/xlink" width="540" zoomAndPan="magnify" viewBox="0 0 404.88 404.99999" height="540" preserveAspectRatio="xMidYMid meet" version="1.0"><defs><clipPath id="bb52b9078d"><path d="M 8 11 L 397 11 L 397 404.753906 L 8 404.753906 Z M 8 11 " clip-rule="nonzero"/></clipPath><clipPath id="f8f7a5759e"><path d="M 95 5.121094 L 309 5.121094 L 309 404.753906 L 95 404.753906 Z M 95 5.121094 " clip-rule="nonzero"/></clipPath></defs><g clip-path="url(#bb52b9078d)"><path fill="#fce3fb" d="M 130.578125 150.6875 C 145.375 165.484375 165.824219 174.636719 188.433594 174.636719 C 201.042969 174.636719 212.964844 170.894531 219.628906 168.347656 L 181.847656 97.691406 C 181.265625 96.949219 180.921875 95.503906 180.921875 94.519531 L 180.921875 11.292969 C 139.058594 15.09375 106.597656 50.28125 106.597656 92.800781 C 106.597656 115.410156 115.761719 135.859375 130.578125 150.6875 Z M 220.324219 241.761719 L 268.03125 201.65625 C 254.632812 185.605469 266.09375 161.027344 287.0625 161.027344 C 294.585938 161.027344 301.386719 164.394531 305.957031 169.773438 L 347.984375 134.421875 C 343.203125 118.59375 355.035156 102.457031 371.714844 102.457031 C 393.726562 102.457031 404.828125 129.167969 389.242188 144.753906 C 379.449219 154.542969 363.535156 154.429688 353.917969 144.484375 L 311.265625 180.355469 C 315.664062 200.015625 296.003906 216.394531 277.550781 208.714844 L 226.207031 251.890625 C 230.914062 267.691406 219.039062 283.722656 202.449219 283.722656 C 189.902344 283.722656 179.394531 274.34375 177.871094 262.066406 L 138.660156 234.480469 C 129.777344 248.261719 110.195312 249.816406 99.289062 237.535156 L 54.117188 279.699219 C 64.503906 296.078125 52.746094 317.703125 33.175781 317.703125 C 11.164062 317.703125 0.0625 290.992188 15.648438 275.40625 C 23.664062 267.390625 36.097656 265.808594 45.832031 271.636719 L 93.703125 226.925781 C 89.960938 211.367188 101.71875 196.273438 117.816406 196.273438 C 132.257812 196.273438 143.660156 208.597656 142.511719 223.066406 L 179.636719 249.207031 C 186.582031 232.957031 207.957031 228.882812 220.324219 241.761719 Z M 392.636719 212.015625 L 350.773438 212.015625 L 350.773438 404.015625 L 392.636719 404.015625 Z M 223.382812 321.871094 L 181.488281 321.871094 L 181.488281 404.003906 L 223.382812 404.003906 Z M 54.105469 346.667969 L 12.242188 346.667969 L 12.242188 404.003906 L 54.105469 404.003906 Z M 54.105469 346.667969 " fill-opacity="1" fill-rule="nonzero"/></g><g clip-path="url(#f8f7a5759e)"><path fill="#d1a5db" d="M 265.1875 256.992188 L 308.957031 256.992188 L 308.957031 404.96875 L 265.1875 404.96875 Z M 139.683594 285.59375 L 139.683594 404.96875 L 95.910156 404.96875 L 95.910156 285.59375 Z M 204.378906 84.726562 L 204.378906 5.113281 L 205.390625 5.167969 C 225.976562 6.152344 245.316406 14.738281 259.863281 29.3125 C 274.40625 43.859375 282.992188 63.160156 284.003906 83.726562 L 284.0625 84.738281 L 204.378906 84.738281 Z M 194.722656 99.332031 L 271.011719 99.332031 L 270.925781 100.375 C 268.523438 126.898438 253.398438 150.628906 230.507812 164.160156 L 229.660156 164.683594 Z M 194.722656 99.332031 " fill-opacity="1" fill-rule="evenodd"/></g></svg>