<svg xmlns="http://www.w3.org/2000/svg" xmlns:xlink="http://www.w3.org/1999/xlink" width="540" zoomAndPan="magnify" viewBox="0 0 404.88 404.99999" height="540" preserveAspectRatio="xMidYMid meet" version="1.0"><defs><clipPath id="4a5c66a62f"><path d="M 379 0.0585938 L 404.761719 0.0585938 L 404.761719 26 L 379 26 Z M 379 0.0585938 " clip-rule="nonzero"/></clipPath><clipPath id="bff689ebd9"><path d="M 0 385 L 20 385 L 20 404.9375 L 0 404.9375 Z M 0 385 " clip-rule="nonzero"/></clipPath></defs><path fill="#fce3fb" d="M 81.875 307.996094 L 87.109375 303.929688 L 117.21875 342.667969 L 111.984375 346.734375 Z M 81.875 307.996094 " fill-opacity="1" fill-rule="nonzero"/><path fill="#fce3fb" d="M 127.039062 342.183594 L 192.46875 238.589844 L 198.078125 242.132812 L 132.652344 345.726562 Z M 127.039062 342.183594 " fill-opacity="1" fill-rule="nonzero"/><path fill="#fce3fb" d="M 260.554688 269.542969 L 328.855469 176.972656 L 334.191406 180.910156 L 265.894531 273.480469 Z M 260.554688 269.542969 " fill-opacity="1" fill-rule="nonzero"/><path fill="#fce3fb" d="M 209.359375 240.855469 L 214.050781 236.167969 L 248.410156 270.523438 L 243.71875 275.214844 Z M 209.359375 240.855469 " fill-opacity="1" fill-rule="nonzero"/><path fill="#fce3fb" d="M 14.625 382.066406 L 66.199219 304.699219 L 71.71875 308.378906 L 20.144531 385.746094 Z M 14.625 382.066406 " fill-opacity="1" fill-rule="nonzero"/><path fill="#fce3fb" d="M 149.289062 166.140625 C 150.195312 166.140625 151.097656 165.773438 151.757812 165.042969 L 211.457031 98.710938 C 212.679688 97.351562 212.570312 95.25 211.210938 94.027344 C 209.847656 92.804688 207.765625 92.914062 206.519531 94.273438 L 146.820312 160.605469 C 145.597656 161.96875 145.707031 164.066406 147.066406 165.289062 C 147.699219 165.859375 148.496094 166.140625 149.289062 166.140625 Z M 149.289062 166.140625 " fill-opacity="1" fill-rule="nonzero"/><path fill="#fce3fb" d="M 136.023438 239.109375 C 136.929688 239.109375 137.828125 238.738281 138.488281 238.007812 L 165.023438 208.527344 C 166.246094 207.167969 166.136719 205.070312 164.777344 203.847656 C 163.417969 202.621094 161.332031 202.730469 160.085938 204.09375 L 133.554688 233.574219 C 132.328125 234.933594 132.441406 237.03125 133.800781 238.257812 C 134.433594 238.824219 135.230469 239.109375 136.023438 239.109375 Z M 136.023438 239.109375 " fill-opacity="1" fill-rule="nonzero"/><path fill="#fce3fb" d="M 197.945312 166.992188 C 196.582031 165.769531 194.492188 165.878906 193.253906 167.238281 L 179.988281 181.980469 C 178.761719 183.339844 178.871094 185.4375 180.234375 186.664062 C 180.867188 187.234375 181.664062 187.515625 182.457031 187.515625 C 183.363281 187.515625 184.261719 187.144531 184.925781 186.414062 L 198.191406 171.675781 C 199.414062 170.316406 199.304688 168.21875 197.945312 166.992188 Z M 197.945312 166.992188 " fill-opacity="1" fill-rule="nonzero"/><path fill="#fce3fb" d="M 213.152344 264.527344 L 193.253906 286.636719 C 192.027344 288 192.140625 290.097656 193.507812 291.320312 C 194.136719 291.890625 194.933594 292.171875 195.722656 292.171875 C 196.628906 292.171875 197.53125 291.804688 198.191406 291.074219 L 218.089844 268.964844 C 219.316406 267.601562 219.203125 265.503906 217.835938 264.28125 C 216.488281 263.058594 214.390625 263.164062 213.152344 264.527344 Z M 213.152344 264.527344 " fill-opacity="1" fill-rule="nonzero"/><path fill="#fce3fb" d="M 252.953125 220.304688 L 239.6875 235.046875 C 238.460938 236.40625 238.574219 238.503906 239.933594 239.730469 C 240.566406 240.300781 241.363281 240.582031 242.15625 240.582031 C 243.0625 240.582031 243.960938 240.210938 244.625 239.480469 L 257.890625 224.742188 C 259.113281 223.382812 259.003906 221.28125 257.644531 220.058594 C 256.289062 218.835938 254.191406 218.945312 252.953125 220.304688 Z M 252.953125 220.304688 " fill-opacity="1" fill-rule="nonzero"/><g clip-path="url(#4a5c66a62f)"><path fill="#fce3fb" d="M 402.636719 1.894531 C 401.160156 0.566406 399.210938 0.0390625 397.1875 0.445312 C 392.539062 1.414062 386.550781 2.9375 379.511719 5.269531 C 382.390625 8.941406 385.875 12.648438 389.765625 16.164062 C 393.65625 19.667969 397.703125 22.753906 401.652344 25.242188 C 403.25 18 404.148438 11.886719 404.636719 7.164062 C 404.84375 5.152344 404.113281 3.230469 402.636719 1.894531 Z M 402.636719 1.894531 " fill-opacity="1" fill-rule="nonzero"/></g><g clip-path="url(#bff689ebd9)"><path fill="#fce3fb" d="M 19.9375 394.988281 C 19.9375 395.644531 19.875 396.289062 19.746094 396.929688 C 19.621094 397.570312 19.429688 398.195312 19.179688 398.796875 C 18.929688 399.402344 18.625 399.976562 18.261719 400.519531 C 17.898438 401.0625 17.488281 401.5625 17.023438 402.027344 C 16.5625 402.488281 16.058594 402.898438 15.515625 403.261719 C 14.972656 403.625 14.398438 403.933594 13.796875 404.183594 C 13.191406 404.433594 12.570312 404.621094 11.929688 404.75 C 11.289062 404.875 10.640625 404.941406 9.988281 404.941406 C 9.335938 404.941406 8.6875 404.875 8.046875 404.75 C 7.40625 404.621094 6.785156 404.433594 6.179688 404.183594 C 5.578125 403.933594 5.003906 403.625 4.460938 403.261719 C 3.917969 402.898438 3.414062 402.488281 2.953125 402.027344 C 2.492188 401.5625 2.078125 401.0625 1.714844 400.519531 C 1.351562 399.976562 1.046875 399.402344 0.796875 398.796875 C 0.546875 398.195312 0.359375 397.570312 0.230469 396.929688 C 0.101562 396.289062 0.0390625 395.644531 0.0390625 394.988281 C 0.0390625 394.335938 0.101562 393.691406 0.230469 393.050781 C 0.359375 392.40625 0.546875 391.785156 0.796875 391.183594 C 1.046875 390.578125 1.351562 390.003906 1.714844 389.460938 C 2.078125 388.917969 2.492188 388.417969 2.953125 387.953125 C 3.414062 387.492188 3.917969 387.078125 4.460938 386.71875 C 5.003906 386.355469 5.578125 386.046875 6.179688 385.796875 C 6.785156 385.546875 7.40625 385.359375 8.046875 385.230469 C 8.6875 385.105469 9.335938 385.039062 9.988281 385.039062 C 10.640625 385.039062 11.289062 385.105469 11.929688 385.230469 C 12.570312 385.359375 13.191406 385.546875 13.796875 385.796875 C 14.398438 386.046875 14.972656 386.355469 15.515625 386.71875 C 16.058594 387.078125 16.5625 387.492188 17.023438 387.953125 C 17.488281 388.417969 17.898438 388.917969 18.261719 389.460938 C 18.625 390.003906 18.929688 390.578125 19.179688 391.183594 C 19.429688 391.785156 19.621094 392.40625 19.746094 393.050781 C 19.875 393.691406 19.9375 394.335938 19.9375 394.988281 Z M 19.9375 394.988281 " fill-opacity="1" fill-rule="nonzero"/></g><path fill="#fce3fb" d="M 299.476562 43.140625 C 280.585938 45.265625 247.242188 52.496094 223.492188 76.984375 L 246.335938 97.59375 C 264.28125 74.917969 282.304688 57.125 299.476562 43.140625 Z M 299.476562 43.140625 " fill-opacity="1" fill-rule="nonzero"/><path fill="#fce3fb" d="M 274.425781 144.015625 L 307.082031 173.476562 C 311.382812 169.601562 315.460938 165.742188 319.398438 161.894531 L 252.027344 101.113281 C 248.601562 105.421875 245.179688 109.875 241.765625 114.554688 Z M 274.425781 144.015625 " fill-opacity="1" fill-rule="nonzero"/><path fill="#fce3fb" d="M 249.183594 190.914062 C 249.648438 189.367188 251.074219 188.355469 252.765625 188.558594 C 254.367188 188.75 255.597656 190.050781 255.679688 191.660156 L 255.925781 196.414062 C 276.625 180.019531 283.664062 167.601562 285.707031 163.125 L 254.257812 134.753906 C 250.039062 137.230469 238.398438 145.5 224.199219 167.792969 L 228.953125 167.546875 C 230.550781 167.460938 232.015625 168.570312 232.359375 170.160156 C 232.703125 171.75 231.839844 173.355469 230.332031 173.949219 C 229.828125 174.160156 217.699219 179.503906 222.472656 201.597656 C 244.941406 204.074219 249.023438 191.464844 249.183594 190.914062 Z M 249.183594 190.914062 " fill-opacity="1" fill-rule="nonzero"/><path fill="#fce3fb" d="M 86.273438 295.492188 C 86.273438 296.144531 86.207031 296.789062 86.082031 297.429688 C 85.953125 298.074219 85.765625 298.695312 85.515625 299.296875 C 85.265625 299.902344 84.957031 300.476562 84.59375 301.019531 C 84.230469 301.5625 83.820312 302.0625 83.359375 302.527344 C 82.894531 302.988281 82.394531 303.402344 81.851562 303.761719 C 81.304688 304.125 80.734375 304.433594 80.128906 304.683594 C 79.527344 304.933594 78.902344 305.121094 78.261719 305.25 C 77.621094 305.375 76.976562 305.441406 76.320312 305.441406 C 75.667969 305.441406 75.023438 305.375 74.378906 305.25 C 73.738281 305.121094 73.117188 304.933594 72.515625 304.683594 C 71.910156 304.433594 71.335938 304.125 70.792969 303.761719 C 70.25 303.402344 69.75 302.988281 69.285156 302.527344 C 68.824219 302.0625 68.410156 301.5625 68.046875 301.019531 C 67.6875 300.476562 67.378906 299.902344 67.128906 299.296875 C 66.878906 298.695312 66.691406 298.074219 66.5625 297.429688 C 66.4375 296.789062 66.371094 296.144531 66.371094 295.492188 C 66.371094 294.835938 66.4375 294.191406 66.5625 293.550781 C 66.691406 292.910156 66.878906 292.285156 67.128906 291.683594 C 67.378906 291.078125 67.6875 290.503906 68.046875 289.960938 C 68.410156 289.417969 68.824219 288.917969 69.285156 288.453125 C 69.75 287.992188 70.25 287.582031 70.792969 287.21875 C 71.335938 286.855469 71.910156 286.546875 72.515625 286.296875 C 73.117188 286.046875 73.738281 285.859375 74.378906 285.730469 C 75.023438 285.605469 75.667969 285.539062 76.320312 285.539062 C 76.976562 285.539062 77.621094 285.605469 78.261719 285.730469 C 78.902344 285.859375 79.527344 286.046875 80.128906 286.296875 C 80.734375 286.546875 81.304688 286.855469 81.851562 287.21875 C 82.394531 287.582031 82.894531 287.992188 83.359375 288.453125 C 83.820312 288.917969 84.230469 289.417969 84.59375 289.960938 C 84.957031 290.503906 85.265625 291.078125 85.515625 291.683594 C 85.765625 292.285156 85.953125 292.910156 86.082031 293.550781 C 86.207031 294.191406 86.273438 294.835938 86.273438 295.492188 Z M 86.273438 295.492188 " fill-opacity="1" fill-rule="nonzero"/><path fill="#fce3fb" d="M 372.980469 7.574219 C 343.753906 18.449219 300.078125 42.609375 256.203125 95.949219 L 324.105469 157.210938 C 372.664062 108.097656 392.214844 62.164062 400.03125 31.976562 C 395.148438 29.097656 390.117188 25.40625 385.320312 21.089844 C 380.527344 16.761719 376.335938 12.132812 372.980469 7.574219 Z M 360.257812 88.875 C 355.464844 94.191406 348.882812 97.320312 341.738281 97.691406 C 341.265625 97.710938 340.792969 97.726562 340.328125 97.726562 C 333.6875 97.726562 327.371094 95.300781 322.410156 90.824219 C 311.441406 80.925781 310.566406 63.945312 320.464844 52.976562 C 325.257812 47.660156 331.835938 44.53125 338.984375 44.167969 C 346.066406 43.777344 352.996094 46.238281 358.308594 51.03125 C 363.621094 55.824219 366.757812 62.402344 367.117188 69.550781 C 367.488281 76.699219 365.050781 83.5625 360.257812 88.875 Z M 360.257812 88.875 " fill-opacity="1" fill-rule="nonzero"/><path fill="#fce3fb" d="M 132.703125 355.191406 C 132.703125 355.84375 132.640625 356.492188 132.515625 357.132812 C 132.386719 357.773438 132.199219 358.394531 131.949219 358.996094 C 131.699219 359.601562 131.390625 360.175781 131.027344 360.71875 C 130.664062 361.261719 130.253906 361.765625 129.789062 362.226562 C 129.328125 362.6875 128.824219 363.101562 128.28125 363.464844 C 127.738281 363.828125 127.167969 364.132812 126.5625 364.382812 C 125.960938 364.632812 125.335938 364.820312 124.695312 364.949219 C 124.054688 365.078125 123.410156 365.140625 122.753906 365.140625 C 122.101562 365.140625 121.453125 365.078125 120.8125 364.949219 C 120.171875 364.820312 119.550781 364.632812 118.949219 364.382812 C 118.34375 364.132812 117.769531 363.828125 117.226562 363.464844 C 116.683594 363.101562 116.179688 362.6875 115.71875 362.226562 C 115.257812 361.765625 114.84375 361.261719 114.480469 360.71875 C 114.117188 360.175781 113.8125 359.601562 113.5625 358.996094 C 113.3125 358.394531 113.125 357.773438 112.996094 357.132812 C 112.867188 356.492188 112.804688 355.84375 112.804688 355.191406 C 112.804688 354.535156 112.867188 353.890625 112.996094 353.25 C 113.125 352.609375 113.3125 351.984375 113.5625 351.382812 C 113.8125 350.777344 114.117188 350.207031 114.480469 349.664062 C 114.84375 349.117188 115.257812 348.617188 115.71875 348.15625 C 116.179688 347.691406 116.683594 347.28125 117.226562 346.917969 C 117.769531 346.554688 118.34375 346.246094 118.949219 345.996094 C 119.550781 345.746094 120.171875 345.558594 120.8125 345.429688 C 121.453125 345.304688 122.101562 345.242188 122.753906 345.242188 C 123.410156 345.242188 124.054688 345.304688 124.695312 345.429688 C 125.335938 345.558594 125.960938 345.746094 126.5625 345.996094 C 127.167969 346.246094 127.738281 346.554688 128.28125 346.917969 C 128.824219 347.28125 129.328125 347.691406 129.789062 348.15625 C 130.253906 348.617188 130.664062 349.117188 131.027344 349.664062 C 131.390625 350.207031 131.699219 350.777344 131.949219 351.382812 C 132.199219 351.984375 132.386719 352.609375 132.515625 353.25 C 132.640625 353.890625 132.703125 354.535156 132.703125 355.191406 Z M 132.703125 355.191406 " fill-opacity="1" fill-rule="nonzero"/><path fill="#fce3fb" d="M 212.304688 229.15625 C 212.304688 229.8125 212.242188 230.457031 212.113281 231.097656 C 211.984375 231.738281 211.796875 232.363281 211.546875 232.964844 C 211.296875 233.570312 210.992188 234.140625 210.628906 234.683594 C 210.265625 235.230469 209.851562 235.730469 209.390625 236.191406 C 208.929688 236.65625 208.425781 237.066406 207.882812 237.429688 C 207.339844 237.792969 206.765625 238.101562 206.164062 238.351562 C 205.558594 238.601562 204.9375 238.789062 204.296875 238.917969 C 203.65625 239.042969 203.007812 239.109375 202.355469 239.109375 C 201.703125 239.109375 201.054688 239.042969 200.414062 238.917969 C 199.773438 238.789062 199.152344 238.601562 198.546875 238.351562 C 197.941406 238.101562 197.371094 237.792969 196.828125 237.429688 C 196.285156 237.066406 195.78125 236.65625 195.320312 236.191406 C 194.855469 235.730469 194.445312 235.230469 194.082031 234.683594 C 193.71875 234.140625 193.410156 233.570312 193.160156 232.964844 C 192.910156 232.363281 192.722656 231.738281 192.597656 231.097656 C 192.46875 230.457031 192.40625 229.8125 192.40625 229.15625 C 192.40625 228.503906 192.46875 227.855469 192.597656 227.214844 C 192.722656 226.574219 192.910156 225.953125 193.160156 225.351562 C 193.410156 224.746094 193.71875 224.171875 194.082031 223.628906 C 194.445312 223.085938 194.855469 222.582031 195.320312 222.121094 C 195.78125 221.660156 196.285156 221.246094 196.828125 220.882812 C 197.371094 220.523438 197.941406 220.214844 198.546875 219.964844 C 199.152344 219.714844 199.773438 219.527344 200.414062 219.398438 C 201.054688 219.269531 201.703125 219.207031 202.355469 219.207031 C 203.007812 219.207031 203.65625 219.269531 204.296875 219.398438 C 204.9375 219.527344 205.558594 219.714844 206.164062 219.964844 C 206.765625 220.214844 207.339844 220.523438 207.882812 220.882812 C 208.425781 221.246094 208.929688 221.660156 209.390625 222.121094 C 209.851562 222.582031 210.265625 223.085938 210.628906 223.628906 C 210.992188 224.171875 211.296875 224.746094 211.546875 225.351562 C 211.796875 225.953125 211.984375 226.574219 212.113281 227.214844 C 212.242188 227.855469 212.304688 228.503906 212.304688 229.15625 Z M 212.304688 229.15625 " fill-opacity="1" fill-rule="nonzero"/><path fill="#fce3fb" d="M 346.332031 187.800781 C 368.25 161.664062 372.019531 127.75 372.191406 108.742188 C 360.042969 127.257812 344.195312 147.015625 323.484375 167.1875 Z M 346.332031 187.800781 " fill-opacity="1" fill-rule="nonzero"/><path fill="#fce3fb" d="M 265.371094 282.222656 C 265.371094 282.878906 265.308594 283.523438 265.179688 284.164062 C 265.050781 284.804688 264.863281 285.429688 264.613281 286.03125 C 264.363281 286.636719 264.058594 287.207031 263.695312 287.75 C 263.332031 288.296875 262.917969 288.796875 262.457031 289.257812 C 261.996094 289.722656 261.492188 290.132812 260.949219 290.496094 C 260.40625 290.859375 259.832031 291.167969 259.230469 291.417969 C 258.625 291.667969 258.003906 291.855469 257.363281 291.984375 C 256.722656 292.109375 256.074219 292.175781 255.421875 292.175781 C 254.769531 292.175781 254.121094 292.109375 253.480469 291.984375 C 252.839844 291.855469 252.21875 291.667969 251.613281 291.417969 C 251.007812 291.167969 250.4375 290.859375 249.894531 290.496094 C 249.351562 290.132812 248.847656 289.722656 248.386719 289.257812 C 247.921875 288.796875 247.511719 288.296875 247.148438 287.75 C 246.785156 287.207031 246.476562 286.636719 246.226562 286.03125 C 245.976562 285.429688 245.789062 284.804688 245.664062 284.164062 C 245.535156 283.523438 245.472656 282.878906 245.472656 282.222656 C 245.472656 281.570312 245.535156 280.921875 245.664062 280.28125 C 245.789062 279.640625 245.976562 279.019531 246.226562 278.417969 C 246.476562 277.8125 246.785156 277.238281 247.148438 276.695312 C 247.511719 276.152344 247.921875 275.648438 248.386719 275.1875 C 248.847656 274.726562 249.351562 274.3125 249.894531 273.949219 C 250.4375 273.585938 251.007812 273.28125 251.613281 273.03125 C 252.21875 272.78125 252.839844 272.59375 253.480469 272.464844 C 254.121094 272.335938 254.769531 272.273438 255.421875 272.273438 C 256.074219 272.273438 256.722656 272.335938 257.363281 272.464844 C 258.003906 272.59375 258.625 272.78125 259.230469 273.03125 C 259.832031 273.28125 260.40625 273.585938 260.949219 273.949219 C 261.492188 274.3125 261.996094 274.726562 262.457031 275.1875 C 262.917969 275.648438 263.332031 276.152344 263.695312 276.695312 C 264.058594 277.238281 264.363281 277.8125 264.613281 278.417969 C 264.863281 279.019531 265.050781 279.640625 265.179688 280.28125 C 265.308594 280.921875 265.371094 281.570312 265.371094 282.222656 Z M 265.371094 282.222656 " fill-opacity="1" fill-rule="nonzero"/><path fill="#fce3fb" d="M 340.382812 50.765625 C 340.027344 50.765625 339.679688 50.773438 339.320312 50.789062 C 333.945312 51.066406 328.996094 53.421875 325.386719 57.421875 C 317.945312 65.675781 318.597656 78.449219 326.851562 85.902344 C 330.847656 89.507812 336.039062 91.339844 341.394531 91.0625 C 346.777344 90.789062 351.726562 88.433594 355.335938 84.433594 C 358.9375 80.4375 360.769531 75.269531 360.5 69.890625 C 360.21875 64.511719 357.867188 59.566406 353.863281 55.960938 C 350.128906 52.589844 345.378906 50.765625 340.382812 50.765625 Z M 340.382812 50.765625 " fill-opacity="1" fill-rule="nonzero"/></svg>